<?xml version="1.0" standalone="no"?>
<!DOCTYPE svg PUBLIC "-//W3C//DTD SVG 1.1//EN" "http://www.w3.org/Graphics/SVG/1.1/DTD/svg11.dtd" >
<svg>
<metadata>
Created by FontForge 20110222 at Tue Oct  7 14:31:30 2014
 By deploy user
Linux Libertine by Philipp H. Poll,
Open Font under Terms of following Free Software Licenses:
GPL (General Public License) with font-exception and OFL (Open Font License).
Created with FontForge (http://fontforge.sf.net)
Sept 2003, 2004, 2005, 2006, 2007, 2008, 2009, 2010, 2011,2012
</metadata>
<defs>
<font id="LinLibertineOB" horiz-adv-x="0" >
  <font-face 
    font-family="Linux Libertine O"
    font-weight="700"
    font-stretch="normal"
    units-per-em="1000"
    panose-1="2 0 8 3 0 0 0 0 0 0"
    ascent="800"
    descent="-200"
    x-height="436"
    cap-height="647"
    bbox="-1082 -328 6171 1014"
    underline-thickness="40"
    underline-position="-98"
    unicode-range="U+0020-FFFD"
  />
<missing-glyph horiz-adv-x="500" 
d="M50 605v-510l170 255zM80 50h340l-170 255zM280 350l170 -255v510zM250 395l170 255h-340zM0 0v700h500v-700h-500z" />
    <glyph glyph-name="ellipsis" unicode="&#x2e;&#x2e;&#x2e;" horiz-adv-x="817" 
d="M49 58q0 29 22 50t52 21t51 -20t21 -49q0 -28 -22 -49t-52 -21t-51 20t-21 48zM335 58q0 29 22 50t52 21t51 -20t21 -49q0 -28 -22 -49t-52 -21t-51 20t-21 48zM622 58q0 29 22 50t52 21t51 -20t21 -49q0 -28 -22 -49t-52 -21t-51 20t-21 48z" />
    <glyph glyph-name="exclamdbl" unicode="&#x21;&#x21;" horiz-adv-x="411" 
d="M317 660q30 0 51 -19.5t21 -55.5q0 -29 -14 -106q-28 -171 -30 -247q-1 -42 -28 -42q-18 0 -23.5 12.5t-6.5 41.5q-1 36 -9.5 111t-18.5 127q-14 70 -14 103q0 38 22 56.5t50 18.5zM244 60q0 29 22 50t52 21t51 -20t21 -49q0 -28 -22 -49t-52 -21t-51 20t-21 48zM133 658
q30 0 51 -19.5t21 -55.5q0 -29 -14 -106q-28 -171 -30 -247q-1 -42 -28 -42q-18 0 -23.5 12.5t-6.5 41.5q-1 36 -9.5 111t-18.5 127q-14 70 -14 103q0 38 22 56.5t50 18.5zM60 58q0 29 22 50t52 21t51 -20t21 -49q0 -28 -22 -49t-52 -21t-51 20t-21 48z" />
    <glyph glyph-name="question_question" unicode="&#x3f;&#x3f;" horiz-adv-x="826" 
d="M523 570q0 -10 4.5 -25t4.5 -29q0 -18 -15 -29.5t-38 -11.5q-20 0 -38.5 16t-18.5 42q0 42 53 86q47 39 137 39q85 0 135 -42t50 -111q0 -26 -9.5 -49t-29.5 -44.5t-34 -33t-40 -30.5q-19 -13 -30 -24t-22 -36.5t-11 -58.5v-13q0 -20 -6 -27t-27 -7q-19 0 -25.5 8
t-6.5 26v15q0 29 2.5 47.5t19 52t49.5 63.5q55 49 55 118q0 47 -20 78.5t-60 31.5q-33 0 -56 -15.5t-23 -36.5zM517 58q0 29 22 50t52 21t51 -20t21 -49q0 -28 -22 -49t-52 -21t-51 20t-21 48zM127 570q0 -10 4.5 -25t4.5 -29q0 -18 -15 -29.5t-38 -11.5q-20 0 -38.5 16
t-18.5 42q0 42 53 86q47 39 137 39q85 0 135 -42t50 -111q0 -26 -9.5 -49t-29.5 -44.5t-34 -33t-40 -30.5q-19 -13 -30 -24t-22 -36.5t-11 -58.5v-13q0 -20 -6 -27t-27 -7q-19 0 -25.5 8t-6.5 26v15q0 29 2.5 47.5t19 52t49.5 63.5q55 49 55 118q0 47 -20 78.5t-60 31.5
q-33 0 -56 -15.5t-23 -36.5zM121 58q0 29 22 50t52 21t51 -20t21 -49q0 -28 -22 -49t-52 -21t-51 20t-21 48z" />
    <glyph glyph-name="question_exclam" unicode="&#x3f;&#x21;" horiz-adv-x="615" 
d="M521 660q30 0 51 -19.5t21 -55.5q0 -29 -14 -106q-28 -171 -30 -247q-1 -42 -28 -42q-18 0 -23.5 12.5t-6.5 41.5q-1 36 -9.5 111t-18.5 127q-14 70 -14 103q0 38 22 56.5t50 18.5zM448 60q0 29 22 50t52 21t51 -20t21 -49q0 -28 -22 -49t-52 -21t-51 20t-21 48zM127 570
q0 -10 4.5 -25t4.5 -29q0 -18 -15 -29.5t-38 -11.5q-20 0 -38.5 16t-18.5 42q0 25 12.5 44t40.5 42q47 39 137 39q85 0 135 -42t50 -111q0 -26 -9.5 -49t-29.5 -44.5t-34 -33t-40 -30.5q-19 -13 -30 -24t-22 -36.5t-11 -58.5v-13q0 -20 -6 -27t-27 -7q-19 0 -25.5 8t-6.5 26
v15q0 21 1.5 34.5t7.5 36.5t21.5 46t40.5 46q55 49 55 118q0 47 -20 78.5t-60 31.5q-33 0 -56 -15.5t-23 -36.5zM121 58q0 29 22 50t52 21t51 -20t21 -49q0 -28 -22 -49t-52 -21t-51 20t-21 48z" />
    <glyph glyph-name="exclam_question" unicode="&#x21;&#x3f;" horiz-adv-x="628" 
d="M133 658q30 0 51 -19.5t21 -55.5q0 -29 -14 -106q-28 -171 -30 -247q-1 -42 -28 -42q-18 0 -23.5 12.5t-6.5 41.5q-1 36 -9.5 111t-18.5 127q-14 70 -14 103q0 38 22 56.5t50 18.5zM60 58q0 29 22 50t52 21t51 -20t21 -49q0 -28 -22 -49t-52 -21t-51 20t-21 48zM329 568
q0 -10 4.5 -25t4.5 -29q0 -18 -15 -29.5t-38 -11.5q-20 0 -38.5 16t-18.5 42q0 25 12.5 44t40.5 42q47 39 137 39q85 0 135 -42t50 -111q0 -26 -9.5 -49t-29.5 -44.5t-34 -33t-40 -30.5q-19 -13 -30 -24t-22 -36.5t-11 -58.5v-13q0 -20 -6 -27t-27 -7q-19 0 -25.5 8t-6.5 26
v15q0 21 1.5 34.5t7.5 36.5t21.5 46t40.5 46q55 49 55 118q0 47 -20 78.5t-60 31.5q-33 0 -56 -15.5t-23 -36.5zM323 56q0 29 22 50t52 21t51 -20t21 -49q0 -28 -22 -49t-52 -21t-51 20t-21 48z" />
    <glyph glyph-name="f_j" unicode="fj" horiz-adv-x="631" 
d="M421 314q0 40 -10.5 53t-44.5 17h-131v-256q0 -60 13 -76.5t54 -19.5q4 -4 4 -17t-4 -17q-86 2 -132 2q-58 0 -142 -2q-4 4 -4 17t4 17q48 2 62.5 18.5t14.5 75.5v258h-56q-27 0 -27 10v17q0 6 23.5 14.5t47.5 8.5h12v13q0 53 12.5 93t28 59.5t43.5 47.5q52 51 153 51
q81 0 138 -31q22 -12 36 -32t14 -35q0 -32 -18 -49.5t-46 -17.5q-26 0 -45 19t-29 46q-11 31 -27.5 44.5t-41.5 13.5q-10 0 -23 -7.5t-28.5 -25t-26 -55.5t-10.5 -90v-44h219q62 4 78 10q24 0 23 -17q-4 -56 -4 -106v-211q0 -131 -20.5 -192.5t-60.5 -93.5q-33 -28 -66 -42
t-86 -14q-28 0 -57 18.5t-29 48.5q0 20 18 40t32 20q8 0 16 -2t13.5 -4.5t12 -8t9.5 -8.5l10 -10l8 -8q18 -18 30 -18q21 0 34 22.5t13 49.5q0 34 -3.5 87.5t-3.5 80.5v238z" />
    <glyph glyph-name="f_t" unicode="ft" horiz-adv-x="688" 
d="M415 384h-180v-256q0 -42 6.5 -61.5t19 -26t41.5 -8.5q4 -4 4 -16.5t-4 -17.5q-86 2 -132 2q-58 0 -142 -2q-4 5 -4 17.5t4 16.5q48 2 62.5 18.5t14.5 75.5v258h-56q-16 0 -21.5 2t-5.5 8v17q0 6 23.5 14.5t47.5 8.5h12v13q0 41 6 72t19.5 54.5t25.5 38t33 35.5
q52 51 163 51q36 0 64 -7q33 -8 64.5 -32.5t48 -45.5t16.5 -28v-151h95q22 0 22 -10v-23q0 -17 -27 -17h-90v-257q0 -35 12.5 -51t31.5 -16q34 0 52 14q18 -15 18 -28q-16 -22 -53.5 -39t-77.5 -17q-50 0 -83 28q-30 26 -30 87v279zM386 434q17 0 27.5 9.5t15 28.5t6 35.5
t1.5 42.5q0 35 -34.5 70.5t-68.5 35.5q-11 0 -25 -7.5t-31.5 -25t-29.5 -55.5t-12 -90v-44h151z" />
    <glyph glyph-name="Q_u" unicode="Qu" horiz-adv-x="1329" 
d="M323 -64q17 4 31 4q98 0 164 -6t134 -28q165 -52 270 -52q38 0 92.5 17t103.5 45l17 -24q-49 -46 -121 -75t-147 -29q-167 0 -268 37q-87 31 -180 48.5t-130 17.5q-23 0 -35 -9q-26 -18 -56 -65q-25 24 -40 30q30 45 71 83.5t85 63.5q-117 16 -197 101t-80 214
q0 140 81 237q44 53 107.5 82.5t137.5 29.5q92 0 167 -40t119.5 -116t44.5 -173q0 -147 -86 -240q-68 -73 -173 -93q-25 -7 -61 -25t-54 -33zM351 616q-72 0 -117.5 -71t-45.5 -216q0 -137 55.5 -217t140.5 -80q75 0 117 75t42 201q0 147 -54 227.5t-138 80.5zM1240 133
q0 -43 12.5 -58.5t52.5 -19.5q2 -5 2.5 -16t-0.5 -16q-85 -11 -166 -33q-22 0 -23 17q-2 19 -4 44q-46 -25 -93.5 -43t-73.5 -18q-128 0 -128 160v156q0 59 -14.5 76.5t-52.5 19.5q-4 5 -4 17.5t4 16.5q86 -2 132 -2q21 0 57 2q10 -10 10 -34q0 -4 -1 -25t-1 -71v-167
q0 -48 17 -61.5t53 -13.5q48 0 92 27q-1 16 -1 30v185q0 42 -7 61.5t-19 25.5t-41 9q-4 5 -4 17.5t4 16.5q78 -2 132 -2q21 0 57 2q10 -10 10 -34q0 -4 -1 -25t-1 -71v-173z" />
    <glyph glyph-name="T_h" unicode="Th" horiz-adv-x="1136" 
d="M1042 128q0 -42 7 -62t22 -26t48 -8q5 -4 5 -16.5t-5 -17.5q-86 2 -142 2q-38 0 -122 -2q-4 5 -4 17.5t4 16.5q23 2 33.5 8t17 26.5t6.5 61.5v167q0 40 -23 57.5t-57 17.5q-37 0 -82 -28v-215q0 -41 6 -61t17 -26t34 -8q5 -4 5 -16.5t-5 -17.5q-86 2 -122 2
q-48 0 -132 -2q-5 5 -5 17.5t5 16.5q40 2 53.5 19t13.5 76v436q0 29 -10 35.5t-57 6.5h-102q-26 0 -36 -25.5t-10 -76.5v-380q0 -32 3 -49t15 -26.5t25.5 -12t43.5 -3.5q4 -4 4 -16.5t-4 -17.5q-100 2 -159 2q-67 0 -165 -2q-4 5 -4 17.5t4 16.5q34 1 49.5 3.5t28.5 12
t16 26.5t3 49v383q0 49 -10.5 74t-36.5 25h-49q-51 0 -81.5 -24t-45.5 -82q-26 0 -39 5q20 86 25 146q0 3 4 3q101 -8 233 -8h141h143q32 0 67.5 10t75.5 25.5t45 17.5q16 0 16 -13q-3 -37 -3 -102v-201q110 62 154 62q138 0 138 -160v-156z" />
    <glyph glyph-name="Q_u.sc" unicode="Q&#xe065;" horiz-adv-x="1361" 
d="M351 616q-72 0 -117.5 -71t-45.5 -216q0 -137 55.5 -217t140.5 -80q75 0 117 75t42 201q0 147 -54 227.5t-138 80.5zM694 329q0 -147 -86 -240q-92 -99 -244 -99q-15 0 -31 1q-12 -6 -18 -25q138 -6 277 -50q143 -45 270 -45q40 0 94.5 14.5t101.5 40.5l17 -24
q-47 -44 -119 -70.5t-149 -26.5q-155 0 -260 38q-90 33 -177 53.5t-117 20.5q-17 0 -42 -13.5t-38 -43.5q-5 2 -19.5 12t-19.5 12q18 30 55 51t62 25l39 38q-109 23 -181 106t-72 205q0 140 81 237q44 53 107.5 82.5t137.5 29.5q140 0 235.5 -91.5t95.5 -237.5zM1203 332
q0 60 -17 77t-66 19q-4 4 -4 17t4 17q86 -2 110 -2q30 0 106 2q4 -4 4 -17t-4 -17q-49 -2 -66 -19t-17 -77v-130q0 -106 -39.5 -159t-152.5 -53q-36 0 -64.5 3t-59.5 13t-52 27.5t-34.5 48.5t-13.5 73v177q0 61 -14.5 77.5t-62.5 18.5q-4 4 -4 17t4 17q86 -2 142 -2
q58 0 142 2q4 -4 4 -17t-4 -17q-48 -2 -62.5 -18.5t-14.5 -77.5v-151q0 -149 111 -149q34 0 57.5 9.5t36.5 24t20 37.5t9 43t2 48v138z" />
    <glyph glyph-name="q.sc_u.sc" unicode="&#xe061;&#xe065;" horiz-adv-x="1206" 
d="M1058 332q0 60 -17 77t-66 19q-5 4 -5 17t5 17q86 -2 110 -2q30 0 106 2q5 -4 5 -17t-5 -17q-49 -2 -66 -19t-17 -77v-130q0 -106 -39.5 -159t-152.5 -53q-36 0 -64.5 3t-59.5 13t-52 27.5t-34.5 48.5t-13.5 73v177q0 61 -14.5 77.5t-62.5 18.5q-5 4 -5 17t5 17
q86 -2 142 -2q58 0 142 2q5 -4 5 -17t-5 -17q-48 -2 -62.5 -18.5t-14.5 -77.5v-151q0 -149 111 -149q34 0 57.5 9.5t36.5 24t20 37.5t9 43t2 48v138zM289 434q-58 0 -84.5 -45t-26.5 -155q0 -106 27.5 -155t91.5 -49q60 0 87 47t27 144q0 116 -25.5 164.5t-96.5 48.5zM379 0
q-53 -29 -73 -57q86 1 178 -37q79 -26 175 -41q148 -23 258 44l25 -24q-61 -48 -120.5 -73.5t-144.5 -21.5q-158 7 -262 51q-6 2 -40 20t-64.5 29t-54.5 11q-10 0 -30.5 -16.5t-32.5 -36.5q-3 2 -11.5 11t-16.5 16.5t-12 9.5q36 48 85 56q29 28 62 49h-8q-109 0 -181.5 58.5
t-72.5 173.5q0 116 72 184t181 68q117 0 188.5 -61t71.5 -178q0 -94 -46 -154t-126 -81z" />
    <glyph glyph-name="f_f" unicode="ff" horiz-adv-x="716" 
d="M235 128q0 -61 14.5 -77.5t62.5 -18.5q4 -4 4 -17t-4 -17q-86 2 -142 2q-58 0 -142 -2q-4 4 -4 17t4 17q48 2 62.5 18.5t14.5 75.5v258h-56q-27 0 -27 10v17q0 6 23.5 14.5t47.5 8.5h12v3q0 57 23.5 109t60.5 86q60 56 143 56q58 0 97 -18.5t55 -43.5q3 4 12 14
q54 58 141 58q71 0 104 -24t33 -50q0 -31 -15.5 -47.5t-41.5 -16.5t-45 16t-26 41q-6 22 -11 30.5t-17 8.5q-8 0 -15.5 -3.5t-16.5 -14t-15.5 -28.5t-11 -50t-4.5 -75v-51h101q20 0 20 -10v-23q0 -17 -35 -17h-86v-256q0 -61 14.5 -77.5t62.5 -18.5q4 -4 4 -17t-4 -17
q-86 2 -142 2q-58 0 -142 -2q-4 4 -4 17t4 17q48 2 62.5 18.5t14.5 75.5v258h-9h-41h-140v-256zM438 544q-41 2 -59 50q-9 24 -25.5 38t-30.5 14q-10 0 -23 -7.5t-28.5 -25t-26 -55.5t-10.5 -90v-34h188h2v20q0 50 13 90z" />
    <glyph glyph-name="f_i" unicode="fi" horiz-adv-x="641" 
d="M235 128q0 -60 13 -76.5t54 -19.5q4 -4 4 -17t-4 -17q-86 2 -132 2q-58 0 -142 -2q-4 4 -4 17t4 17q48 2 62.5 18.5t14.5 75.5v258h-56q-27 0 -27 10v17q0 6 23.5 14.5t47.5 8.5h12v13q0 53 12.5 93t28 59.5t43.5 47.5q52 51 153 51q81 0 138 -31q22 -12 36 -32t14 -35
q0 -32 -18 -49.5t-46 -17.5q-26 0 -45 19t-29 46q-11 31 -27.5 44.5t-41.5 13.5q-10 0 -23 -7.5t-28.5 -25t-26 -55.5t-10.5 -90v-44h219q62 4 78 10q23 0 23 -17q-4 -56 -4 -106v-199q0 -60 12 -73.5t60 -16.5q5 -4 5 -17t-5 -17q-86 2 -137 2q-43 0 -127 -2q-5 4 -5 17
t5 17q40 4 51 17.5t11 72.5v192q0 40 -10.5 53t-44.5 17h-131v-256z" />
    <glyph glyph-name="f_l" unicode="fl" horiz-adv-x="680" 
d="M235 128q0 -42 7 -62t22 -26t48 -8q5 -5 5 -17.5t-5 -16.5q-86 2 -142 2q-58 0 -142 -2q-4 4 -4 16.5t4 17.5q48 2 62.5 18.5t14.5 75.5v258h-51q-16 0 -21.5 2t-5.5 8v17q0 6 23.5 14.5t47.5 8.5h7v3q0 57 23.5 109t60.5 86q60 56 143 56q76 0 123 -33q28 8 69 24.5
t48 18.5q16 0 16 -13q-3 -37 -3 -102v-456q0 -60 14.5 -76.5t62.5 -18.5q5 -5 5 -17.5t-5 -16.5q-86 2 -142 2q-58 0 -142 -2q-4 4 -4 16.5t4 17.5q48 2 62.5 18.5t14.5 76.5v419q-6 -2 -14 -2q-43 0 -62 50q-9 24 -25.5 38t-30.5 14q-10 0 -23 -7.5t-28.5 -25t-26 -55.5
t-10.5 -90v-34h86q20 0 20 -10v-23q0 -17 -35 -17h-71v-256z" />
    <glyph glyph-name="f_f_i" unicode="ffi" horiz-adv-x="947" 
d="M545 128q0 -42 6.5 -61.5t19 -26t41.5 -8.5q5 -5 5 -17.5t-5 -16.5q-86 2 -132 2q-48 0 -132 -2q-4 4 -4 16.5t4 17.5q41 2 54 18.5t13 75.5v258h-46h-134v-256q0 -32 2.5 -49.5t12.5 -27t19.5 -12.5t32.5 -7q5 -5 5 -17.5t-5 -16.5q-86 2 -132 2q-58 0 -142 -2
q-4 4 -4 16.5t4 17.5q48 2 62.5 18.5t14.5 75.5v258h-56q-16 0 -21.5 2t-5.5 8v17q0 6 28 14.5t53 8.5h2v3q0 57 23.5 109t60.5 86q60 56 143 56q58 0 97 -18.5t55 -43.5q7 8 15 16q60 56 143 56q75 0 127.5 -29t52.5 -59q0 -33 -16.5 -52.5t-43.5 -19.5q-26 0 -45 17
t-29 43q-11 29 -26 43.5t-29 14.5q-10 0 -23 -7.5t-28.5 -25t-26 -55.5t-10.5 -90v-44h215q62 4 78 10q23 0 23 -17q-4 -56 -4 -106v-199q0 -60 12 -73.5t60 -16.5q5 -4 5 -17t-5 -17q-86 2 -137 2q-43 0 -127 -2q-5 4 -5 17t5 17q40 4 51 17.5t11 72.5v192q0 42 -11.5 54
t-53.5 16h-117v-256zM413 434h2v13q0 50 19 97q-38 5 -55 50q-9 24 -25.5 38t-30.5 14q-10 0 -23 -7.5t-28.5 -25t-26 -55.5t-10.5 -90v-34h178z" />
    <glyph glyph-name=".notdef" horiz-adv-x="500" 
d="M50 605v-510l170 255zM80 50h340l-170 255zM280 350l170 -255v510zM250 395l170 255h-340zM0 0v700h500v-700h-500z" />
    <glyph glyph-name=".null" 
 />
    <glyph glyph-name="nonmarkingreturn" horiz-adv-x="333" 
 />
    <glyph glyph-name="space" unicode=" " horiz-adv-x="250" 
 />
    <glyph glyph-name="exclam" unicode="!" horiz-adv-x="266" 
d="M133 658q30 0 51 -19.5t21 -55.5q0 -29 -14 -106q-28 -171 -30 -247q-1 -42 -28 -42q-18 0 -23.5 12.5t-6.5 41.5q-1 36 -9.5 111t-18.5 127q-14 70 -14 103q0 38 22 56.5t50 18.5zM60 58q0 29 22 50t52 21t51 -20t21 -49q0 -28 -22 -49t-52 -21t-51 20t-21 48z" />
    <glyph glyph-name="quotedbl" unicode="&#x22;" horiz-adv-x="376" 
d="M110 411l-15 4q-32 170 -32 176q0 20 17.5 37t47.5 17q20 0 30.5 -6t12.5 -13t2 -18l-37 -191zM251 411l-15 4q-32 170 -32 176q0 20 17.5 37t47.5 17q20 0 30.5 -6t12.5 -13t2 -18l-37 -191z" />
    <glyph glyph-name="numbersign" unicode="#" horiz-adv-x="514" 
d="M288 253l18 107h-94q-4 -18 -10 -53t-10 -54h96zM358 360l-16 -107h118l-8 -66h-120q-4 -26 -13 -83.5t-15 -89.5h-52l28 173h-96q-5 -27 -14.5 -84.5t-15.5 -88.5h-54l28 173h-100l10 66h100q15 94 16 107h-100l10 66h100q4 29 14 86.5t14 86.5h56l-30 -173h98
q4 29 13 86.5t15 86.5h52l-28 -173h118l-10 -66h-118z" />
    <glyph glyph-name="dollar" unicode="$" horiz-adv-x="514" 
d="M246 392l10 180q-32 -3 -53 -25.5t-21 -57.5q0 -46 64 -97zM278 216l-11 -185q37 5 60 25.5t23 50.5q0 54 -72 109zM423 585q10 -90 10 -141q-7 -6 -22 -7t-24 2q-7 24 -13 40.5t-16.5 36.5t-26 33t-34.5 19l-11 -202l4 -2q1 -1 12 -6.5l15 -7.5t14.5 -8t15.5 -9l15 -9
t16 -11t14 -11t14.5 -12.5l12.5 -12.5q24 -27 36 -50t12 -56q0 -74 -63 -130q-54 -48 -139 -50l-4 -84q-9 -5 -41 -5l5 90q-52 1 -90.5 9t-58.5 8q-18 61 -18 153q32 8 46 3q12 -54 46 -89.5t77 -43.5l11 210q-5 3 -26.5 15.5t-32 19t-28.5 18.5t-31 24t-23 26
q-31 41 -31 105q0 68 60 116q51 41 132 44l5 80q13 4 41 4l-5 -85q34 -2 71 -12t53 -12z" />
    <glyph glyph-name="percent" unicode="%" horiz-adv-x="637" 
d="M463 53q0 -33 20 -33q31 0 54 40q25 43 25 97q0 57 -39 57q-15 0 -28 -14.5t-20 -37.5q-12 -37 -12 -109zM370 91q0 64 39 111.5t103 47.5q92 0 92 -91q0 -75 -37.5 -126.5t-95.5 -51.5q-55 0 -78 30t-23 80zM144 369q0 -33 20 -33q31 0 54 40q25 43 25 97q0 57 -39 57
q-15 0 -28 -14.5t-20 -37.5q-12 -37 -12 -109zM51 407q0 64 39 111.5t103 47.5q45 0 68 -22q24 -1 60.5 -13t42.5 -12q103 0 150 50l47 -21l-411 -564l-54 12l366 501q-56 -23 -108 -23q-34 0 -70 19q1 -8 1 -18q0 -75 -37.5 -126.5t-95.5 -51.5q-55 0 -78 30t-23 80z" />
    <glyph glyph-name="ampersand" unicode="&#x26;" horiz-adv-x="729" 
d="M236 317q-42 -35 -55.5 -69.5t-13.5 -77.5q0 -58 27.5 -93t61.5 -35q39 0 68.5 12.5t60.5 46.5q-67 89 -149 216zM601 324q-52 -88 -116 -168q15 -23 24 -36t25 -32t32.5 -28t34.5 -9q42 0 80 46q7 0 12.5 -12t5.5 -24q-53 -71 -133 -71q-48 0 -82 15t-68 61
q-77 -76 -184 -76q-92 0 -142.5 35.5t-50.5 118.5q0 121 175 206q-35 50 -49 79t-14 62q0 64 41 109q24 26 63.5 42t86.5 16q65 0 104 -35t39 -76q0 -58 -40.5 -100.5t-109.5 -70.5l4 -5q7 -12 35.5 -53t53.5 -76l25 -35q8 -10 15 -1q44 51 76 120q33 71 -34 76
q-5 5 -5 17.5t5 16.5q54 -2 101 -2q49 0 93 2q4 -4 4 -16.5t-4 -17.5q-36 -4 -58.5 -22.5t-44.5 -55.5zM258 536q0 -45 49 -117l5 -6q31 24 51 60t20 64q0 33 -17 56t-42 23q-30 0 -48 -22.5t-18 -57.5z" />
    <glyph glyph-name="quotesingle" unicode="'" horiz-adv-x="215" 
d="M98 411l-15 4q-32 170 -32 176q0 20 17.5 37t47.5 17q20 0 30.5 -6t12.5 -13t2 -18l-37 -191z" />
    <glyph glyph-name="parenleft" unicode="(" horiz-adv-x="315" 
d="M36 253q0 131 65 254t169 213l28 -34q-147 -172 -147 -433q0 -269 147 -434l-30 -32q-64 55 -111 120t-69 115t-35 104.5t-15 79t-2 47.5z" />
    <glyph glyph-name="parenright" unicode=")" horiz-adv-x="315" 
d="M279 251q0 -131 -65 -254t-169 -213l-28 34q147 171 147 433q0 269 -147 434l30 32q64 -55 111 -120t69 -115t35 -104.5t15 -79t2 -47.5z" />
    <glyph glyph-name="asterisk" unicode="*" horiz-adv-x="433" 
d="M197 566q-36 6 -41 5q-34 -9 -57.5 -1.5t-23.5 38.5q0 12 8.5 22t24.5 10q19 0 48 -22t47 -30q-2 21 -16 50t-14 41q0 15 12 27t26 12q15 0 27.5 -9t12.5 -26q0 -14 -12 -47t-13 -48q20 9 45.5 31.5t43.5 22.5q20 0 29.5 -11.5t9.5 -22.5q0 -40 -69 -40q-36 0 -54 -3
q12 -13 35.5 -25t36.5 -24.5t13 -35.5q0 -13 -10 -21t-22 -8q-22 0 -33.5 15.5t-20.5 44t-17 41.5q-8 -15 -15 -44t-18 -43t-37 -14q-13 0 -21 8.5t-8 19.5q0 24 13 36.5t35.5 24.5t34.5 26z" />
    <glyph glyph-name="plus" unicode="+" horiz-adv-x="537" 
d="M306 269h171v-74h-171v-163h-74v163h-171v74h171v164h74v-164z" />
    <glyph glyph-name="comma" unicode="," horiz-adv-x="244" 
d="M112 127q41 0 64 -31.5t23 -91.5q0 -25 -16 -57.5t-38 -54.5t-52 -38t-57 -21q-15 10 -7 31q32 8 64 47.5t32 61.5q0 24 -36 33q-15 4 -27.5 22t-12.5 36q0 17 22 40t41 23z" />
    <glyph glyph-name="hyphen" unicode="-" horiz-adv-x="358" 
d="M273 215h-198q-37 0 -37 21q0 14 15.5 36t30.5 22h200q36 0 36 -21q0 -12 -16 -35t-31 -23z" />
    <glyph glyph-name="period" unicode="." horiz-adv-x="244" 
d="M49 58q0 29 22 50t52 21t51 -20t21 -49q0 -28 -22 -49t-52 -21t-51 20t-21 48z" />
    <glyph glyph-name="slash" unicode="/" horiz-adv-x="316" 
d="M302 682l-237 -703h-63l237 703h63z" />
    <glyph glyph-name="zero" unicode="0" horiz-adv-x="514" 
d="M260 568q-87 0 -87 -281q0 -30 0.5 -49.5t2.5 -53.5t7.5 -57t14 -47t23.5 -36t35 -12q86 0 86 295q0 83 -13 140t-30.5 79t-38.5 22zM255 -10q-105 0 -165 89t-60 219q0 146 65 229t165 83q41 0 78 -15t71 -47.5t54.5 -94.5t20.5 -146q0 -85 -21.5 -149.5t-56.5 -99
t-73 -51.5t-78 -17z" />
    <glyph glyph-name="one" unicode="1" horiz-adv-x="514" 
d="M367 122q0 -30 7.5 -48.5t24.5 -27t31 -11t40 -3.5q8 -4 8 -17t-8 -17q-164 2 -167 2l-169 -2q-8 4 -8 17t8 17q26 1 40 3.5t31 11t24.5 27t7.5 48.5v313q0 35 -4 44.5t-15 9.5q-45 0 -104 -25q-21 15 -22 43q29 12 105 42t111 46q31 15 50 15q17 0 17 -17
q-8 -57 -8 -110v-361z" />
    <glyph glyph-name="two" unicode="2" horiz-adv-x="514" 
d="M50 454q0 24 13.5 50.5t38.5 50.5t67 39.5t93 15.5q92 0 148 -54q43 -41 43 -107q0 -18 -2.5 -33t-5 -26t-12.5 -25.5t-14.5 -22t-22.5 -25.5t-26 -25.5t-35.5 -32.5t-40.5 -37l-59 -54q-41 -38 -46 -89h130q34 0 57 22t39 73q23 0 45 -10q-13 -108 -31 -164h-386l-4 32
q2 22 29.5 56t114.5 117l85 81q37 35 47 69t10 91q0 54 -26 88q-28 35 -60 35q-33 0 -58 -24.5t-25 -44.5q0 -12 6 -26q5 -15 5 -21q0 -23 -17.5 -38t-40.5 -15q-26 0 -42.5 17t-16.5 37z" />
    <glyph glyph-name="three" unicode="3" horiz-adv-x="514" 
d="M248 568q-16 0 -27 -1.5t-24.5 -7.5t-22.5 -19.5t-13 -35.5q-5 -27 -18 -41t-44 -14q-38 0 -38 37q0 34 28 60q21 19 37.5 30.5t54.5 22.5t86 11q49 0 83 -10.5t50 -28.5t22.5 -35.5t6.5 -36.5q0 -49 -42 -97q-21 -24 -51 -39q61 -4 96 -44.5t35 -96.5q0 -78 -51 -139
q-36 -44 -91 -68.5t-108 -24.5q-76 0 -138 31q-33 17 -33 47q0 15 14 29t35 14q38 0 65 -37q32 -42 73 -42q16 0 32.5 6t33.5 20.5t28 43.5t11 70q0 43 -11.5 71.5t-32 41.5t-39.5 17.5t-42 4.5q-20 0 -48 -8q-8 9 -8 29q0 7 1 11q70 16 111.5 58.5t41.5 99.5q0 71 -63 71z
" />
    <glyph glyph-name="four" unicode="4" horiz-adv-x="514" 
d="M261 501q-49 -67 -184 -292h184v292zM483 209q15 0 15 -16q0 -9 -9.5 -20t-19.5 -11h-84v-40q0 -30 6 -48.5t20.5 -27t27.5 -11t39 -3.5q8 -4 8 -17t-8 -17q-32 0 -65 0.5t-52 1t-37 0.5l-156 -2q-8 4 -8 17t8 17q26 1 39 3.5t27.5 11t20.5 27t6 48.5v40h-177
q-26 0 -33 7l-15 18q-2 4 -6 9.5t-6 8.5t-2 5q0 3 7 13q20 31 64 97.5t72.5 110t65.5 95.5t64 84h90v-401h98z" />
    <glyph glyph-name="five" unicode="5" horiz-adv-x="514" 
d="M323 188q0 72 -23 111t-60 39q-35 0 -58 -6t-83 -28l-13 8l40 298q18 -1 62 -5.5t68 -4.5q34 0 170 13l23 -13l-19 -86q-92 -6 -115 -6q-92 0 -145 5q-4 -23 -19 -132q52 13 118 13q87 0 138.5 -49t51.5 -126q0 -93 -61.5 -161t-158.5 -68q-94 0 -147 28q-40 21 -40 53
q0 19 13 33t38 14q50 0 75 -39q29 -45 55 -45q42 0 66 40.5t24 113.5z" />
    <glyph glyph-name="six" unicode="6" horiz-adv-x="514" 
d="M171 289q-1 -11 -1 -47q0 -213 105 -213q29 0 48.5 40t19.5 117q0 48 -28.5 88.5t-69.5 40.5q-31 0 -74 -26zM450 569q-119 -6 -185 -60q-35 -29 -59 -77t-30 -102q54 29 103 35q57 -1 99 -19t62 -45t28.5 -51t8.5 -46q0 -35 -12 -71t-36 -69t-67 -53.5t-99 -20.5
q-219 0 -219 256q0 77 27 148.5t81 118.5q58 50 123 72t169 25q13 -15 6 -41z" />
    <glyph glyph-name="seven" unicode="7" horiz-adv-x="514" 
d="M184 498q-15 0 -25.5 -2.5t-23 -10.5t-22.5 -26.5t-18 -47.5l-35 3q18 120 20 197q0 3 4 3q2 -1 18 -7.5t36 -6.5h335l6 -9q-37 -78 -67 -145t-59 -136.5t-42.5 -102.5t-44.5 -112.5t-37 -96.5l-102 -10l-6 12q153 283 258 498h-195z" />
    <glyph glyph-name="eight" unicode="8" horiz-adv-x="514" 
d="M260 575q-44 0 -58 -22t-14 -64q0 -62 58 -92l50 -26q39 24 39 108q0 19 -2 33t-9 30t-23 24.5t-41 8.5zM451 477q0 -46 -32.5 -81t-79.5 -49l56 -33q85 -50 85 -151q0 -65 -61 -119t-169 -54q-98 0 -157 40.5t-59 116.5q0 55 36.5 95t111.5 77l-21 11q-54 28 -75 57
t-21 73q0 64 51 107t151 43q93 0 138.5 -37t45.5 -96zM252 30q42 0 73 24.5t31 88.5q0 42 -15 70t-64 54l-54 29q-24 -17 -39 -37.5t-20 -45.5t-6 -35.5t-1 -30.5q0 -117 95 -117z" />
    <glyph glyph-name="nine" unicode="9" horiz-adv-x="514" 
d="M351 311q1 11 1 47q0 213 -105 213q-29 0 -48.5 -40t-19.5 -117q0 -48 28.5 -88.5t69.5 -40.5q31 0 74 26zM72 31q119 6 185 60q35 29 59 77t30 102q-54 -29 -103 -35q-57 1 -99 19t-62 45t-28.5 51t-8.5 46q0 35 12 71t36 69t67 53.5t99 20.5q219 0 219 -256
q0 -77 -27 -148.5t-81 -118.5q-58 -50 -123 -72t-169 -25q-13 15 -6 41z" />
    <glyph glyph-name="colon" unicode=":" horiz-adv-x="256" 
d="M60 363q0 29 22 50t52 21t51 -20t21 -49q0 -28 -22 -49t-52 -21t-51 20t-21 48zM60 68q0 29 22 50t52 21t51 -20t21 -49q0 -28 -22 -49t-52 -21t-51 20t-21 48z" />
    <glyph glyph-name="semicolon" unicode=";" horiz-adv-x="256" 
d="M60 363q0 29 22 50t52 21t51 -20t21 -49q0 -28 -22 -49t-52 -21t-51 20t-21 48zM123 127q41 0 64 -31.5t23 -91.5q0 -25 -16 -57.5t-38 -54.5t-52 -38t-57 -21q-15 10 -7 31q32 8 64 47.5t32 61.5q0 24 -36 33q-15 4 -27.5 22t-12.5 36q0 17 22 40t41 23z" />
    <glyph glyph-name="less" unicode="&#x3c;" horiz-adv-x="512" 
d="M153 240l318 -116v-62l-429 156v44l429 156v-62z" />
    <glyph glyph-name="equal" unicode="=" horiz-adv-x="551" 
d="M493 198v-56h-434v56h434zM493 323v-57h-434v57h434z" />
    <glyph glyph-name="greater" unicode="&#x3e;" horiz-adv-x="512" 
d="M359 238l-317 116v62l429 -157v-44l-429 -155v62z" />
    <glyph glyph-name="question" unicode="?" horiz-adv-x="430" 
d="M127 570q0 -10 4.5 -25t4.5 -29q0 -18 -15 -29.5t-38 -11.5q-20 0 -38.5 16t-18.5 42q0 42 53 86q47 39 137 39q85 0 135 -42t50 -111q0 -26 -9.5 -49t-29.5 -44.5t-34 -33t-40 -30.5q-19 -13 -30 -24t-22 -36.5t-11 -58.5v-13q0 -20 -6 -27t-27 -7q-19 0 -25.5 8
t-6.5 26v15q0 29 2.5 47.5t19 52t49.5 63.5q55 49 55 118q0 47 -20 78.5t-60 31.5q-33 0 -56 -15.5t-23 -36.5zM121 58q0 29 22 50t52 21t51 -20t21 -49q0 -28 -22 -49t-52 -21t-51 20t-21 48z" />
    <glyph glyph-name="at" unicode="@" horiz-adv-x="988" 
d="M586 320q0 61 -29 61q-46 0 -81 -38q-62 -66 -62 -179q0 -92 56 -92q49 0 87 121q29 96 29 127zM640 80q0 -14 18 -14q16 0 39 12.5t48 36t42.5 66t17.5 92.5q0 63 -20 116.5t-52 88.5t-72.5 59.5t-80 35.5t-76.5 11q-59 0 -115 -23.5t-102 -67t-73.5 -113t-27.5 -152.5
q0 -46 11 -93t37 -93.5t63.5 -82.5t95.5 -58t128 -22q119 0 210 75l21 -29q-56 -43 -110.5 -64t-139.5 -21q-179 0 -294.5 105.5t-115.5 275.5q0 104 51.5 195t149.5 148t220 57q167 0 272 -95t105 -239q0 -105 -75.5 -184t-176.5 -79q-62 0 -78 15q-20 18 -20 47
q-23 -29 -54 -44.5t-52 -15.5q-66 0 -98 28q-39 34 -39 104q0 94 84.5 175.5t172.5 81.5q63 0 94 -38l37 33l27 -11l-59 -253q-13 -56 -13 -66z" />
    <glyph glyph-name="A" unicode="A" horiz-adv-x="740" 
d="M273 283h152l-82 237h-7l-88 -224q-3 -7 2.5 -10t22.5 -3zM165 79q-3 -7 -3.5 -13.5t2.5 -11t6 -8t9.5 -5.5t11.5 -3.5t14 -2.5t14.5 -1.5t14.5 -1.5q5 -4 5 -17t-5 -17q-74 2 -133 2q-20 0 -94 -2q-4 4 -4 17t4 17q20 1 31 3.5t25 9t24.5 20.5t19.5 37l217 512
q37 0 110 44l206 -572q6 -17 14.5 -28t21 -16t21 -6.5t26.5 -2.5q5 -1 7 -1q5 -4 5 -17t-5 -17q-74 2 -134 2q-97 0 -171 -2q-4 4 -4 17t4 17q6 0 15.5 0.5t15 1t13 1t11.5 2t9 3t7.5 4.5t4 7t1 9t-2.5 12l-56 163h-190q-18 0 -24.5 -3.5t-10.5 -13.5z" />
    <glyph glyph-name="B" unicode="B" horiz-adv-x="654" 
d="M242 562v-186h56q116 0 116 113q0 116 -102 116q-45 0 -57.5 -9.5t-12.5 -33.5zM242 334v-250q0 -24 12 -34t54 -10q47 0 79 14t47 37.5t21 46.5t6 49q0 68 -37 107.5t-111 39.5h-71zM173 645q14 0 64.5 1t77.5 1q239 0 239 -156q0 -38 -27.5 -75t-68.5 -55v-2
q78 -21 114 -63.5t36 -109.5q0 -85 -63.5 -136.5t-207.5 -51.5q-33 0 -90 1t-74 1l-154 -2q-7 4 -7 17t7 17q25 1 37 3.5t24.5 11t17 27t4.5 48.5v401q0 30 -4.5 48.5t-17 27t-24.5 11t-37 3.5q-7 5 -7 17t7 17q114 -2 154 -2z" />
    <glyph glyph-name="C" unicode="C" horiz-adv-x="706" 
d="M397 -10q-151 0 -239 63q-58 41 -89.5 114t-31.5 148q0 159 103.5 251t257.5 92q72 0 140.5 -22t78.5 -23q17 -105 22 -155q-22 -12 -43 -5q-23 77 -69 120.5t-140 43.5q-88 0 -143.5 -82t-55.5 -201q0 -118 61 -205t147 -87q127 0 222 104q8 0 18.5 -7t14.5 -14
q-103 -135 -254 -135z" />
    <glyph glyph-name="D" unicode="D" horiz-adv-x="734" 
d="M254 119q0 -48 20.5 -63.5t75.5 -15.5q31 0 61.5 13t59 40t46.5 76.5t18 114.5q0 52 -3.5 92t-17 85t-36 74.5t-64 49t-98.5 19.5q-62 0 -62 -75v-410zM185 0l-154 -2q-7 4 -7 17t7 17q25 1 37 3.5t24.5 11t17 27t4.5 48.5v401q0 30 -4.5 48.5t-17 27t-24.5 11t-37 3.5
q-7 5 -7 17t7 17q114 -2 154 -2q18 0 62.5 0.5t72.5 0.5q177 0 271.5 -95t94.5 -242q0 -75 -22 -135t-59 -92q-96 -84 -258 -84q-20 0 -81 1t-81 1z" />
    <glyph glyph-name="E" unicode="E" horiz-adv-x="609" 
d="M323 365q52 0 70.5 12t20.5 52q4 5 21 5t22 -5q-2 -60 -2 -86q0 -18 2 -88q-5 -5 -22 -5t-21 5q-2 35 -21.5 49.5t-69.5 14.5h-81v-229q0 -20 12 -34t29 -14h101q105 0 141 128q25 6 45 -5q-2 -15 -6.5 -51.5t-9.5 -65t-11 -50.5q-90 2 -138 2h-235q-106 -1 -155 -2
q-5 4 -5 17t5 17q56 2 71.5 16.5t15.5 73.5v400q0 60 -15.5 74.5t-71.5 16.5q-5 5 -5 17t5 17l154 -2h295q26 0 49 4q4 0 4 -3q1 -3 3 -30.5t4.5 -62.5t4.5 -52q-18 -9 -43 -5q-18 58 -42 82.5t-76 24.5h-85q-17 0 -29 -15t-12 -34v-189h81z" />
    <glyph glyph-name="F" unicode="F" horiz-adv-x="545" 
d="M242 122q0 -30 6 -48.5t20.5 -27t27.5 -11t39 -3.5q7 -4 7 -17t-7 -17q-80 2 -162 2q-74 0 -154 -2q-7 4 -7 17t7 17q25 1 37 3.5t24.5 11t17 27t4.5 48.5v400q0 60 -15.5 74.5t-71.5 16.5q-5 5 -5 17t5 17l154 -2h297q26 0 49 4q4 0 4 -3q5 -29 12 -150q-16 -8 -35 -5
q-18 58 -44.5 85t-78.5 27h-90q-17 0 -29 -15t-12 -34v-209h81q52 0 70.5 12t20.5 52q4 5 21 5t22 -5q-2 -39 -2 -86q0 -53 2 -88q-5 -5 -22 -5t-21 5q-2 35 -21.5 49.5t-69.5 14.5h-81v-177z" />
    <glyph glyph-name="G" unicode="G" horiz-adv-x="732" 
d="M395 658q71 0 142 -17.5t88 -17.5q12 -121 21 -164q-18 -9 -44 -6q-21 72 -75.5 117.5t-145.5 45.5q-93 0 -147 -74q-50 -69 -50 -215q0 -53 11.5 -102.5t36 -94t70 -71.5t105.5 -27q38 0 60.5 9t46.5 33v149q0 28 -17 36.5t-61 11.5q-4 5 -4 19t4 18q90 -2 148 -2
q57 0 113 2q5 -4 5 -18t-5 -19q-22 -2 -32.5 -12.5t-10.5 -35.5v-117q0 -14 15 -28q-48 -41 -124 -64.5t-160 -23.5q-158 0 -247 76q-50 42 -77.5 107t-27.5 134q0 163 106 258q103 93 256 93z" />
    <glyph glyph-name="H" unicode="H" horiz-adv-x="817" 
d="M564 523q0 30 -4.5 48.5t-17 27t-24.5 11t-37 3.5q-7 5 -7 17t7 17q80 -2 154 -2q72 0 152 2q7 -5 7 -17t-7 -17q-25 -1 -37 -3.5t-24.5 -11t-17 -27t-4.5 -48.5v-401q0 -30 4.5 -48.5t17 -27t24.5 -11t37 -3.5q7 -4 7 -17t-7 -17q-80 2 -152 2q-74 0 -154 -2q-7 4 -7 17
t7 17q25 1 37 3.5t24.5 11t17 27t4.5 48.5v197h-310v-197q0 -30 4.5 -48.5t17 -27t24.5 -11t37 -3.5q7 -4 7 -17t-7 -17q-80 2 -152 2q-74 0 -154 -2q-7 4 -7 17t7 17q25 1 37 3.5t24.5 11t17 27t4.5 48.5v401q0 30 -4.5 48.5t-17 27t-24.5 11t-37 3.5q-7 5 -7 17t7 17
q80 -2 154 -2q72 0 152 2q7 -5 7 -17t-7 -17q-25 -1 -37 -3.5t-24.5 -11t-17 -27t-4.5 -48.5v-156h310v156z" />
    <glyph glyph-name="I" unicode="I" horiz-adv-x="367" 
d="M114 523q0 30 -4.5 48.5t-17 27t-24.5 11t-37 3.5q-7 5 -7 17t7 17q80 -2 154 -2q72 0 152 2q7 -5 7 -17t-7 -17q-25 -1 -37 -3.5t-24.5 -11t-17 -27t-4.5 -48.5v-401q0 -30 4.5 -48.5t17 -27t24.5 -11t37 -3.5q7 -4 7 -17t-7 -17q-80 2 -152 2q-74 0 -154 -2q-7 4 -7 17
t7 17q25 1 37 3.5t24.5 11t17 27t4.5 48.5v401z" />
    <glyph glyph-name="J" unicode="J" horiz-adv-x="373" 
d="M281 522v-419q0 -51 -9 -90.5t-26.5 -66.5t-31 -42t-35.5 -33q-68 -58 -151 -58q-28 0 -63 20t-35 51q0 20 21 38t37 18q14 0 24.5 -5t14.5 -10.5t10 -15.5t9 -14q18 -23 46 -23q17 0 26 6.5t14.5 31t7 62t1.5 109.5v441q0 60 -17 74.5t-80 16.5q-4 5 -4 17t4 17
q100 -2 166 -2q50 0 148 2q4 -5 4 -17t-4 -17q-48 -2 -62.5 -17t-14.5 -74z" />
    <glyph glyph-name="K" unicode="K" horiz-adv-x="736" 
d="M108 523q0 30 -4.5 48.5t-17 27t-24.5 11t-37 3.5q-8 4 -8 16.5t8 17.5q80 -2 154 -2q72 0 152 2q7 -5 7 -17.5t-7 -16.5q-25 -1 -37 -3.5t-24.5 -11t-17 -27t-4.5 -48.5v-181q25 8 51 26t75 62q76 63 107 95q78 80 -5 88q-4 4 -4 16.5t4 17.5q75 -2 123 -2q45 0 95 2
q4 -5 4 -17.5t-4 -16.5q-28 -4 -60 -22t-54.5 -36t-59.5 -51l-109 -97q-12 -11 -12 -29q0 -9 30 -45l219 -259q18 -21 35.5 -30t42.5 -12q4 -5 4 -17.5t-4 -16.5q-78 2 -118 2q-63 0 -103 -2q-4 0 -5 6q-3 28 -36 70l-151 197q-17 21 -30.5 31.5t-34.5 15.5v-196
q0 -30 4.5 -48.5t17 -27t24.5 -11t37 -3.5q7 -4 7 -17t-7 -17q-80 2 -152 2q-74 0 -154 -2q-7 4 -7 17t7 17q25 1 37 3.5t24.5 11t17 27t4.5 48.5v401z" />
    <glyph glyph-name="L" unicode="L" horiz-adv-x="577" 
d="M349 42q73 0 109 33.5t53 94.5q25 4 43 -5q-10 -87 -26 -167q-91 2 -120 2h-223l-154 -2q-7 4 -7 17t7 17q25 1 37 3.5t24.5 11t17 27t4.5 48.5v401q0 30 -4.5 48.5t-17 27t-24.5 11t-37 3.5q-7 5 -7 17t7 17q114 -2 154 -2q18 0 36.5 0.5t51 1t64.5 0.5q7 -5 7 -17
t-7 -17q-25 -1 -37 -3.5t-24.5 -11t-17 -27t-4.5 -48.5v-402q0 -79 35 -79h60z" />
    <glyph glyph-name="M" unicode="M" horiz-adv-x="899" 
d="M663 116l-26 418h-2l-225 -529q-6 -13 -19 -13q-5 0 -11.5 4t-8.5 9l-197 493h-4l-26 -375q-4 -47 8 -67t58 -24q5 -4 5 -17t-5 -17q-60 2 -114 2q-26 0 -86 -2q-4 4 -4 17t4 17q41 4 55.5 23t19.5 66l40 412q2 20 2.5 31.5t-2 21.5t-5.5 14t-13.5 7t-19.5 4t-30 2
q-4 5 -4 17t4 17l205 -2l179 -444h5l190 444l201 2q5 -5 5 -17t-5 -17q-49 -3 -60.5 -16t-8.5 -55l30 -421q2 -24 3 -35.5t5 -23.5t7 -16t13 -8t19.5 -4.5t29.5 -1.5q5 -4 5 -17t-5 -17q-66 2 -109 2q-73 0 -167 -2q-5 4 -5 17t5 17q20 1 28 1.5t18 4t12.5 7t5 14.5t2 22.5z
" />
    <glyph glyph-name="N" unicode="N" horiz-adv-x="740" 
d="M631 0q-25 -12 -63 -12q-21 19 -40 44l-335 398q-17 20 -24 20q-8 0 -8 -20v-297q0 -35 3 -53.5t15 -28.5t25 -13t44 -6q5 -4 5 -17t-5 -17q-100 2 -112 2q-14 0 -112 -2q-4 4 -4 17t4 17q30 3 43.5 6t25.5 13.5t15 29t3 52.5v417q-5 22 -27 41.5t-52 21.5q-4 5 -4 17
t4 17l163 -2l89 -105l265 -312q12 -14 19 -14.5t8 17.5v281q0 46 -8.5 66t-23.5 25.5t-55 9.5q-5 5 -5 17t5 17q100 -2 116 -2q10 0 108 2q5 -5 5 -17t-5 -17q-40 -4 -55 -10t-23.5 -26t-8.5 -65v-410z" />
    <glyph glyph-name="O" unicode="O" horiz-adv-x="730" 
d="M351 616q-72 0 -117.5 -71t-45.5 -216q0 -137 55.5 -217t140.5 -80q75 0 117 75t42 201q0 147 -54 227.5t-138 80.5zM694 329q0 -147 -86 -240q-92 -99 -244 -99q-64 0 -123 22.5t-104.5 62.5t-72.5 101t-27 133q0 140 81 237q44 53 107.5 82.5t137.5 29.5
q140 0 235.5 -91.5t95.5 -237.5z" />
    <glyph glyph-name="P" unicode="P" horiz-adv-x="614" 
d="M346 654q111 0 167 -33q77 -46 77 -137q0 -104 -67 -159q-58 -48 -190 -48q-14 0 -35 3q-20 13 -20 42q21 -3 50 -3q61 0 86 34.5t25 113.5q0 146 -125 146q-38 0 -49 -18t-11 -71v-402q0 -30 4.5 -48.5t17 -27t24.5 -11t37 -3.5q7 -4 7 -17t-7 -17q-80 2 -152 2
q-74 0 -154 -2q-7 4 -7 17t7 17q25 1 37 3.5t24.5 11t17 27t4.5 48.5v401q0 30 -4.5 48.5t-17 27t-24.5 11t-37 3.5q-7 5 -7 17t7 17q20 0 157.5 3.5t157.5 3.5z" />
    <glyph glyph-name="Q" unicode="Q" horiz-adv-x="730" 
d="M351 616q-72 0 -117.5 -71t-45.5 -216q0 -137 55.5 -217t140.5 -80q75 0 117 75t42 201q0 147 -54 227.5t-138 80.5zM694 329q0 -147 -86 -240q-68 -73 -173 -93q-51 -14 -113 -56h6q37 0 76 -14.5t67 -31.5t62.5 -31.5t63.5 -14.5q57 0 87 37l17 -22
q-32 -45 -65.5 -68.5t-78.5 -23.5q-44 0 -86.5 16.5t-70.5 36t-63 36t-66 16.5q-17 0 -37 -14q-19 -21 -36 -45l-39 30q7 12 17 23q63 75 152 122q-59 6 -111.5 30.5t-92.5 64.5t-63.5 97.5t-23.5 124.5q0 140 81 237q44 53 107.5 82.5t137.5 29.5q140 0 235.5 -91.5
t95.5 -237.5z" />
    <glyph glyph-name="R" unicode="R" horiz-adv-x="716" 
d="M455 467q0 146 -125 146q-41 0 -58.5 -19.5t-17.5 -69.5v-199h43q35 0 60.5 5t49.5 19.5t36 44t12 73.5zM362 654q111 0 167 -33q77 -46 77 -137q0 -68 -39.5 -111.5t-92.5 -64.5l136 -210q23 -35 43.5 -50.5t52.5 -15.5q3 -6 3.5 -17.5t-2.5 -16.5q-16 -8 -102 -8
q-71 0 -132 89l-117 174q-11 18 -28.5 24t-73.5 6v-161q0 -30 4.5 -48.5t17 -27t24.5 -11t37 -3.5q7 -4 7 -17t-7 -17q-80 2 -152 2q-74 0 -154 -2q-7 4 -7 17t7 17q25 1 37 3.5t24.5 11t17 27t4.5 48.5v401q0 30 -4.5 48.5t-17 27t-24.5 11t-37 3.5q-7 5 -7 17t7 17
q20 0 165.5 3.5t165.5 3.5z" />
    <glyph glyph-name="S" unicode="S" horiz-adv-x="504" 
d="M421 631q11 -91 11 -152q-8 -6 -24 -7t-26 2q-8 30 -16.5 51t-23.5 44.5t-38 35.5t-53 12q-39 0 -62 -24t-23 -66q0 -38 35.5 -73.5t75.5 -55.5q91 -47 134 -94q52 -57 52 -120q0 -79 -68 -140q-61 -54 -151 -54q-79 0 -129.5 10t-68.5 10q-19 64 -19 165q34 9 50 3
q15 -66 59.5 -106t96.5 -40q46 0 75 23t29 60q0 65 -91 128q-11 7 -50 29.5t-70 45.5t-52 51q-33 44 -33 116q0 35 18 68.5t47 56.5q30 24 69.5 36t76.5 12q55 0 109.5 -13t59.5 -14z" />
    <glyph glyph-name="T" unicode="T" horiz-adv-x="652" 
d="M405 123q0 -60 17 -74.5t80 -16.5q4 -4 4 -17t-4 -17q-100 2 -169 2q-67 0 -165 -2q-4 4 -4 17t4 17q63 2 80 16.5t17 74.5v383q0 49 -10.5 73.5t-36.5 24.5h-49q-52 0 -82.5 -23.5t-44.5 -81.5q-26 0 -39 5q20 86 25 146q0 3 4 3q101 -8 233 -8h141q133 0 224 8
q3 0 3 -3q1 -67 13 -143q-11 -5 -39 -5q-12 56 -44 79t-90 23h-22q-26 0 -36 -25t-10 -76v-380z" />
    <glyph glyph-name="U" unicode="U" horiz-adv-x="732" 
d="M227 522v-253q0 -42 2 -68.5t14 -61.5t35 -57q52 -50 119 -50q49 0 84 15.5t54 38t30 57.5t13.5 64.5t2.5 69.5v245q0 21 -1 35t-6.5 24t-10 15t-17.5 9t-23.5 5t-33.5 3q-4 5 -4 17t4 17q92 -2 127 -2q29 0 107 2q5 -5 5 -17t-5 -17q-27 -3 -38 -5.5t-22 -11.5t-14 -26
t-3 -48v-227q0 -70 -13.5 -123.5t-44 -95.5t-84 -64t-128.5 -22q-137 0 -202 42q-87 57 -87 204v286q0 59 -14.5 74t-62.5 17q-4 5 -4 17t4 17q100 -2 146 -2q65 0 163 2q5 -5 5 -17t-5 -17q-60 -2 -76 -16.5t-16 -74.5z" />
    <glyph glyph-name="V" unicode="V" horiz-adv-x="700" 
d="M594 543l-213 -532q-9 -23 -34 -23q-24 0 -33 23l-218 548q-8 21 -23.5 33t-29 15.5t-37.5 5.5q-4 5 -4 17t4 17q74 -2 134 -2q102 0 176 2q4 -5 4 -17t-4 -17q-21 -1 -33.5 -3t-25 -6t-16 -11.5t0.5 -19.5l124 -357l16 -45l16 39l138 356q7 18 -4 28.5t-26 13.5t-39 5
q-5 5 -5 17t5 17q74 -2 133 -2q34 0 94 2q4 -5 4 -17t-4 -17q-26 -2 -41 -6t-31.5 -19.5t-27.5 -44.5z" />
    <glyph glyph-name="W" unicode="W" horiz-adv-x="1028" 
d="M574 613l141 -397l14 -42l13 36l113 336q9 28 -6 44t-58 23q-5 5 -5 17t5 17q74 -2 125 -2q36 0 102 2q4 -5 4 -17t-4 -17q-34 -2 -61.5 -25t-43.5 -66l-188 -511q-8 -23 -34 -23q-24 0 -33 23l-153 399l-150 -399q-9 -23 -34 -23t-33 23l-188 548q-10 29 -32 39.5
t-58 14.5q-4 5 -4 17t4 17q74 -2 134 -2q102 0 176 2q4 -5 4 -17t-4 -17q-22 -1 -34 -3t-24 -6t-16 -11.5t0 -19.5l109 -357l9 -32l8 26l143 403q24 -8 59 0z" />
    <glyph glyph-name="X" unicode="X" horiz-adv-x="718" 
d="M434 89l-92 157q-10 17 -16.5 19.5t-13.5 -7.5q-73 -101 -113 -176q-24 -44 44 -49q5 -5 5 -17t-5 -17q-80 2 -122 2q-51 0 -111 -2q-4 5 -4 17t4 17q38 4 63.5 13.5t44.5 34.5l164 210q12 16 11.5 24t-15.5 29l-144 203q-28 39 -47 51.5t-52 14.5q-5 5 -5 17t4 17
q60 -2 155 -2q67 0 147 2q5 -5 5 -17.5t-5 -16.5q-40 -2 -46.5 -15t11.5 -41l77 -128q9 -16 14.5 -19t14.5 5q46 53 100 149q22 45 -44 49q-4 5 -4 17t4 17q80 -2 116 -2q42 0 102 2q5 -5 5 -17t-5 -17q-37 -4 -60.5 -13.5t-42.5 -34.5l-135 -176q-13 -16 -12.5 -27
t17.5 -35l154 -228q26 -38 48.5 -51t56.5 -15q5 -5 5 -17t-4 -17q-60 2 -142 2q-76 0 -156 -2q-4 5 -4 17t4 17q39 2 42.5 16t-18.5 40z" />
    <glyph glyph-name="Y" unicode="Y" horiz-adv-x="624" 
d="M387 122q0 -32 3 -49t16 -26t28.5 -11.5t49.5 -3.5q4 -4 4 -17t-4 -17q-100 2 -159 2q-77 0 -175 -2q-5 4 -5 17t5 17q34 1 49.5 3.5t28.5 11.5t16 26t3 49v137q0 27 -3.5 38.5t-16.5 34.5l-127 215q-24 40 -42 52t-52 14q-5 5 -5 17t4 17q60 -2 142 -2q44 0 124 2
q4 -5 4 -17t-4 -17q-40 -2 -46.5 -15t11.5 -41l104 -184q13 -22 23 -3l103 194q12 22 -2 34.5t-49 14.5q-5 5 -5 17t5 17q80 -2 111 -2q33 0 93 2q5 -5 5 -17t-5 -17q-36 -3 -53 -12t-34 -36l-128 -214q-17 -28 -17 -83v-146z" />
    <glyph glyph-name="Z" unicode="Z" horiz-adv-x="624" 
d="M429 44q49 0 84 36t50 97q27 0 39 -5q-12 -122 -27 -177q0 -3 -4 -3q-101 8 -233 8h-299q-19 0 -19 15q0 11 8 23l374 541q16 23 -2 23h-191q-97 0 -128 -126q-27 0 -39 5q18 78 26 169q0 3 4 3q101 -8 233 -8h201q16 0 38.5 1t27.5 1q17 0 17 -10q0 -14 -22 -46
l-354 -519q-11 -14 -8.5 -21t24.5 -7h200z" />
    <glyph glyph-name="bracketleft" unicode="[" horiz-adv-x="397" 
d="M97 -193v896h245q4 -5 4 -15t-4 -15q-71 -5 -100 -15.5t-37 -29.5t-8 -67v-611q0 -37 3 -53.5t18.5 -31t42.5 -19.5t81 -9q4 -5 4 -15t-4 -15h-245z" />
    <glyph glyph-name="backslash" unicode="\" horiz-adv-x="307" 
d="M76 698l230 -746h-65l-230 746h65z" />
    <glyph glyph-name="bracketright" unicode="]" horiz-adv-x="397" 
d="M302 701v-896h-245q-5 5 -5 15t5 15q71 5 100 15.5t37 29.5t8 67v611q0 37 -3 53.5t-18.5 31t-42.5 19.5t-81 9q-5 5 -5 15t5 15h245z" />
    <glyph glyph-name="asciicircum" unicode="^" horiz-adv-x="518" 
d="M259 569l-90 -223h-57l127 304h42l126 -304h-57z" />
    <glyph glyph-name="underscore" unicode="_" horiz-adv-x="486" 
d="M482 -103v-51h-477v51h477z" />
    <glyph glyph-name="grave" unicode="`" horiz-adv-x="392" 
d="M198 674l69 -124q9 -16 9 -26q0 -7 -5 -11.5t-12 -4.5q-12 0 -35 20l-121 105l2 11q9 10 29 21t44 11q12 0 20 -2z" />
    <glyph glyph-name="a" unicode="a" horiz-adv-x="506" 
d="M295 48h-6q-27 -21 -63.5 -39.5t-56.5 -18.5q-125 0 -125 105q0 29 12 50.5t39 38t54.5 27.5t73.5 25l67 21q0 46 -6 76t-17.5 44.5t-23.5 19.5t-30 5q-39 0 -42 -23q-2 -10 1 -26.5t3 -20.5q0 -19 -18 -32.5t-44 -13.5q-51 0 -51 50q0 31 31.5 57t73.5 38.5t80 12.5
q171 0 171 -173l-2 -144q0 -37 6 -52t22 -15q24 0 42 14q15 -11 18 -28q-59 -56 -131 -56q-68 0 -78 58zM290 218l-52 -17q-25 -8 -41 -18t-22.5 -23t-8.5 -23t-2 -27q0 -26 14 -43t44 -17q23 0 68 36v132z" />
    <glyph glyph-name="b" unicode="b" horiz-adv-x="542" 
d="M74 127v438q0 50 -10 60.5t-58 14.5q-8 14 -3 32q124 5 188 26q16 0 16 -13q-3 -37 -3 -102v-195q77 56 113 56q92 0 137 -51q54 -62 54 -150q0 -104 -71 -178.5t-157 -74.5q-94 0 -146 40q-13 -27 -32 -43q-13 0 -34 7q6 57 6 133zM204 348v-281q29 -35 71 -35
q93 0 93 198q0 71 -23.5 107t-62.5 36q-40 0 -78 -25z" />
    <glyph glyph-name="c" unicode="c" horiz-adv-x="456" 
d="M422 87q-29 -42 -76 -69.5t-91 -27.5q-101 0 -156 52q-62 58 -62 159q0 108 65 175.5t157 67.5q76 0 119.5 -33t43.5 -71q0 -24 -15.5 -40t-39.5 -16t-42 13.5t-20 33.5q-3 29 -16.5 50t-38.5 21q-78 0 -78 -166q0 -86 37 -130t97 -44q42 0 103 56q13 0 13 -31z" />
    <glyph glyph-name="d" unicode="d" horiz-adv-x="561" 
d="M352 95q-1 13 -1 25v246q-16 23 -33.5 29.5t-41.5 6.5q-48 0 -74 -43q-25 -41 -25 -130q0 -84 25 -128.5t64 -44.5q9 0 40 13.5t46 25.5zM355 48h-9q-25 -17 -64.5 -37.5t-57.5 -20.5q-39 0 -63 9.5t-54 32.5q-35 27 -52.5 72.5t-17.5 93.5q0 99 72.5 172.5t169.5 73.5
q40 0 72 -11v130q0 51 -10 61t-58 14q-8 14 -3 34q124 5 188 26q16 0 16 -13q-3 -37 -3 -102v-450q0 -43 12.5 -58.5t52.5 -19.5q6 -19 2 -32q-85 -11 -166 -33q-22 0 -23 17q-2 17 -4 41z" />
    <glyph glyph-name="e" unicode="e" horiz-adv-x="489" 
d="M177 275h136q2 2 2 21q0 54 -19.5 80t-44.5 26q-11 0 -27 -9t-27 -25q-18 -27 -20 -93zM431 129q7 0 11 -10t4 -21q-37 -53 -85.5 -80.5t-101.5 -27.5q-103 0 -158 50q-64 58 -64 158q0 109 70 177.5t155 68.5q53 0 90 -15.5t55.5 -42.5t26.5 -56t8 -64q0 -31 -29 -31
h-240q0 -2 -0.5 -7t-0.5 -9q0 -72 33 -107.5t93 -35.5q81 0 133 53z" />
    <glyph glyph-name="f" unicode="f" horiz-adv-x="391" 
d="M230 128q0 -61 14.5 -77.5t62.5 -18.5q5 -4 5 -17t-5 -17q-86 2 -142 2q-58 0 -142 -2q-5 4 -5 17t5 17q48 2 62.5 18.5t14.5 75.5v258h-50q-27 0 -27 10v27q0 13 75 13h2v20q0 65 19 107.5t52 78.5q54 58 141 58q71 0 104 -24t33 -50q0 -31 -15.5 -47.5t-41.5 -16.5
t-45 16t-26 41q-6 22 -11 30.5t-17 8.5q-8 0 -15.5 -3.5t-16.5 -14t-15.5 -28.5t-11 -50t-4.5 -75v-51h101q20 0 20 -10v-23q0 -17 -35 -17h-86v-256z" />
    <glyph glyph-name="g" unicode="g" horiz-adv-x="521" 
d="M290 288q0 118 -67 118q-30 0 -43.5 -23t-13.5 -78q0 -125 70 -125q24 0 39 21.5t15 86.5zM175 -25q-29 0 -44 6q-11 -20 -11 -77q0 -40 31.5 -70t79.5 -30q85 0 120 20q24 13 36.5 39.5t12.5 55.5q0 56 -225 56zM467 394q-17 0 -30 11t-17 23q-6 12 -19 12
q-8 0 -26.5 -10.5t-24.5 -17.5q62 -51 62 -121q0 -63 -49 -106t-132 -43q-50 0 -73 11q-1 -2 -6 -11.5t-7 -16.5t-2 -14q0 -26 13 -34t32 -8q75 0 156 -8t107 -25q27 -18 38.5 -44t11.5 -47q0 -53 -46 -96t-113.5 -65t-138.5 -22q-106 0 -153 33q-19 14 -29 41.5t-10 57.5
q0 14 28.5 48t58.5 52q-29 9 -41 28q-13 20 -13 46q0 14 26 45.5t53 54.5q-35 19 -56 54.5t-21 73.5q0 72 68 116q49 32 118 32q62 0 84 -12q25 22 62.5 40.5t68.5 18.5q27 0 45.5 -16t18.5 -32q0 -27 -11 -38t-33 -11z" />
    <glyph glyph-name="h" unicode="h" horiz-adv-x="619" 
d="M528 128q0 -42 7 -62t22 -26t48 -8q5 -4 5 -16.5t-5 -17.5q-86 2 -142 2q-38 0 -122 -2q-5 5 -5 17.5t5 16.5q23 2 33.5 8t17 26.5t6.5 61.5v167q0 40 -21 57.5t-54 17.5t-93 -38v-205q0 -41 6 -61t17 -26t34 -8q5 -4 5 -16.5t-5 -17.5q-86 2 -122 2q-58 0 -142 -2
q-5 5 -5 17.5t5 16.5q48 2 62.5 18.5t14.5 76.5v438q0 28 -1 40.5t-10 20.5t-19.5 10t-37.5 4q-8 14 -3 32q124 5 188 26q16 0 16 -13q-3 -37 -3 -102v-211q115 72 165 72q133 0 133 -160v-156z" />
    <glyph glyph-name="i" unicode="i" horiz-adv-x="322" 
d="M232 122q0 -60 12 -73.5t60 -16.5q4 -4 4 -17t-4 -17q-86 2 -137 2q-53 0 -137 -2q-4 4 -4 17t4 17q48 4 60 17t12 73v192q0 42 -11.5 54t-53.5 16q-6 19 -2 32q159 21 178 28q23 0 23 -17q-4 -56 -4 -106v-199zM97 596q0 25 18.5 43.5t51.5 18.5q29 0 47 -20.5t18 -45.5
q0 -22 -20 -42t-51 -20q-29 0 -46.5 20t-17.5 46z" />
    <glyph glyph-name="j" unicode="j" horiz-adv-x="312" 
d="M102 314q0 42 -11.5 54t-53.5 16q-6 19 -2 32q159 21 178 28q23 0 23 -17q-4 -56 -4 -106v-211q0 -131 -20.5 -192.5t-60.5 -93.5q-33 -28 -66 -42t-86 -14q-28 0 -57 18.5t-29 48.5q0 20 18 40t32 20q8 0 16 -2t13.5 -4.5t12 -8t9.5 -8.5l10 -10l8 -8q18 -18 30 -18
q21 0 34 22.5t13 49.5q0 34 -3.5 87.5t-3.5 80.5v238zM95 596q0 25 18.5 43.5t51.5 18.5q29 0 47 -20.5t18 -45.5q0 -22 -20 -42t-51 -20q-29 0 -46.5 20t-17.5 46z" />
    <glyph glyph-name="k" unicode="k" horiz-adv-x="613" 
d="M100 127v438q0 50 -10 60.5t-58 14.5q-8 14 -3 32q124 5 188 26q16 0 16 -13q-3 -37 -3 -102v-334q21 0 50 9.5t39 18.5q32 28 64 72q20 30 10.5 40t-51.5 13q-4 4 -4 17t4 17q74 -2 121 -2q67 0 111 2q4 -4 4 -17t-4 -17q-27 -3 -47.5 -9.5t-38 -21t-24.5 -21t-26 -26.5
l-49 -55q-6 -7 3 -20l116 -171q5 -7 9.5 -13t10 -10.5t9 -7.5t9.5 -5.5t9 -3.5t10.5 -2.5t9.5 -1.5t11.5 -1t12.5 -1q5 -4 5 -17t-5 -17q-74 2 -134 2l-80 -2l-2 2v26q0 18 -16 52q-17 36 -68 112q-13 19 -69 19v-82q0 -58 10.5 -75t36.5 -20q5 -4 5 -17t-5 -17
q-48 2 -112 2q-58 0 -142 -2q-5 4 -5 17t5 17q48 2 62.5 18.5t14.5 76.5z" />
    <glyph glyph-name="l" unicode="l" horiz-adv-x="325" 
d="M100 127v438q0 50 -10 60.5t-58 14.5q-8 14 -3 32q124 5 188 26q16 0 16 -13q-3 -37 -3 -102v-456q0 -60 14.5 -76.5t62.5 -18.5q5 -4 5 -17t-5 -17q-86 2 -142 2q-58 0 -142 -2q-5 4 -5 17t5 17q48 2 62.5 18.5t14.5 76.5z" />
    <glyph glyph-name="m" unicode="m" horiz-adv-x="905" 
d="M228 122q0 -42 5 -60t14 -23t33 -7q5 -5 5 -17.5t-5 -16.5q-86 2 -117 2q-53 0 -137 -2q-4 4 -4 16.5t4 17.5q27 2 37.5 4.5t20.5 11.5t12 25.5t2 48.5v187q0 42 -11.5 54t-53.5 16q-2 5 -2.5 16t0.5 16q85 11 166 33q22 0 23 -17q3 -23 6 -53q123 70 165 70
q43 0 72.5 -19.5t41.5 -53.5q50 29 102 51t77 22q65 0 95.5 -39t30.5 -121v-156q0 -42 7 -62t22 -26t48 -8q5 -5 5 -17.5t-5 -16.5q-86 2 -142 2q-38 0 -122 -2q-4 4 -4 16.5t4 17.5q23 2 33.5 8t17 26.5t6.5 61.5v167q0 75 -68 75q-13 0 -41.5 -8.5t-55.5 -22.5
q4 -18 4 -55v-156q0 -41 6.5 -61.5t17.5 -26.5t33 -8q5 -4 5 -17t-5 -17q-86 2 -122 2q-38 0 -122 -2q-4 4 -4 17t4 17q23 2 33.5 8t17 26.5t6.5 61.5v167q0 75 -70 75q-35 0 -91 -34v-15v-199z" />
    <glyph glyph-name="n" unicode="n" horiz-adv-x="616" 
d="M228 122q0 -42 5 -60t14 -23t33 -7q5 -5 5 -17.5t-5 -16.5q-86 2 -117 2q-53 0 -137 -2q-4 4 -4 16.5t4 17.5q27 2 37.5 4.5t20.5 11.5t12 25.5t2 48.5v187q0 42 -11.5 54t-53.5 16q-2 5 -2.5 16t0.5 16q85 11 166 33q22 0 23 -17q4 -30 7 -65q119 82 166 82
q133 0 133 -160v-156q0 -42 7 -62t22 -26t48 -8q5 -5 5 -17.5t-5 -16.5q-86 2 -142 2q-38 0 -122 -2q-5 4 -5 16.5t5 17.5q23 2 33.5 8t17 26.5t6.5 61.5v167q0 75 -70 75q-30 0 -98 -47v-2v-199z" />
    <glyph glyph-name="o" unicode="o" horiz-adv-x="551" 
d="M260 402q-83 0 -83 -173q0 -69 29.5 -133t84.5 -64q33 0 58 35.5t25 116.5q0 102 -31 160t-83 58zM37 207q0 100 55 163q64 74 184 74q109 0 173.5 -64t64.5 -164q0 -108 -68 -169q-64 -57 -171 -57q-102 0 -170 60t-68 157z" />
    <glyph glyph-name="p" unicode="p" horiz-adv-x="581" 
d="M95 309q0 42 -11.5 54t-53.5 16q-2 5 -2.5 16t0.5 16q85 11 166 33q22 0 23 -17q3 -22 5 -50h6q29 26 63.5 46.5t54.5 20.5q87 0 137 -50q28 -28 44 -71t16 -86q0 -111 -68.5 -179t-182.5 -68q-34 0 -67 17v-117q0 -60 12 -73.5t60 -16.5q5 -4 5 -17t-5 -17q-86 2 -137 2
q-53 0 -137 -2q-5 4 -5 17t5 17q48 4 60 17t12 73v419zM225 65q31 -33 61 -33q41 0 68.5 28t38 66t10.5 84q0 81 -27 124t-62 43q-19 0 -44 -10.5t-45 -28.5v-17v-256z" />
    <glyph glyph-name="q" unicode="q" horiz-adv-x="573" 
d="M483 -110q0 -60 12 -73.5t60 -16.5q5 -4 5 -17t-5 -17q-86 2 -137 2q-53 0 -137 -2q-5 4 -5 17t5 17q48 4 60 17t12 73v138h-5q-81 -38 -107 -38q-72 0 -125 38q-80 57 -80 180q0 98 75.5 167t176.5 69q56 0 104 -37q16 14 39 25.5t33 11.5q23 0 23 -17q-4 -56 -4 -106
v-431zM353 71v295q-30 36 -68 36q-48 0 -78.5 -48.5t-30.5 -124.5q0 -100 33 -141.5t79 -41.5q10 0 31 7.5t34 17.5z" />
    <glyph glyph-name="r" unicode="r" horiz-adv-x="428" 
d="M228 268v-146q0 -32 2 -48.5t11.5 -26t21 -11.5t37.5 -4q5 -4 5 -17t-5 -17q-86 2 -137 2q-53 0 -137 -2q-4 4 -4 17t4 17q27 2 37.5 4.5t20.5 11.5t12 25.5t2 48.5v187q0 42 -12 54.5t-53 16.5q-6 18 -2 31q58 6 166 33q10 0 16 -5t7 -12q5 -49 7 -79h4q67 96 119 96
q26 0 46 -18t20 -38q0 -31 -17.5 -51.5t-39.5 -20.5q-33 0 -47 16q-16 19 -28 19q-18 0 -32 -17q-8 -10 -12.5 -16.5t-8 -19.5t-3.5 -30z" />
    <glyph glyph-name="s" unicode="s" horiz-adv-x="427" 
d="M48 146q22 5 40 2q15 -54 47 -86.5t67 -32.5q22 0 40.5 13t18.5 36q0 22 -12 44t-39 34q-25 11 -59.5 35t-56.5 48q-31 34 -31 75q0 43 34 78q24 24 60 38t75 14q37 0 60 -5.5t52 -18.5q13 -46 13 -106q-13 -9 -39 -5q-19 45 -43 69t-51 24q-21 0 -34.5 -12t-13.5 -30
q0 -55 54 -78q78 -34 116 -77q31 -34 31 -86q0 -61 -54 -95t-119 -34q-76 0 -139 22q-10 42 -17 134z" />
    <glyph glyph-name="t" unicode="t" horiz-adv-x="358" 
d="M63 434h28q0 101 11 116q3 4 12 8t22 8t19 6q12 5 33.5 11.5t26.5 6.5q8 0 8 -9q-3 -47 -5 -113l-1 -34h117q8 0 8 -6v-31q0 -13 -24 -13h-101q0 -56 0.5 -147t0.5 -110q0 -35 12.5 -51t31.5 -16q39 0 57 14q18 -15 18 -28q-16 -22 -56 -39t-80 -17q-50 0 -83 28
q-30 26 -30 87q0 148 3 279h-65q-5 0 -5 6v29q17 15 42 15z" />
    <glyph glyph-name="u" unicode="u" horiz-adv-x="598" 
d="M510 133q0 -43 12.5 -58.5t52.5 -19.5q2 -5 2.5 -16t-0.5 -16q-85 -11 -166 -33q-22 0 -23 17q-2 19 -4 44q-46 -25 -93.5 -43t-73.5 -18q-128 0 -128 160v156q0 59 -14.5 76.5t-52.5 19.5q-4 5 -4 17.5t4 16.5q86 -2 132 -2q21 0 57 2q10 -10 10 -34q0 -4 -1 -25t-1 -71
v-167q0 -48 17 -61.5t53 -13.5q48 0 92 27q-1 16 -1 30v185q0 60 -13 76t-54 20q-5 4 -5 17t5 17q78 -2 132 -2q21 0 57 2q10 -10 10 -34q0 -4 -1 -25t-1 -71v-173z" />
    <glyph glyph-name="v" unicode="v" horiz-adv-x="529" 
d="M342 402q-4 5 -4 17t4 17q54 -2 101 -2q32 0 76 2q5 -4 5 -17t-5 -17q-19 -2 -32.5 -7.5t-23 -17.5t-15 -22t-15.5 -31l-137 -313q-10 -23 -39 -23q-28 0 -36 21l-131 316q-1 5 -5.5 15.5l-6 14t-5.5 11.5t-6 10t-6.5 7.5t-9 7t-10.5 4.5t-13.5 4.5t-17.5 2.5q-4 4 -4 17
t4 17q74 -2 123 -2q52 0 126 2q5 -4 5 -17t-5 -17q-12 -1 -20 -3t-13.5 -3.5t-8 -6t-4 -6.5t0.5 -10t3 -11t5 -14.5t6 -16.5l63 -178q2 -7 4.5 -9t6.5 4l79 183q17 38 9 53t-48 18z" />
    <glyph glyph-name="w" unicode="w" horiz-adv-x="777" 
d="M482 331l66 -167q3 -8 7 -8t7 9l58 158q15 37 7 56.5t-47 22.5q-4 5 -4 17.5t4 16.5q74 -2 117 -2q22 0 66 2q5 -4 5 -16.5t-5 -17.5q-20 -2 -35 -9t-25 -20.5t-16 -25t-15 -31.5l-122 -305q-9 -23 -35 -23q-31 0 -39 21l-96 249l-94 -247q-9 -23 -37 -23q-25 0 -33 21
l-122 316q-1 3 -3 10q-14 37 -27 50t-50 17q-4 5 -4 17.5t4 16.5q74 -2 123 -2q57 0 131 2q4 -4 4 -16.5t-4 -17.5q-41 -4 -47 -18t8 -45q2 -5 3 -8l57 -170q3 -7 6 -7t5 6l95 264q26 -3 56 -1q12 -44 31 -92z" />
    <glyph glyph-name="x" unicode="x" horiz-adv-x="561" 
d="M183 73q-6 -9 -7 -16t1.5 -11t9 -7t11 -4.5t12.5 -2.5q4 -4 4 -16.5t-4 -17.5q-40 2 -110 2q-43 0 -83 -2q-5 5 -5 17.5t5 16.5q69 9 99 47l92 114q7 9 3 15l-89 127q-25 36 -43.5 51.5t-49.5 15.5q-5 4 -5 17t5 17q40 -2 126 -2q100 0 140 2q5 -4 5 -17t-5 -17
q-31 -3 -37 -9t7 -33l45 -76q6 -11 12 -2l54 77q15 21 9 31t-33 12q-4 4 -4 17t4 17q40 -2 100 -2q44 0 84 2q4 -4 4 -17t-4 -17q-60 -7 -95 -49l-89 -108q-4 -6 2 -15l88 -131q39 -57 103 -67q5 -4 5 -17t-5 -17q-40 2 -134 2q-96 0 -136 -2q-5 4 -5 17t5 17q28 4 33.5 9.5
t-5.5 30.5l-48 90q-4 7 -10 -2z" />
    <glyph glyph-name="y" unicode="y" horiz-adv-x="558" 
d="M242 -168q-8 -15 -26 -30.5t-34 -23.5q-21 -10 -57 -10q-24 0 -39 18q-12 14 -12 40q0 17 16.5 31.5t43.5 14.5q6 0 16 -2t19 -2q20 0 31 11.5t22 37.5l24 55q1 8 2 11t-3.5 11t-7 11.5t-9.5 12.5t-10 14l-129 296q-21 47 -33.5 59t-45.5 15q-4 4 -4 17t4 17
q40 -2 111 -2q59 0 133 2q4 -4 4 -17t-4 -17q-42 -3 -46 -18.5t13 -45.5l93 -209q1 -2 1 -4q1 1 1 2l103 231q7 10 4.5 18t-5 12.5t-12 7.5t-16.5 4t-19 2q-5 4 -5 17t5 17q74 -2 106 -2q21 0 71 2q4 -4 4 -17t-4 -17q-26 -2 -47.5 -20.5t-33.5 -42.5q-87 -184 -182 -413
q-24 -61 -43 -94z" />
    <glyph glyph-name="z" unicode="z" horiz-adv-x="452" 
d="M61 446q5 -1 14.5 -4t20 -4.5t24.5 -1.5h193q13 0 37 0.5t44 1t21 0.5q12 0 12 -7t-18 -37q-143 -235 -234 -352l1 -3h96q38 0 58 15t40 56l14 29q29 0 40 -6q-11 -75 -32 -136l-352 3q-23 0 -23 12q0 8 9 20q123 166 242 363l-2 2l-102 -3q-55 -2 -81 -96
q-9 -2 -22.5 -1t-20.5 4q14 84 15 139q0 6 6 6z" />
    <glyph glyph-name="braceleft" unicode="{" horiz-adv-x="307" 
d="M208 552l8 -166q3 -62 -23 -91.5t-82 -45.5v-4q55 -23 81.5 -57.5t23.5 -92.5l-8 -149q-3 -60 21 -97t59 -37q4 -4 4 -12t-4 -12q-86 0 -135.5 36.5t-46.5 126.5l6 170q3 98 -98 110q-6 6 -6.5 15.5t6.5 16.5q51 5 74.5 35t23.5 72l-6 184q-3 78 51 115.5t131 37.5
q4 -5 4 -12t-4 -12q-18 -5 -29.5 -11t-26 -19.5t-20.5 -38.5t-4 -62z" />
    <glyph glyph-name="bar" unicode="|" horiz-adv-x="220" 
d="M140 -233h-60v931h60v-931z" />
    <glyph glyph-name="braceright" unicode="}" horiz-adv-x="307" 
d="M99 -56l-8 166q-3 62 23 91.5t82 45.5v4q-55 23 -81.5 57.5t-23.5 92.5l8 149q3 60 -21 97t-59 37q-5 4 -5 12t5 12q86 0 135.5 -36.5t46.5 -126.5l-6 -170q-3 -98 98 -110q6 -6 6.5 -15.5t-6.5 -16.5q-51 -5 -74.5 -35t-23.5 -72l6 -184q3 -78 -51 -115.5t-131 -37.5
q-5 5 -5 12t5 12q18 5 29.5 11t26 19.5t20.5 38.5t4 62z" />
    <glyph glyph-name="asciitilde" unicode="~" horiz-adv-x="473" 
d="M152 268q-79 0 -106 -64l-10 3q-10 11 -16 29q13 40 42.5 65.5t55 32.5t49.5 7q64 0 96 -32q29 -29 55 -29q79 0 106 64l10 -3q10 -11 16 -29q-19 -58 -62.5 -81.5t-84.5 -23.5q-20 0 -47 10t-45 27q-26 24 -59 24z" />
    <glyph glyph-name="uni00A0" unicode="&#xa0;" horiz-adv-x="250" 
 />
    <glyph glyph-name="exclamdown" unicode="&#xa1;" horiz-adv-x="266" 
d="M133 -224q-30 0 -51 19.5t-21 55.5q0 29 14 106q28 171 30 247q1 42 28 42q18 0 23.5 -12.5t6.5 -41.5q1 -36 9.5 -111t18.5 -127q14 -70 14 -103q0 -38 -22 -56.5t-50 -18.5zM206 376q0 -29 -22 -50t-52 -21t-51 20t-21 49q0 28 22 49t52 21t51 -20t21 -48z" />
    <glyph glyph-name="cent" unicode="&#xa2;" horiz-adv-x="540" 
d="M262 584h34v-69q69 -4 109 -36t40 -68q0 -24 -15.5 -40t-39.5 -16t-42 13.5t-20 33.5q-5 49 -32 65v-331q16 -4 33 -4q41 0 103 57q13 0 13 -31q-26 -37 -67 -63.5t-82 -32.5v-74h-34v73q-88 3 -140 52q-62 58 -62 159q0 102 58.5 168t143.5 74v70zM262 152v320
q-72 -11 -72 -165q0 -53 19.5 -93.5t52.5 -61.5z" />
    <glyph glyph-name="sterling" unicode="&#xa3;" horiz-adv-x="540" 
d="M82 292q-28 0 -28 11v16q0 20 47 20h31v24q0 67 22 111.5t64 85.5q60 54 151 54q12 0 25 -1.5t30 -6.5t28 -16.5t11 -27.5q0 -26 -16 -41.5t-41 -15.5q-22 0 -48 26q-6 6 -11 18t-10.5 18.5t-15.5 6.5q-59 0 -59 -160v-75h90q31 0 31 -11v-16q0 -10 -15 -15t-33 -5h-73
q-2 -38 -10.5 -69t-23 -53t-27 -34.5t-30.5 -26.5q70 0 123 -29q30 -16 51 -16q24 0 52.5 15.5t47.5 40.5q15 -3 23 -15q-17 -46 -53.5 -80.5t-87.5 -34.5t-112 39q-35 23 -64 23q-16 0 -25 -4.5t-11 -9.5t-2 -13q0 -20 -18.5 -31.5t-42.5 -11.5q-16 0 -25 9.5t-9 23.5
q0 20 20.5 43t45.5 36q6 3 13 6q35 40 35 184v8h-50z" />
    <glyph glyph-name="currency" unicode="&#xa4;" horiz-adv-x="463" 
d="M114 300q0 -52 33 -87.5t83 -35.5t83 35.5t33 86.5q0 52 -34.5 87.5t-79.5 35.5q-49 0 -83.5 -35.5t-34.5 -86.5zM230 122q-55 0 -100 25q-8 -10 -25 -31.5t-21 -26.5l-61 59l53 43q-43 54 -43 108q0 57 44 110q-35 26 -52 41l55 57l50 -55q47 25 102 25q52 0 99 -26
q46 54 51 61l58 -61l-55 -45q42 -51 42 -107q0 -51 -41 -106q20 -16 52 -44l-54 -58l-51 58q-48 -27 -103 -27z" />
    <glyph glyph-name="yen" unicode="&#xa5;" horiz-adv-x="540" 
d="M478 177v-42h-129v-13q0 -60 17 -74t80 -16q4 -4 4 -17t-4 -17q-100 2 -154 2q-72 0 -170 -2q-4 4 -4 17t4 17q63 2 80 16t17 74v13h-121v42h121v68h-121v42h118q-3 12 -21 45l-87 160q-20 39 -41.5 56.5t-52.5 19.5q-5 5 -5 17t4 17q60 -2 137 -2q39 0 119 2q5 -4 5 -17
t-5 -17q-40 -2 -48.5 -10.5t2.5 -26.5l75 -158q9 -18 16 -19t15 16l69 161q8 21 -3 28t-47 9q-4 4 -4 17t4 17q80 -2 101 -2q23 0 83 2q5 -4 5 -17t-5 -17q-34 -3 -53.5 -16t-33.5 -42l-78 -159q-17 -34 -18 -64h129v-42h-129v-68h129z" />
    <glyph glyph-name="brokenbar" unicode="&#xa6;" horiz-adv-x="220" 
d="M140 674v-362h-60v362h60zM140 161v-362h-60v362h60z" />
    <glyph glyph-name="section" unicode="&#xa7;" horiz-adv-x="466" 
d="M409 -26q0 -59 -45.5 -101t-140.5 -42q-39 0 -77 14t-66 45.5t-28 72.5q0 19 17.5 34t35.5 15q28 0 46 -19.5t18 -31.5q0 -15 -8 -29t-8 -19q0 -4 2.5 -10.5t9 -15.5t21.5 -15t35 -6q35 0 56.5 26t21.5 75q0 18 -10 35t-31 32.5t-36 25t-41 23.5q-83 46 -117 90t-34 103
q0 65 68 126q-34 45 -34 102q0 26 14 56.5t38 52.5q50 45 128 45q76 0 123.5 -34t47.5 -96q0 -20 -18.5 -35t-37.5 -15q-28 0 -44 19t-16 32q0 17 7 29.5t7 18.5q0 46 -65 46q-40 0 -60 -28t-20 -71q0 -32 18 -50t58 -37q54 -26 79.5 -41t57 -41.5t44 -59t12.5 -76.5
q0 -69 -73 -131q45 -55 45 -114zM118 381q-11 -21 -11 -57q0 -40 31 -75t109 -73q56 -26 96 -65q17 23 17 60q0 25 -8.5 45.5t-22.5 36.5t-41.5 33.5t-54 31t-72.5 34.5q-23 11 -43 29z" />
    <glyph glyph-name="dieresis" unicode="&#xa8;" horiz-adv-x="410" 
d="M243 573q0 23 16 39t39 16t39 -16t16 -39q0 -22 -16 -38t-39 -16t-39 15.5t-16 38.5zM57 573q0 23 16 39t39 16t39 -16t16 -39t-16 -38.5t-39 -15.5t-39 16t-16 38z" />
    <glyph glyph-name="copyright" unicode="&#xa9;" horiz-adv-x="641" 
d="M439 218q-15 -25 -43 -42.5t-62 -17.5q-68 0 -107 42q-40 43 -40 106q0 61 41 102.5t100 41.5q22 0 39.5 -2.5t25.5 -5t18.5 -7t13.5 -5.5q8 -48 9 -70q-4 -3 -18 -3q-18 36 -32.5 48t-45.5 12q-27 0 -45.5 -26t-18.5 -86q0 -107 73 -107q52 0 75 35q9 -3 17 -15zM321 17
q-120 0 -204.5 85t-84.5 204t85 203.5t204 84.5t203.5 -84.5t84.5 -203.5t-84.5 -204t-203.5 -85zM321 545q-98 0 -167.5 -70.5t-69.5 -168.5t69.5 -168.5t167.5 -70.5q97 0 166.5 70.5t69.5 168.5t-69.5 168.5t-166.5 70.5z" />
    <glyph glyph-name="ordfeminine" unicode="&#xaa;" horiz-adv-x="297" 
d="M169 519q1 96 -34 96q-22 0 -34.5 -7.5t-12.5 -17.5q0 -6 2.5 -12t2.5 -13q0 -11 -12 -19.5t-27 -8.5q-13 0 -23.5 8t-10.5 24q0 29 38.5 52.5t78.5 23.5q51 0 76 -19q21 -16 27 -39.5t5 -73.5l-2 -80q-1 -21 1 -31.5t5 -13t8 -2.5q7 0 16 6l10 -16q-32 -28 -68 -28
q-41 0 -45 33q-33 -33 -78 -33q-35 0 -55 15q-22 16 -22 55q0 29 31.5 54t81.5 37zM167 408l2 84q-44 -14 -62 -33.5t-18 -37.5q0 -36 33 -36q21 0 45 23z" />
    <glyph glyph-name="guillemotleft" unicode="&#xab;" horiz-adv-x="555" 
d="M74 207v16q4 4 13 12q39 35 58.5 53t50.5 50t62 69q21 -7 29 -22q-60 -115 -104 -170q44 -55 104 -170q-8 -15 -29 -22q-33 39 -67.5 74t-51 50.5t-65.5 59.5zM262 207v16q4 4 13 12q39 35 58.5 53t50.5 50t62 69q21 -7 29 -22q-60 -115 -104 -170q44 -55 104 -170
q-8 -15 -29 -22q-33 39 -67.5 74t-51 50.5t-65.5 59.5z" />
    <glyph glyph-name="logicalnot" unicode="&#xac;" horiz-adv-x="560" 
d="M463 133v214h-439v54h513v-268h-74z" />
    <glyph glyph-name="uni00AD" unicode="&#xad;" horiz-adv-x="350" 
d="M273 215h-198q-37 0 -37 21q0 14 15.5 36t30.5 22h200q36 0 36 -21q0 -12 -16 -35t-31 -23z" />
    <glyph glyph-name="registered" unicode="&#xae;" horiz-adv-x="641" 
d="M423 372q0 -23 -14.5 -42t-28.5 -26l-14 -8l48 -82q18 -31 40 -31v-13q-13 -4 -23 -4q-50 0 -68 38l-48 78q-6 3 -27 3v-91q0 -7 7 -7h12q11 0 11 -6v-14q-54 2 -68 2l-56 -2v14q0 6 11 6h12q8 0 8 8v218q0 11 -4 11l-16 -1q-10 0 -10 6v13q35 5 133 5q50 0 72.5 -23
t22.5 -52zM361 372q0 55 -45 55q-20 0 -28 -3v-115q16 0 25.5 1.5t22 6.5t19 19t6.5 36zM321 17q-120 0 -204.5 85t-84.5 204t85 203.5t204 84.5t203.5 -84.5t84.5 -203.5t-84.5 -204t-203.5 -85zM321 545q-98 0 -167.5 -70.5t-69.5 -168.5t69.5 -168.5t167.5 -70.5
q97 0 166.5 70.5t69.5 168.5t-69.5 168.5t-166.5 70.5z" />
    <glyph glyph-name="macron" unicode="&#xaf;" horiz-adv-x="397" 
d="M315 519h-244q-12 0 -12 20q0 10 7 22t15 12h244q14 0 14 -19q0 -10 -7.5 -22.5t-16.5 -12.5z" />
    <glyph glyph-name="degree" unicode="&#xb0;" horiz-adv-x="267" 
d="M196 524q0 26 -16.5 47.5t-45.5 21.5t-46 -21t-17 -48q0 -26 17.5 -46t45.5 -20t45 20t17 46zM28 525q0 44 31 75t75 31t74.5 -31t30.5 -75q0 -43 -30.5 -74t-74.5 -31t-75 31t-31 74z" />
    <glyph glyph-name="plusminus" unicode="&#xb1;" horiz-adv-x="527" 
d="M306 354h171v-74h-171v-163h-74v163h-171v74h171v164h74v-164zM473 77l-10 -60h-399l10 60h399z" />
    <glyph glyph-name="two.superior" unicode="&#xb2;" horiz-adv-x="340" 
d="M33 626q0 25 38.5 54t92.5 29q60 0 86 -21q29 -22 29 -66q0 -35 -29 -66q-20 -21 -56 -53l-43 -37q-24 -20 -27 -45h82q22 0 39.5 18.5t26.5 43.5q20 0 28 -6q-3 -29 -29 -113h-236q0 57 59 114l59 54q37 35 37 76q0 36 -12 56q-9 15 -28 15q-31 0 -38 -18q-1 -4 -1 -23
v-8v-7q0 -7 -1 -11q-3 -12 -15 -20.5t-28 -8.5q-34 0 -34 43z" />
    <glyph glyph-name="three.superior" unicode="&#xb3;" horiz-adv-x="340" 
d="M197 635q0 21 -12 32.5t-30 11.5q-17 0 -31.5 -11t-15.5 -28q0 -13 -10.5 -26.5t-29.5 -13.5q-33 0 -33 28q0 8 7.5 20.5t22 26.5t43 24t64.5 10q49 0 80 -19t31 -50q0 -38 -47 -69q-3 -3 0 -4q73 -22 73 -85q0 -55 -50.5 -89t-120.5 -34q-99 0 -112 41q-5 17 5.5 31
t29.5 14q10 0 18 -5t12 -10t9 -13t6 -9q17 -19 42 -19q21 0 43.5 22t22.5 63q0 56 -75 56q-17 0 -34 -4v30q36 5 64 27t28 52z" />
    <glyph glyph-name="acute" unicode="&#xb4;" horiz-adv-x="341" 
d="M187 674q6 2 16 2q38 0 57 -24l10 -23l-120 -108q-19 -16 -38 -16q-6 0 -11 4.5t-5 9.5q0 12 8 24z" />
    <glyph glyph-name="uni00B5" unicode="&#xb5;" horiz-adv-x="559" 
d="M343 48h-8q-51 -41 -74 -50q-22 -8 -49 -8q-30 0 -46 7q0 -5 0.5 -40.5t4.5 -52.5q12 -52 12 -72q0 -30 -18.5 -47t-44.5 -17q-20 0 -46.5 20t-26.5 49q0 25 7 71q10 65 10 88q0 8 -1.5 25.5t-1.5 24.5q-1 8 -7.5 42t-6.5 49v186l-11 111l138 13q3 -72 3 -104v-183
q0 -107 43 -107q33 0 65.5 12t48.5 33v336l130 14v-321q0 -67 32 -67q24 0 42 14q18 -15 18 -28q-59 -56 -135 -56q-68 0 -78 58z" />
    <glyph glyph-name="pilcrow" unicode="&#xb6;" horiz-adv-x="602" 
d="M498 -144q0 -40 7.5 -50.5t32.5 -11.5h29q6 0 6 -7v-21h-329v21q0 7 6 7h29q25 1 32 12.5t7 50.5v370q-24 -12 -77 -12q-27 0 -54.5 6t-56.5 22t-51.5 40t-37 64.5t-14.5 91.5q0 94 53 150.5t150 56.5q44 0 100 -2.5t63 -2.5l69 3l111 2v-21q0 -7 -6 -7h-29
q-26 0 -33 -12.5t-7 -49.5v-700zM407 -207q20 0 26 13.5t6 48.5v701q0 27 -4.5 41t-9.5 16t-15 3q-15 0 -22.5 -10.5t-9 -21.5t-1.5 -31v-696q0 -64 30 -64z" />
    <glyph glyph-name="periodcentered" unicode="&#xb7;" horiz-adv-x="250" 
d="M125 186q-30 0 -49 20t-19 47t20.5 47t47.5 20q26 0 47 -19.5t21 -47.5q0 -27 -20 -47t-48 -20z" />
    <glyph glyph-name="cedilla" unicode="&#xb8;" horiz-adv-x="541" 
d="M236 -101l-6 6l51 102h34l-20 -48q93 -19 93 -84q0 -38 -34 -64t-83 -26q-32 0 -64 17q0 21 10 26q38 -14 58 -14q50 0 50 41q0 39 -89 44z" />
    <glyph glyph-name="one.superior" unicode="&#xb9;" horiz-adv-x="340" 
d="M135 640q-15 0 -57 -15q-10 8 -10 33q94 34 137 56q5 3 16 3t16 -3v-265q0 -19 3.5 -30t12 -16.5t16.5 -7t23 -2.5q8 -16 0 -30q-30 1 -99 1q-85 0 -115 -1q-3 5 -3.5 14.5t3.5 15.5q25 1 37.5 4t23 15.5t10.5 36.5v150q0 25 -2.5 33t-11.5 8z" />
    <glyph glyph-name="ordmasculine" unicode="&#xba;" horiz-adv-x="368" 
d="M39 429q0 62 43 99.5t104 37.5q46 0 76 -17q31 -18 49.5 -49.5t18.5 -64.5q0 -55 -39 -93.5t-110 -38.5q-65 0 -103.5 35.5t-38.5 90.5zM180 537q-34 0 -43.5 -24t-9.5 -74q0 -22 2 -37.5t8 -32t20 -25t35 -8.5q24 0 37.5 17t13.5 66q0 63 -13.5 90.5t-49.5 27.5z" />
    <glyph glyph-name="guillemotright" unicode="&#xbb;" horiz-adv-x="555" 
d="M481 223v-16q-4 -4 -13 -12q-39 -35 -58.5 -53t-50.5 -50t-62 -69q-21 7 -29 22q60 115 104 170q-44 55 -104 170q8 15 29 22q33 -39 67.5 -74t51 -50.5t65.5 -59.5zM293 223v-16q-4 -4 -13 -12q-39 -35 -58.5 -53t-50.5 -50t-62 -69q-21 7 -29 22q60 115 104 170
q-44 55 -104 170q8 15 29 22q33 -39 67.5 -74t51 -50.5t65.5 -59.5z" />
    <glyph glyph-name="onequarter" unicode="&#xbc;" horiz-adv-x="700" 
d="M572 601l42 -8l-459 -655l-41 8zM606 -50q0 -25 6 -37t15 -15t29 -4q8 -16 0 -30q-30 1 -108 1q-66 0 -96 -1q-3 5 -3.5 14.5t3.5 15.5q25 1 37.5 4t23 15.5t10.5 36.5v21h-146l-12 12q25 37 94 125.5t85 110.5h50q12 0 12 -10v-196h60l-3 -42h-57v-21zM132 591
q-15 0 -57 -15q-10 8 -10 33q94 34 137 56q5 3 16 3t16 -3v-265q0 -19 3.5 -30t12 -16.5t16.5 -7t23 -2.5q8 -16 0 -30q-30 1 -99 1q-85 0 -115 -1q-3 5 -3.5 14.5t3.5 15.5q25 1 37.5 4t23 15.5t10.5 36.5v150q0 25 -2.5 33t-11.5 8zM523 140l-95 -127h95v127z" />
    <glyph glyph-name="onehalf" unicode="&#xbd;" horiz-adv-x="700" 
d="M552 601l42 -8l-459 -655l-41 8zM391 183q0 25 38.5 54t92.5 29q60 0 86 -20q29 -23 29 -67q0 -35 -29 -66q-20 -21 -56 -53l-43 -38q-24 -19 -27 -44h82q22 0 39.5 18.5t26.5 43.5q20 0 28 -6q-3 -29 -29 -113h-236q0 57 59 114l59 54q37 35 37 76q0 36 -12 56
q-9 15 -28 15q-31 0 -38 -18q-1 -4 -1 -23v-8v-7q0 -7 -1 -11q-3 -12 -15 -20.5t-28 -8.5q-34 0 -34 43zM134 591q-15 0 -57 -15q-10 8 -10 33q94 34 137 56q5 3 16 3t16 -3v-265q0 -19 3.5 -30t12 -16.5t16.5 -7t23 -2.5q8 -16 0 -30q-30 1 -99 1q-85 0 -115 -1
q-3 5 -3.5 14.5t3.5 15.5q25 1 37.5 4t23 15.5t10.5 36.5v150q0 25 -2.5 33t-11.5 8z" />
    <glyph glyph-name="threequarters" unicode="&#xbe;" horiz-adv-x="700" 
d="M582 601l42 -8l-459 -655l-41 8zM195 584q0 21 -12 32.5t-30 11.5q-17 0 -31.5 -11t-15.5 -28q0 -13 -10.5 -26.5t-29.5 -13.5q-33 0 -33 28q0 8 7.5 20.5t22 26.5t43 24t64.5 10q49 0 80 -19t31 -50q0 -38 -47 -69q-3 -3 0 -4q73 -22 73 -85q0 -55 -50.5 -89t-120.5 -34
q-99 0 -112 41q-5 17 5.5 31t29.5 14q10 0 18 -5t12 -10t9 -13t6 -9q17 -19 42 -19q21 0 43.5 22t22.5 63q0 56 -75 56q-17 0 -34 -4v30q36 5 64 27t28 52zM610 -48q0 -25 6 -37t15 -15t29 -4q8 -16 0 -30q-30 1 -108 1q-66 0 -96 -1q-3 5 -3.5 14.5t3.5 15.5q25 1 37.5 4
t23 15.5t10.5 36.5v21h-146l-12 12q25 37 94 125.5t85 110.5h50q12 0 12 -10v-196h60l-3 -42h-57v-21zM527 142l-95 -127h95v127z" />
    <glyph glyph-name="questiondown" unicode="&#xbf;" horiz-adv-x="430" 
d="M279 -140q0 10 -4.5 25t-4.5 29q0 18 15 29.5t38 11.5q20 0 38.5 -16t18.5 -42q0 -42 -53 -86q-47 -39 -137 -39q-85 0 -135 42t-50 111q0 26 9.5 49t29.5 44.5t34 33t40 30.5q19 13 30 24t22 36.5t11 58.5v13q0 20 6 27t27 7q19 0 25.5 -8t6.5 -26v-15q0 -29 -2.5 -47.5
t-19 -52t-49.5 -63.5q-55 -49 -55 -118q0 -47 20 -78.5t60 -31.5q33 0 56 15.5t23 36.5zM285 372q0 -29 -22 -50t-52 -21t-51 20t-21 49q0 28 22 49t52 21t51 -20t21 -48z" />
    <glyph glyph-name="Agrave" unicode="&#xc0;" horiz-adv-x="740" 
d="M273 283h152l-82 237h-7l-88 -224q-3 -7 2.5 -10t22.5 -3zM165 79q-3 -7 -3.5 -13.5t2.5 -11t6 -8t9.5 -5.5t11.5 -3.5t14 -2.5t14.5 -1.5t14.5 -1.5q5 -4 5 -17t-5 -17q-74 2 -133 2q-20 0 -94 -2q-4 4 -4 17t4 17q20 1 31 3.5t25 9t24.5 20.5t19.5 37l217 512
q37 0 110 44l206 -572q6 -17 14.5 -28t21 -16t21 -6.5t26.5 -2.5q5 -1 7 -1q5 -4 5 -17t-5 -17q-74 2 -134 2q-97 0 -171 -2q-4 4 -4 17t4 17q6 0 15.5 0.5t15 1t13 1t11.5 2t9 3t7.5 4.5t4 7t1 9t-2.5 12l-56 163h-190q-18 0 -24.5 -3.5t-10.5 -13.5zM272 830
q-44 -21 -65 -55l3 -12l144 -58q16 -7 35 -7q7 0 13.5 4.5t6.5 10.5q0 13 -10 21q-45 39 -127 96z" />
    <glyph glyph-name="Aacute" unicode="&#xc1;" horiz-adv-x="740" 
d="M273 283h152l-82 237h-7l-88 -224q-3 -7 2.5 -10t22.5 -3zM165 79q-3 -7 -3.5 -13.5t2.5 -11t6 -8t9.5 -5.5t11.5 -3.5t14 -2.5t14.5 -1.5t14.5 -1.5q5 -4 5 -17t-5 -17q-74 2 -133 2q-20 0 -94 -2q-4 4 -4 17t4 17q20 1 31 3.5t25 9t24.5 20.5t19.5 37l217 512
q37 0 110 44l206 -572q6 -17 14.5 -28t21 -16t21 -6.5t26.5 -2.5q5 -1 7 -1q5 -4 5 -17t-5 -17q-74 2 -134 2q-97 0 -171 -2q-4 4 -4 17t4 17q6 0 15.5 0.5t15 1t13 1t11.5 2t9 3t7.5 4.5t4 7t1 9t-2.5 12l-56 163h-190q-18 0 -24.5 -3.5t-10.5 -13.5zM417 833
q19 -9 37 -24.5t28 -30.5l-3 -12l-144 -58q-17 -7 -35 -7q-7 0 -13.5 4.5t-6.5 10.5q0 12 10 21q45 39 127 96z" />
    <glyph glyph-name="Acircumflex" unicode="&#xc2;" horiz-adv-x="740" 
d="M518 724q0 -19 -16 -26q-86 26 -124 56q-45 -33 -123 -56q-14 6 -14 27q64 41 127 104l14 5q62 -62 136 -110zM273 283h152l-82 237h-7l-88 -224q-3 -7 2.5 -10t22.5 -3zM165 79q-3 -7 -3.5 -13.5t2.5 -11t6 -8t9.5 -5.5t11.5 -3.5t14 -2.5t14.5 -1.5t14.5 -1.5
q5 -4 5 -17t-5 -17q-74 2 -133 2q-20 0 -94 -2q-4 4 -4 17t4 17q20 1 31 3.5t25 9t24.5 20.5t19.5 37l217 512q37 0 110 44l206 -572q6 -17 14.5 -28t21 -16t21 -6.5t26.5 -2.5q5 -1 7 -1q5 -4 5 -17t-5 -17q-74 2 -134 2q-97 0 -171 -2q-4 4 -4 17t4 17q6 0 15.5 0.5t15 1
t13 1t11.5 2t9 3t7.5 4.5t4 7t1 9t-2.5 12l-56 163h-190q-18 0 -24.5 -3.5t-10.5 -13.5z" />
    <glyph glyph-name="Atilde" unicode="&#xc3;" horiz-adv-x="740" 
d="M273 283h152l-82 237h-7l-88 -224q-3 -7 2.5 -10t22.5 -3zM165 79q-3 -7 -3.5 -13.5t2.5 -11t6 -8t9.5 -5.5t11.5 -3.5t14 -2.5t14.5 -1.5t14.5 -1.5q5 -4 5 -17t-5 -17q-74 2 -133 2q-20 0 -94 -2q-4 4 -4 17t4 17q20 1 31 3.5t25 9t24.5 20.5t19.5 37l217 512
q37 0 110 44l206 -572q6 -17 14.5 -28t21 -16t21 -6.5t26.5 -2.5q5 -1 7 -1q5 -4 5 -17t-5 -17q-74 2 -134 2q-97 0 -171 -2q-4 4 -4 17t4 17q6 0 15.5 0.5t15 1t13 1t11.5 2t9 3t7.5 4.5t4 7t1 9t-2.5 12l-56 163h-190q-18 0 -24.5 -3.5t-10.5 -13.5zM437 762q32 0 49 43
q11 0 19.5 -5.5t8.5 -14.5q-13 -43 -38 -68t-53 -25q-37 0 -65 21q-26 17 -58 17q-13 0 -20.5 -2t-15.5 -11t-13 -27q-26 0 -26 18q13 40 35.5 66.5t47.5 26.5q43 0 74 -25q18 -14 55 -14z" />
    <glyph glyph-name="Adieresis" unicode="&#xc4;" horiz-adv-x="740" 
d="M167 697q0 24 16 40.5t40 16.5t40 -16.5t16 -40.5t-16 -40t-40 -16t-40 16t-16 40zM484 697q0 24 16.5 40.5t40.5 16.5t39.5 -16.5t15.5 -40.5t-15.5 -40t-39.5 -16t-40.5 16t-16.5 40zM273 283h152l-82 237h-7l-88 -224q-3 -7 2.5 -10t22.5 -3zM165 79q-3 -7 -3.5 -13.5
t2.5 -11t6 -8t9.5 -5.5t11.5 -3.5t14 -2.5t14.5 -1.5t14.5 -1.5q5 -4 5 -17t-5 -17q-74 2 -133 2q-20 0 -94 -2q-4 4 -4 17t4 17q20 1 31 3.5t25 9t24.5 20.5t19.5 37l217 512q37 0 110 44l206 -572q6 -17 14.5 -28t21 -16t21 -6.5t26.5 -2.5q5 -1 7 -1q5 -4 5 -17t-5 -17
q-74 2 -134 2q-97 0 -171 -2q-4 4 -4 17t4 17q6 0 15.5 0.5t15 1t13 1t11.5 2t9 3t7.5 4.5t4 7t1 9t-2.5 12l-56 163h-190q-18 0 -24.5 -3.5t-10.5 -13.5z" />
    <glyph glyph-name="Aring" unicode="&#xc5;" horiz-adv-x="740" 
d="M368 797q-21 0 -34 -14t-13 -35q0 -20 13 -34.5t34 -14.5t34.5 14.5t13.5 34.5q0 22 -14 35.5t-34 13.5zM283 748q0 34 25 58.5t60 24.5q34 0 60 -24t26 -59q0 -34 -25.5 -58.5t-60.5 -24.5t-60 24.5t-25 58.5zM273 283h152l-82 237h-7l-88 -224q-3 -7 2.5 -10t22.5 -3z
M165 79q-3 -7 -3.5 -13.5t2.5 -11t6 -8t9.5 -5.5t11.5 -3.5t14 -2.5t14.5 -1.5t14.5 -1.5q5 -4 5 -17t-5 -17q-74 2 -133 2q-20 0 -94 -2q-4 4 -4 17t4 17q20 1 31 3.5t25 9t24.5 20.5t19.5 37l217 512q37 0 110 44l206 -572q6 -17 14.5 -28t21 -16t21 -6.5t26.5 -2.5
q5 -1 7 -1q5 -4 5 -17t-5 -17q-74 2 -134 2q-97 0 -171 -2q-4 4 -4 17t4 17q6 0 15.5 0.5t15 1t13 1t11.5 2t9 3t7.5 4.5t4 7t1 9t-2.5 12l-56 163h-190q-18 0 -24.5 -3.5t-10.5 -13.5z" />
    <glyph glyph-name="AE" unicode="&#xc6;" horiz-adv-x="956" 
d="M112 102l252 460q14 26 -0.5 38.5t-51.5 12.5q-8 0 -8 7v25l2 2l207 -2h298q26 0 49 4q4 0 4 -3q1 -3 3 -30.5t4.5 -62.5t4.5 -52q-18 -9 -43 -5q-18 58 -42 82.5t-76 24.5h-85q-17 0 -29 -15t-12 -34v-187h81q53 0 71 11t20 51q5 5 22 5t21 -5q-2 -60 -2 -86
q0 -18 2 -88q-4 -5 -21 -5t-22 5q-2 35 -21 48.5t-70 13.5h-81v-227q0 -20 12 -34t29 -14h101q105 0 141 128q25 6 45 -5q-2 -15 -6.5 -51.5t-9.5 -65t-11 -50.5q-90 2 -138 2h-236q-105 -1 -154 -2q-4 4 -4 17t4 17q56 2 71.5 16.5t15.5 73.5v144h-178l-101 -187
q-3 -10 -5 -17t5 -12t12.5 -8t17 -5t19.5 -3t20 -2q5 -4 5 -17t-5 -17q-74 2 -133 2q-20 0 -94 -2q-4 4 -4 17t4 17q36 2 57 15.5t43 54.5zM297 316h152v229q0 13 -3.5 19t-10.5 1.5t-15 -19.5z" />
    <glyph glyph-name="Ccedilla" unicode="&#xc7;" horiz-adv-x="706" 
d="M301 -105l-6 6l46 91q-111 9 -183 61q-58 41 -89.5 114t-31.5 148q0 80 29 146t78.5 108.5t114.5 65.5t139 23q54 0 97 -10t73.5 -21.5t48.5 -13.5q17 -105 22 -155q-22 -12 -43 -5q-11 36 -25 62.5t-37 51t-60 37.5t-87 13q-88 0 -143.5 -82t-55.5 -201q0 -77 27.5 -144
t75.5 -107.5t105 -40.5q127 0 222 104q8 0 18.5 -7t14.5 -14q-103 -135 -254 -135h-22l-15 -35q93 -19 93 -84q0 -38 -34 -64t-83 -26q-32 0 -64 17q0 21 10 26q38 -14 58 -14q50 0 50 41q0 39 -89 44z" />
    <glyph glyph-name="Egrave" unicode="&#xc8;" horiz-adv-x="609" 
d="M323 365q52 0 70.5 12t20.5 52q4 5 21 5t22 -5q-2 -60 -2 -86q0 -18 2 -88q-5 -5 -22 -5t-21 5q-2 35 -21.5 49.5t-69.5 14.5h-81v-229q0 -20 12 -34t29 -14h101q105 0 141 128q26 6 45 -5q-2 -15 -6.5 -51.5t-9.5 -65t-11 -50.5q-90 2 -138 2h-235q-106 -1 -155 -2
q-5 4 -5 17t5 17q56 2 71.5 16.5t15.5 73.5v400q0 60 -15.5 74.5t-71.5 16.5q-5 5 -5 17t5 17l154 -2h295q26 0 49 4q4 0 4 -3q1 -3 3 -30.5t4.5 -62.5t4.5 -52q-18 -9 -43 -5q-18 58 -42 82.5t-76 24.5h-85q-17 0 -29 -15t-12 -34v-189h81zM221 830q-44 -21 -65 -55l3 -12
l144 -58q16 -7 35 -7q7 0 13.5 4.5t6.5 10.5q0 13 -10 21q-45 39 -127 96z" />
    <glyph glyph-name="Eacute" unicode="&#xc9;" horiz-adv-x="609" 
d="M323 365q52 0 70.5 12t20.5 52q4 5 21 5t22 -5q-2 -60 -2 -86q0 -18 2 -88q-5 -5 -22 -5t-21 5q-2 35 -21.5 49.5t-69.5 14.5h-81v-229q0 -20 12 -34t29 -14h101q105 0 141 128q26 6 45 -5q-2 -15 -6.5 -51.5t-9.5 -65t-11 -50.5q-90 2 -138 2h-235q-106 -1 -155 -2
q-5 4 -5 17t5 17q56 2 71.5 16.5t15.5 73.5v400q0 60 -15.5 74.5t-71.5 16.5q-5 5 -5 17t5 17l154 -2h295q26 0 49 4q4 0 4 -3q1 -3 3 -30.5t4.5 -62.5t4.5 -52q-18 -9 -43 -5q-18 58 -42 82.5t-76 24.5h-85q-17 0 -29 -15t-12 -34v-189h81zM343 833q43 -20 65 -55l-3 -12
l-144 -58q-18 -7 -35 -7q-7 0 -13.5 4.5t-6.5 10.5q0 12 10 21q45 39 127 96z" />
    <glyph glyph-name="Ecircumflex" unicode="&#xca;" horiz-adv-x="609" 
d="M323 365q52 0 70.5 12t20.5 52q4 5 21 5t22 -5q-2 -60 -2 -86q0 -18 2 -88q-5 -5 -22 -5t-21 5q-2 35 -21.5 49.5t-69.5 14.5h-81v-229q0 -20 12 -34t29 -14h101q105 0 141 128q26 6 45 -5q-2 -15 -6.5 -51.5t-9.5 -65t-11 -50.5q-90 2 -138 2h-235q-106 -1 -155 -2
q-5 4 -5 17t5 17q56 2 71.5 16.5t15.5 73.5v400q0 60 -15.5 74.5t-71.5 16.5q-5 5 -5 17t5 17l154 -2h295q26 0 49 4q4 0 4 -3q1 -3 3 -30.5t4.5 -62.5t4.5 -52q-18 -9 -43 -5q-18 58 -42 82.5t-76 24.5h-85q-17 0 -29 -15t-12 -34v-189h81zM454 724q0 -19 -16 -26
q-86 26 -124 56q-45 -33 -123 -56q-14 6 -14 27q64 41 127 104l14 5q62 -62 136 -110z" />
    <glyph glyph-name="Edieresis" unicode="&#xcb;" horiz-adv-x="609" 
d="M323 365q52 0 70.5 12t20.5 52q4 5 21 5t22 -5q-2 -60 -2 -86q0 -18 2 -88q-5 -5 -22 -5t-21 5q-2 35 -21.5 49.5t-69.5 14.5h-81v-229q0 -20 12 -34t29 -14h101q105 0 141 128q26 6 45 -5q-2 -15 -6.5 -51.5t-9.5 -65t-11 -50.5q-90 2 -138 2h-235q-106 -1 -155 -2
q-5 4 -5 17t5 17q56 2 71.5 16.5t15.5 73.5v400q0 60 -15.5 74.5t-71.5 16.5q-5 5 -5 17t5 17l154 -2h295q26 0 49 4q4 0 4 -3q1 -3 3 -30.5t4.5 -62.5t4.5 -52q-18 -9 -43 -5q-18 58 -42 82.5t-76 24.5h-85q-17 0 -29 -15t-12 -34v-189h81zM150 783q0 24 16 40.5t40 16.5
t40 -16.5t16 -40.5t-16 -40t-40 -16t-40 16t-16 40zM337 783q0 24 16.5 40.5t40.5 16.5t39.5 -16.5t15.5 -40.5t-15.5 -40t-39.5 -16t-40.5 16t-16.5 40z" />
    <glyph glyph-name="Igrave" unicode="&#xcc;" horiz-adv-x="367" 
d="M114 523q0 30 -4.5 48.5t-17 27t-24.5 11t-37 3.5q-7 5 -7 17t7 17q80 -2 154 -2q72 0 152 2q7 -5 7 -17t-7 -17q-25 -1 -37 -3.5t-24.5 -11t-17 -27t-4.5 -48.5v-401q0 -30 4.5 -48.5t17 -27t24.5 -11t37 -3.5q7 -4 7 -17t-7 -17q-80 2 -152 2q-74 0 -154 -2q-7 4 -7 17
t7 17q25 1 37 3.5t24.5 11t17 27t4.5 48.5v401zM131 830q-44 -21 -65 -55l3 -12l144 -58q16 -7 35 -7q7 0 13.5 4.5t6.5 10.5q0 13 -10 21q-45 39 -127 96z" />
    <glyph glyph-name="Iacute" unicode="&#xcd;" horiz-adv-x="367" 
d="M114 523q0 30 -4.5 48.5t-17 27t-24.5 11t-37 3.5q-7 5 -7 17t7 17q80 -2 154 -2q72 0 152 2q7 -5 7 -17t-7 -17q-25 -1 -37 -3.5t-24.5 -11t-17 -27t-4.5 -48.5v-401q0 -30 4.5 -48.5t17 -27t24.5 -11t37 -3.5q7 -4 7 -17t-7 -17q-80 2 -152 2q-74 0 -154 -2q-7 4 -7 17
t7 17q25 1 37 3.5t24.5 11t17 27t4.5 48.5v401zM223 833q43 -20 65 -55l-3 -12l-144 -58q-18 -7 -35 -7q-7 0 -13.5 4.5t-6.5 10.5q0 12 10 21q45 39 127 96z" />
    <glyph glyph-name="Icircumflex" unicode="&#xce;" horiz-adv-x="367" 
d="M114 523q0 30 -4.5 48.5t-17 27t-24.5 11t-37 3.5q-7 5 -7 17t7 17q80 -2 154 -2q72 0 152 2q7 -5 7 -17t-7 -17q-25 -1 -37 -3.5t-24.5 -11t-17 -27t-4.5 -48.5v-401q0 -30 4.5 -48.5t17 -27t24.5 -11t37 -3.5q7 -4 7 -17t-7 -17q-80 2 -152 2q-74 0 -154 -2q-7 4 -7 17
t7 17q25 1 37 3.5t24.5 11t17 27t4.5 48.5v401zM317 724q0 -19 -16 -26q-86 26 -124 56q-45 -33 -123 -56q-14 6 -14 27q64 41 127 104l14 5q62 -62 136 -110z" />
    <glyph glyph-name="Idieresis" unicode="&#xcf;" horiz-adv-x="367" 
d="M114 523q0 30 -4.5 48.5t-17 27t-24.5 11t-37 3.5q-7 5 -7 17t7 17q80 -2 154 -2q72 0 152 2q7 -5 7 -17t-7 -17q-25 -1 -37 -3.5t-24.5 -11t-17 -27t-4.5 -48.5v-401q0 -30 4.5 -48.5t17 -27t24.5 -11t37 -3.5q7 -4 7 -17t-7 -17q-80 2 -152 2q-74 0 -154 -2q-7 4 -7 17
t7 17q25 1 37 3.5t24.5 11t17 27t4.5 48.5v401zM35 766q0 24 16 40.5t40 16.5t40 -16.5t16 -40.5t-16 -40t-40 -16t-40 16t-16 40zM222 766q0 24 16.5 40.5t40.5 16.5t39.5 -16.5t15.5 -40.5t-15.5 -40t-39.5 -16t-40.5 16t-16.5 40z" />
    <glyph glyph-name="Eth" unicode="&#xd0;" horiz-adv-x="734" 
d="M254 119q0 -48 20.5 -63.5t75.5 -15.5q31 0 61.5 13t59 40t46.5 76.5t18 114.5q0 52 -3.5 92t-17 85t-36 74.5t-64 49t-98.5 19.5q-62 0 -62 -75v-203q55 1 104 4l-10 -50q-43 2 -94 3v-164zM185 0l-154 -2q-7 4 -7 16.5t7 17.5q25 1 37 3.5t24.5 11t17 27t4.5 48.5v161
q-49 0 -97 -3l10 50q42 -2 87 -3v196q0 30 -4.5 48.5t-17 27t-24.5 11t-37 3.5q-7 5 -7 17t7 17q114 -2 154 -2q18 0 62.5 0.5t72.5 0.5q177 0 271.5 -95t94.5 -242q0 -75 -22 -135t-59 -92q-96 -84 -258 -84q-20 0 -81 1t-81 1z" />
    <glyph glyph-name="Ntilde" unicode="&#xd1;" horiz-adv-x="740" 
d="M631 0q-25 -12 -63 -12q-21 19 -40 44l-335 398q-17 20 -24 20q-8 0 -8 -20v-297q0 -35 3 -53.5t15 -28.5t25 -13t44 -6q5 -4 5 -17t-5 -17q-100 2 -112 2q-14 0 -112 -2q-4 4 -4 17t4 17q30 3 43.5 6t25.5 13.5t15 29t3 52.5v417q-5 22 -27 41.5t-52 21.5q-4 5 -4 17
t4 17l163 -2l89 -105l265 -312q12 -14 19 -14.5t8 17.5v281q0 46 -8.5 66t-23.5 25.5t-55 9.5q-5 5 -5 17t5 17q100 -2 116 -2q10 0 108 2q5 -5 5 -17t-5 -17q-40 -4 -55 -10t-23.5 -26t-8.5 -65v-410zM432 783q32 0 49 43q11 0 19.5 -5.5t8.5 -14.5q-13 -43 -38 -68
t-53 -25q-37 0 -65 21q-26 17 -58 17q-13 0 -20.5 -2t-15.5 -11t-13 -27q-26 0 -26 18q13 40 35.5 66.5t47.5 26.5q43 0 74 -25q18 -14 55 -14z" />
    <glyph glyph-name="Ograve" unicode="&#xd2;" horiz-adv-x="730" 
d="M351 616q-72 0 -117.5 -71t-45.5 -216q0 -137 55.5 -217t140.5 -80q75 0 117 75t42 201q0 147 -54 227.5t-138 80.5zM694 329q0 -147 -86 -240q-92 -99 -244 -99q-64 0 -123 22.5t-104.5 62.5t-72.5 101t-27 133q0 140 81 237q44 53 107.5 82.5t137.5 29.5
q140 0 235.5 -91.5t95.5 -237.5zM311 830q-44 -21 -65 -55l3 -12l144 -58q16 -7 35 -7q7 0 13.5 4.5t6.5 10.5q0 13 -10 21q-45 39 -127 96z" />
    <glyph glyph-name="Oacute" unicode="&#xd3;" horiz-adv-x="730" 
d="M351 616q-72 0 -117.5 -71t-45.5 -216q0 -137 55.5 -217t140.5 -80q75 0 117 75t42 201q0 147 -54 227.5t-138 80.5zM694 329q0 -147 -86 -240q-92 -99 -244 -99q-64 0 -123 22.5t-104.5 62.5t-72.5 101t-27 133q0 140 81 237q44 53 107.5 82.5t137.5 29.5
q140 0 235.5 -91.5t95.5 -237.5zM403 833q19 -9 37 -24.5t28 -30.5l-3 -12l-144 -58q-18 -7 -35 -7q-7 0 -13.5 4.5t-6.5 10.5q0 12 10 21q45 39 127 96z" />
    <glyph glyph-name="Ocircumflex" unicode="&#xd4;" horiz-adv-x="730" 
d="M351 616q-72 0 -117.5 -71t-45.5 -216q0 -137 55.5 -217t140.5 -80q75 0 117 75t42 201q0 147 -54 227.5t-138 80.5zM694 329q0 -147 -86 -240q-92 -99 -244 -99q-64 0 -123 22.5t-104.5 62.5t-72.5 101t-27 133q0 140 81 237q44 53 107.5 82.5t137.5 29.5
q140 0 235.5 -91.5t95.5 -237.5zM504 724q0 -19 -16 -26q-86 26 -124 56q-45 -33 -123 -56q-14 6 -14 27q64 41 127 104l14 5q62 -62 136 -110z" />
    <glyph glyph-name="Otilde" unicode="&#xd5;" horiz-adv-x="730" 
d="M425 762q32 0 49 43q11 0 19.5 -5.5t8.5 -14.5q-13 -43 -38 -68t-53 -25q-37 0 -65 21q-26 17 -58 17q-13 0 -20.5 -2t-15.5 -11t-13 -27q-26 0 -26 18q13 40 35.5 66.5t47.5 26.5q43 0 74 -25q18 -14 55 -14zM351 616q-72 0 -117.5 -71t-45.5 -216q0 -137 55.5 -217
t140.5 -80q75 0 117 75t42 201q0 147 -54 227.5t-138 80.5zM694 329q0 -147 -86 -240q-92 -99 -244 -99q-64 0 -123 22.5t-104.5 62.5t-72.5 101t-27 133q0 140 81 237q44 53 107.5 82.5t137.5 29.5q140 0 235.5 -91.5t95.5 -237.5z" />
    <glyph glyph-name="Odieresis" unicode="&#xd6;" horiz-adv-x="730" 
d="M80 717q0 24 16 40.5t40 16.5t40 -16.5t16 -40.5t-16 -40t-40 -16t-40 16t-16 40zM539 717q0 24 16.5 40.5t40.5 16.5t39.5 -16.5t15.5 -40.5t-15.5 -40t-39.5 -16t-40.5 16t-16.5 40zM351 616q-72 0 -117.5 -71t-45.5 -216q0 -137 55.5 -217t140.5 -80q75 0 117 75
t42 201q0 147 -54 227.5t-138 80.5zM694 329q0 -147 -86 -240q-92 -99 -244 -99q-64 0 -123 22.5t-104.5 62.5t-72.5 101t-27 133q0 140 81 237q44 53 107.5 82.5t137.5 29.5q140 0 235.5 -91.5t95.5 -237.5z" />
    <glyph glyph-name="multiply" unicode="&#xd7;" horiz-adv-x="527" 
d="M306 232l120 -121l-43 -42l-121 118l-118 -118l-41 42l118 116l-118 119l44 47l119 -120l116 120l44 -42z" />
    <glyph glyph-name="Oslash" unicode="&#xd8;" horiz-adv-x="730" 
d="M88 -45l-36 31l78 96q-93 89 -93 227q0 140 81 237q44 53 107.5 82.5t137.5 29.5q107 0 190 -55l55 67l37 -29l-54 -67q103 -93 103 -245q0 -147 -86 -240q-92 -99 -244 -99q-111 0 -198 62zM351 616q-72 0 -117.5 -71t-45.5 -216q0 -83 22 -149l283 349q-53 87 -142 87z
M516 482l-285 -350q27 -49 66.5 -74.5t86.5 -25.5q75 0 117 75t42 201q0 101 -27 174z" />
    <glyph glyph-name="Ugrave" unicode="&#xd9;" horiz-adv-x="732" 
d="M227 522v-253q0 -42 2 -68.5t14 -61.5t35 -57q52 -50 119 -50q49 0 84 15.5t54 38t30 57.5t13.5 64.5t2.5 69.5v245q0 21 -1 35t-6.5 24t-10 15t-17.5 9t-23.5 5t-33.5 3q-4 5 -4 17t4 17q92 -2 127 -2q29 0 107 2q5 -5 5 -17t-5 -17q-27 -3 -38 -5.5t-22 -11.5t-14 -26
t-3 -48v-227q0 -70 -13.5 -123.5t-44 -95.5t-84 -64t-128.5 -22q-137 0 -202 42q-87 57 -87 204v286q0 59 -14.5 74t-62.5 17q-4 5 -4 17t4 17q100 -2 146 -2q65 0 163 2q5 -5 5 -17t-5 -17q-60 -2 -76 -16.5t-16 -74.5zM311 830q-44 -21 -65 -55l3 -12l144 -58q16 -7 35 -7
q7 0 13.5 4.5t6.5 10.5q0 13 -10 21q-45 39 -127 96z" />
    <glyph glyph-name="Uacute" unicode="&#xda;" horiz-adv-x="732" 
d="M227 522v-253q0 -42 2 -68.5t14 -61.5t35 -57q52 -50 119 -50q49 0 84 15.5t54 38t30 57.5t13.5 64.5t2.5 69.5v245q0 21 -1 35t-6.5 24t-10 15t-17.5 9t-23.5 5t-33.5 3q-4 5 -4 17t4 17q92 -2 127 -2q29 0 107 2q5 -5 5 -17t-5 -17q-27 -3 -38 -5.5t-22 -11.5t-14 -26
t-3 -48v-227q0 -70 -13.5 -123.5t-44 -95.5t-84 -64t-128.5 -22q-137 0 -202 42q-87 57 -87 204v286q0 59 -14.5 74t-62.5 17q-4 5 -4 17t4 17q100 -2 146 -2q65 0 163 2q5 -5 5 -17t-5 -17q-60 -2 -76 -16.5t-16 -74.5zM443 833q19 -9 37 -24.5t28 -30.5l-3 -12l-144 -58
q-17 -7 -35 -7q-7 0 -13.5 4.5t-6.5 10.5q0 12 10 21q45 39 127 96z" />
    <glyph glyph-name="Ucircumflex" unicode="&#xdb;" horiz-adv-x="732" 
d="M227 522v-253q0 -42 2 -68.5t14 -61.5t35 -57q52 -50 119 -50q49 0 84 15.5t54 38t30 57.5t13.5 64.5t2.5 69.5v245q0 21 -1 35t-6.5 24t-10 15t-17.5 9t-23.5 5t-33.5 3q-4 5 -4 17t4 17q92 -2 127 -2q29 0 107 2q5 -5 5 -17t-5 -17q-27 -3 -38 -5.5t-22 -11.5t-14 -26
t-3 -48v-227q0 -70 -13.5 -123.5t-44 -95.5t-84 -64t-128.5 -22q-137 0 -202 42q-87 57 -87 204v286q0 59 -14.5 74t-62.5 17q-4 5 -4 17t4 17q100 -2 146 -2q65 0 163 2q5 -5 5 -17t-5 -17q-60 -2 -76 -16.5t-16 -74.5zM524 724q0 -19 -16 -26q-86 26 -124 56
q-45 -33 -123 -56q-14 6 -14 27q64 41 127 104l14 5q62 -62 136 -110z" />
    <glyph glyph-name="Udieresis" unicode="&#xdc;" horiz-adv-x="732" 
d="M263 697q0 24 16 40.5t40 16.5t40 -16.5t16 -40.5t-16 -40t-40 -16t-40 16t-16 40zM430 697q0 24 16.5 40.5t40.5 16.5t39.5 -16.5t15.5 -40.5t-15.5 -40t-39.5 -16t-40.5 16t-16.5 40zM227 522v-253q0 -42 2 -68.5t14 -61.5t35 -57q52 -50 119 -50q49 0 84 15.5t54 38
t30 57.5t13.5 64.5t2.5 69.5v245q0 40 -3 59t-6.5 23.5t-12.5 8.5q-4 5 -4 17t4 17q38 -2 57 -2q9 0 107 2q5 -5 5 -17t-5 -17q-19 -2 -27 -3.5t-19.5 -5t-15 -8.5t-8.5 -15t-6 -24t-1 -35v-227q0 -70 -13.5 -123.5t-44 -95.5t-84 -64t-128.5 -22q-137 0 -202 42
q-87 57 -87 204v286q0 59 -14.5 74t-62.5 17q-4 5 -4 17t4 17q100 -2 146 -2q55 0 93 2q5 -5 5 -17t-5 -17q-14 -2 -18 -17t-4 -74z" />
    <glyph glyph-name="Yacute" unicode="&#xdd;" horiz-adv-x="653" 
d="M387 122q0 -32 3 -49t16 -26t28.5 -11.5t49.5 -3.5q4 -4 4 -17t-4 -17q-100 2 -159 2q-77 0 -175 -2q-5 4 -5 17t5 17q34 1 49.5 3.5t28.5 11.5t16 26t3 49v137q0 27 -3.5 38.5t-16.5 34.5l-127 215q-24 40 -42 52t-52 14q-5 5 -5 17t4 17q60 -2 142 -2q44 0 124 2
q4 -5 4 -17t-4 -17q-40 -2 -46.5 -15t11.5 -41l104 -184q13 -22 23 -3l103 194q12 22 -2 34.5t-49 14.5q-5 5 -5 17t5 17q80 -2 111 -2q33 0 93 2q5 -5 5 -17t-5 -17q-36 -3 -53 -12t-34 -36l-128 -214q-17 -28 -17 -83v-146zM413 833q19 -9 37 -24.5t28 -30.5l-3 -12
l-144 -58q-18 -7 -35 -7q-7 0 -13.5 4.5t-6.5 10.5q0 12 10 21q45 39 127 96z" />
    <glyph glyph-name="Thorn" unicode="&#xde;" horiz-adv-x="616" 
d="M114 523q0 30 -4.5 48.5t-17 27t-24.5 11t-37 3.5q-7 5 -7 17t7 17q80 -2 154 -2q72 0 152 2q8 -5 8 -17t-8 -17q-25 -1 -37 -3.5t-24.5 -11t-17 -27t-4.5 -48.5v-2q37 2 98 2q53 0 94.5 -12t66.5 -30.5t41 -43.5t22 -48t6 -46q0 -30 -13.5 -62t-41 -62t-76.5 -49.5
t-112 -19.5q-65 0 -85 6v-34q0 -30 4.5 -48.5t17 -27t24.5 -11t37 -3.5q7 -4 7 -17t-7 -17q-80 2 -152 2q-74 0 -154 -2q-7 4 -7 17t7 17q25 1 37 3.5t24.5 11t17 27t4.5 48.5v401zM254 194q20 -3 68 -3q55 0 82 36t27 116q0 67 -23 103t-68 36q-8 0 -41 -2t-45 -2v-284z
" />
    <glyph glyph-name="germandbls" unicode="&#xdf;" horiz-adv-x="615" 
d="M100 126v242q0 9 -2.5 12t-12.5 4l-44 5q-11 1 -11 5v20q0 7 8 13.5t20 6.5q42 0 42 48q0 47 18 85.5t45.5 62t61.5 39.5t64.5 22.5t55.5 6.5q73 0 111 -20q30 -16 47.5 -46t17.5 -55q0 -64 -45 -110q-5 -5 -10.5 -9.5t-10 -8t-12.5 -8t-11 -6.5t-13 -6.5t-12 -5.5
t-14 -6.5t-13 -5.5v-2q79 -27 136.5 -90.5t57.5 -145.5q0 -78 -50.5 -130.5t-120.5 -52.5q-58 0 -87.5 32t-29.5 76q0 16 12.5 32t31.5 16t34 -11.5t15 -28.5q0 -10 -7.5 -26t-7.5 -27q0 -9 12.5 -15t26.5 -6q29 0 29 124q0 73 -26 128.5t-87 101.5v23q46 36 56.5 64.5
t10.5 90.5q0 92 -60 92q-50 0 -73 -59t-23 -150v-319q0 -86 27 -96q5 -4 5 -17t-5 -17q-23 2 -92 2q-58 0 -142 -2q-5 4 -5 17t5 17q48 2 62.5 18.5t14.5 75.5z" />
    <glyph glyph-name="agrave" unicode="&#xe0;" horiz-adv-x="506" 
d="M295 48h-6q-27 -21 -63.5 -39.5t-56.5 -18.5q-125 0 -125 105q0 29 12 50.5t39 38t54.5 27.5t73.5 25l67 21q0 46 -6 76t-17.5 44.5t-23.5 19.5t-30 5q-39 0 -42 -23q-2 -10 1 -26t3 -21q0 -19 -18 -32.5t-44 -13.5q-51 0 -51 50q0 31 31.5 57t73.5 38.5t80 12.5
q171 0 171 -173l-2 -144q0 -37 6 -52t22 -15q24 0 42 14q15 -11 18 -28q-59 -56 -131 -56q-68 0 -78 58zM290 218l-52 -17q-25 -8 -41 -18t-22.5 -23t-8.5 -23t-2 -27q0 -26 14 -43t44 -17q23 0 68 36v132zM216 674l69 -124q9 -16 9 -26q0 -7 -5 -11.5t-12 -4.5
q-12 0 -35 20l-121 105l2 11q9 10 29 21t44 11q12 0 20 -2z" />
    <glyph glyph-name="aacute" unicode="&#xe1;" horiz-adv-x="506" 
d="M256 674q6 2 16 2q38 0 57 -24l10 -23l-120 -108q-19 -16 -38 -16q-6 0 -11 4.5t-5 9.5q0 12 8 24zM295 48h-6q-27 -21 -63.5 -39.5t-56.5 -18.5q-125 0 -125 105q0 29 12 50.5t39 38t54.5 27.5t73.5 25l67 21q0 46 -6 76t-17.5 44.5t-23.5 19.5t-30 5q-39 0 -42 -23
q-2 -10 1 -26t3 -21q0 -19 -18 -32.5t-44 -13.5q-51 0 -51 50q0 31 31.5 57t73.5 38.5t80 12.5q171 0 171 -173l-2 -144q0 -37 6 -52t22 -15q24 0 42 14q15 -11 18 -28q-59 -56 -131 -56q-68 0 -78 58zM290 218l-52 -17q-25 -8 -41 -18t-22.5 -23t-8.5 -23t-2 -27
q0 -26 14 -43t44 -17q23 0 68 36v132z" />
    <glyph glyph-name="acircumflex" unicode="&#xe2;" horiz-adv-x="506" 
d="M269 663q34 -55 105 -134l-25 -19q-67 40 -107 83q-37 -38 -106 -83l-25 19q77 88 106 134h52zM295 48h-6q-27 -21 -63.5 -39.5t-56.5 -18.5q-125 0 -125 105q0 29 12 50.5t39 38t54.5 27.5t73.5 25l67 21q0 46 -6 76t-17.5 44.5t-23.5 19.5t-30 5q-39 0 -42 -23
q-2 -10 1 -26t3 -21q0 -19 -18 -32.5t-44 -13.5q-51 0 -51 50q0 31 31.5 57t73.5 38.5t80 12.5q171 0 171 -173l-2 -144q0 -37 6 -52t22 -15q24 0 42 14q15 -11 18 -28q-59 -56 -131 -56q-68 0 -78 58zM290 218l-52 -17q-25 -8 -41 -18t-22.5 -23t-8.5 -23t-2 -27
q0 -26 14 -43t44 -17q23 0 68 36v132z" />
    <glyph glyph-name="atilde" unicode="&#xe3;" horiz-adv-x="506" 
d="M298 589q32 0 49 43q11 0 19.5 -5.5t8.5 -14.5q-13 -43 -38 -68t-53 -25q-37 0 -65 21q-26 17 -58 17q-13 0 -20.5 -2t-15.5 -11t-13 -27q-26 0 -26 18q13 40 35.5 66.5t47.5 26.5q43 0 74 -25q18 -14 55 -14zM295 48h-6q-27 -21 -63.5 -39.5t-56.5 -18.5
q-125 0 -125 105q0 29 12 50.5t39 38t54.5 27.5t73.5 25l67 21q0 46 -6 76t-17.5 44.5t-23.5 19.5t-30 5q-39 0 -42 -23q-2 -10 1 -26t3 -21q0 -19 -18 -32.5t-44 -13.5q-51 0 -51 50q0 31 31.5 57t73.5 38.5t80 12.5q171 0 171 -173l-2 -144q0 -37 6 -52t22 -15q24 0 42 14
q15 -11 18 -28q-59 -56 -131 -56q-68 0 -78 58zM290 218l-52 -17q-25 -8 -41 -18t-22.5 -23t-8.5 -23t-2 -27q0 -26 14 -43t44 -17q23 0 68 36v132z" />
    <glyph glyph-name="adieresis" unicode="&#xe4;" horiz-adv-x="506" 
d="M276 573q0 23 16 39t39 16t39 -16t16 -39q0 -22 -16 -38t-39 -16t-39 15.5t-16 38.5zM90 573q0 23 16 39t39 16t39 -16t16 -39t-16 -38.5t-39 -15.5t-39 16t-16 38zM295 48h-6q-27 -21 -63.5 -39.5t-56.5 -18.5q-125 0 -125 105q0 29 12 50.5t39 38t54.5 27.5t73.5 25
l67 21q0 46 -6 76t-17.5 44.5t-23.5 19.5t-30 5q-39 0 -42 -23q-2 -10 1 -26t3 -21q0 -19 -18 -32.5t-44 -13.5q-51 0 -51 50q0 31 31.5 57t73.5 38.5t80 12.5q171 0 171 -173l-2 -144q0 -37 6 -52t22 -15q24 0 42 14q15 -11 18 -28q-59 -56 -131 -56q-68 0 -78 58zM290 218
l-52 -17q-25 -8 -41 -18t-22.5 -23t-8.5 -23t-2 -27q0 -26 14 -43t44 -17q23 0 68 36v132z" />
    <glyph glyph-name="aring" unicode="&#xe5;" horiz-adv-x="506" 
d="M222 631q-21 0 -34 -14t-13 -35q0 -20 13 -34.5t34 -14.5t34.5 14.5t13.5 34.5q0 22 -14 35.5t-34 13.5zM137 582q0 34 25 58.5t60 24.5q34 0 60 -24t26 -59q0 -34 -25.5 -58.5t-60.5 -24.5t-60 24.5t-25 58.5zM295 48h-6q-27 -21 -63.5 -39.5t-56.5 -18.5
q-125 0 -125 105q0 29 12 50.5t39 38t54.5 27.5t73.5 25l67 21q0 46 -6 76t-17.5 44.5t-23.5 19.5t-30 5q-39 0 -42 -23q-2 -10 1 -26t3 -21q0 -19 -18 -32.5t-44 -13.5q-51 0 -51 50q0 31 31.5 57t73.5 38.5t80 12.5q171 0 171 -173l-2 -144q0 -37 6 -52t22 -15q24 0 42 14
q15 -11 18 -28q-59 -56 -131 -56q-68 0 -78 58zM290 218l-52 -17q-25 -8 -41 -18t-22.5 -23t-8.5 -23t-2 -27q0 -26 14 -43t44 -17q23 0 68 36v132z" />
    <glyph glyph-name="ae" unicode="&#xe6;" horiz-adv-x="715" 
d="M502 402q-67 0 -84 -147q9 1 29.5 2t30.5 1.5t26.5 2t25.5 3.5t20 4.5t18 6t11 8.5q0 51 -19 85t-58 34zM284 93q2 4 3.5 12.5t2 22t0.5 24t0.5 29.5t0.5 28q-68 -9 -104 -35.5t-36 -62.5q0 -25 5 -39q11 -32 41 -32q23 0 48.5 12.5t38.5 40.5zM524 71q34 0 75.5 14.5
t69.5 43.5q7 0 11 -10t4 -21q-74 -108 -177 -108q-81 0 -121 28q-1 1 -7 5l-7.5 5t-6.5 5t-7 6l-5.5 5.5t-6 6.5t-5 7.5t-4.5 8.5q-29 -37 -78 -57t-77 -20q-66 0 -98 22q-21 14 -34 37.5t-13 49.5q0 62 64.5 100.5t189.5 48.5q0 154 -73 154q-63 0 -63 -31q0 -11 3.5 -24.5
t3.5 -18.5q0 -14 -13.5 -27.5t-43.5 -13.5q-25 0 -38.5 15.5t-13.5 36.5q0 43 54.5 74t112.5 31q47 0 88.5 -16.5t59.5 -53.5q28 40 63 55t82 15q171 0 171 -149q0 -12 -2 -28.5t-2 -20.5q-17 -11 -59.5 -17.5t-77.5 -8t-101 -2.5q-17 -1 -26 -1q1 -73 30.5 -109.5
t77.5 -36.5z" />
    <glyph glyph-name="ccedilla" unicode="&#xe7;" horiz-adv-x="456" 
d="M173 -101l-6 6l44 87q-68 8 -112 50q-62 58 -62 159q0 108 65 175.5t157 67.5q76 0 119.5 -33t43.5 -71q0 -24 -15.5 -40t-39.5 -16t-42 13.5t-20 33.5q-3 29 -16.5 50t-38.5 21q-78 0 -78 -166q0 -86 37 -130t97 -44q42 0 103 56q13 0 13 -31q-29 -42 -76 -69.5
t-91 -27.5h-10l-13 -31q93 -19 93 -84q0 -38 -34 -64t-83 -26q-32 0 -64 17q0 21 10 26q38 -14 58 -14q50 0 50 41q0 39 -89 44z" />
    <glyph glyph-name="egrave" unicode="&#xe8;" horiz-adv-x="489" 
d="M230 674l69 -124q9 -16 9 -26q0 -7 -5 -11.5t-12 -4.5q-12 0 -35 20l-121 105l2 11q9 10 29 21t44 11q12 0 20 -2zM177 275h136q2 2 2 21q0 54 -19.5 80t-44.5 26q-11 0 -27 -9t-27 -25q-18 -27 -20 -93zM431 129q7 0 11 -10t4 -21q-37 -53 -85.5 -80.5t-101.5 -27.5
q-103 0 -158 50q-64 58 -64 158q0 109 70 177.5t155 68.5q53 0 90 -15.5t55.5 -42.5t26.5 -56t8 -64q0 -31 -29 -31h-240q0 -2 -0.5 -7t-0.5 -9q0 -72 33 -107.5t93 -35.5q81 0 133 53z" />
    <glyph glyph-name="eacute" unicode="&#xe9;" horiz-adv-x="489" 
d="M282 674q6 2 16 2q38 0 57 -24l10 -23l-120 -108q-19 -16 -38 -16q-6 0 -11 4.5t-5 9.5q0 12 8 24zM177 275h136q2 2 2 21q0 54 -19.5 80t-44.5 26q-11 0 -27 -9t-27 -25q-18 -27 -20 -93zM431 129q7 0 11 -10t4 -21q-37 -53 -85.5 -80.5t-101.5 -27.5q-103 0 -158 50
q-64 58 -64 158q0 109 70 177.5t155 68.5q53 0 90 -15.5t55.5 -42.5t26.5 -56t8 -64q0 -31 -29 -31h-240q0 -2 -0.5 -7t-0.5 -9q0 -72 33 -107.5t93 -35.5q81 0 133 53z" />
    <glyph glyph-name="ecircumflex" unicode="&#xea;" horiz-adv-x="489" 
d="M269 663q34 -55 105 -134l-25 -19q-67 40 -107 83q-37 -38 -106 -83l-25 19q77 88 106 134h52zM177 275h136q2 2 2 21q0 54 -19.5 80t-44.5 26q-11 0 -27 -9t-27 -25q-18 -27 -20 -93zM431 129q7 0 11 -10t4 -21q-37 -53 -85.5 -80.5t-101.5 -27.5q-103 0 -158 50
q-64 58 -64 158q0 109 70 177.5t155 68.5q53 0 90 -15.5t55.5 -42.5t26.5 -56t8 -64q0 -31 -29 -31h-240q0 -2 -0.5 -7t-0.5 -9q0 -72 33 -107.5t93 -35.5q81 0 133 53z" />
    <glyph glyph-name="edieresis" unicode="&#xeb;" horiz-adv-x="489" 
d="M282 573q0 23 16 39t39 16t39 -16t16 -39q0 -22 -16 -38t-39 -16t-39 15.5t-16 38.5zM96 573q0 23 16 39t39 16t39 -16t16 -39t-16 -38.5t-39 -15.5t-39 16t-16 38zM177 279h136q2 2 2 21q0 54 -19.5 80t-44.5 26q-11 0 -27 -9t-27 -25q-18 -27 -20 -93zM431 133
q7 0 11 -10t4 -21q-37 -53 -85.5 -80.5t-101.5 -27.5q-103 0 -158 50q-64 58 -64 158q0 109 70 177.5t155 68.5q53 0 90 -15.5t55.5 -42.5t26.5 -56t8 -64q0 -31 -29 -31h-240q0 -2 -0.5 -7t-0.5 -9q0 -72 33 -107.5t93 -35.5q81 0 133 53z" />
    <glyph glyph-name="igrave" unicode="&#xec;" horiz-adv-x="322" 
d="M119 674l69 -124q9 -16 9 -26q0 -7 -5 -11.5t-12 -4.5q-12 0 -35 20l-121 105l2 11q9 10 29 21t44 11q12 0 20 -2zM232 122q0 -60 12 -73.5t60 -16.5q4 -4 4 -17t-4 -17q-86 2 -137 2q-53 0 -137 -2q-4 4 -4 17t4 17q48 4 60 17t12 73v192q0 42 -11.5 54t-53.5 16
q-6 19 -2 32q159 21 178 28q23 0 23 -17q-4 -56 -4 -106v-199z" />
    <glyph glyph-name="iacute" unicode="&#xed;" horiz-adv-x="322" 
d="M175 674q6 2 16 2q38 0 57 -24l10 -23l-120 -108q-19 -16 -38 -16q-6 0 -11 4.5t-5 9.5q0 12 8 24zM232 122q0 -60 12 -73.5t60 -16.5q4 -4 4 -17t-4 -17q-86 2 -137 2q-53 0 -137 -2q-4 4 -4 17t4 17q48 4 60 17t12 73v192q0 42 -11.5 54t-53.5 16q-6 19 -2 32
q159 21 178 28q23 0 23 -17q-4 -56 -4 -106v-199z" />
    <glyph glyph-name="icircumflex" unicode="&#xee;" horiz-adv-x="322" 
d="M179 663q34 -55 105 -134l-25 -19q-67 40 -107 83q-37 -38 -106 -83l-25 19q77 88 106 134h52zM232 122q0 -60 12 -73.5t60 -16.5q4 -4 4 -17t-4 -17q-86 2 -137 2q-53 0 -137 -2q-4 4 -4 17t4 17q48 4 60 17t12 73v192q0 42 -11.5 54t-53.5 16q-6 19 -2 32
q159 21 178 28q23 0 23 -17q-4 -56 -4 -106v-199z" />
    <glyph glyph-name="idieresis" unicode="&#xef;" horiz-adv-x="322" 
d="M189 573q0 23 16 39t39 16t39 -16t16 -39q0 -22 -16 -38t-39 -16t-39 15.5t-16 38.5zM3 573q0 23 16 39t39 16t39 -16t16 -39t-16 -38.5t-39 -15.5t-39 16t-16 38zM232 122q0 -60 12 -73.5t60 -16.5q4 -4 4 -17t-4 -17q-86 2 -137 2q-53 0 -137 -2q-4 4 -4 17t4 17
q48 4 60 17t12 73v192q0 42 -11.5 54t-53.5 16q-6 19 -2 32q159 21 178 28q23 0 23 -17q-4 -56 -4 -106v-199z" />
    <glyph glyph-name="eth" unicode="&#xf0;" horiz-adv-x="559" 
d="M35 209q0 108 80 173q38 31 84.5 46.5t86.5 15.5q23 0 51 -5q-30 69 -79 118q-50 -35 -110 -74l-24 36l105 70q-54 54 -84 75l25 34q80 -43 116 -71q20 14 62 42t50 33l24 -36l-99 -66q95 -86 130 -138q63 -94 63 -223q0 -125 -67 -187t-180 -62q-99 0 -166.5 68.5
t-67.5 150.5zM285 32q16 0 30.5 8.5t29 28.5t23 60t8.5 96q0 61 -11 136q-38 41 -81 41q-30 0 -52 -16.5t-34 -44t-17.5 -56t-5.5 -58.5q0 -82 33 -138.5t77 -56.5z" />
    <glyph glyph-name="ntilde" unicode="&#xf1;" horiz-adv-x="616" 
d="M361 589q32 0 49 43q11 0 19.5 -5.5t8.5 -14.5q-13 -43 -38 -68t-53 -25q-37 0 -65 21q-26 17 -58 17q-13 0 -20.5 -2t-15.5 -11t-13 -27q-26 0 -26 18q13 40 35.5 66.5t47.5 26.5q43 0 74 -25q18 -14 55 -14zM228 122q0 -42 5 -60t14 -23t33 -7q5 -5 5 -17.5t-5 -16.5
q-86 2 -117 2q-53 0 -137 -2q-4 4 -4 16.5t4 17.5q27 2 37.5 4.5t20.5 11.5t12 25.5t2 48.5v187q0 42 -11.5 54t-53.5 16q-2 5 -2.5 16t0.5 16q85 11 166 33q22 0 23 -17q4 -30 7 -65q119 82 166 82q133 0 133 -160v-156q0 -42 7 -62t22 -26t48 -8q5 -5 5 -17.5t-5 -16.5
q-86 2 -142 2q-38 0 -122 -2q-5 4 -5 16.5t5 17.5q23 2 33.5 8t17 26.5t6.5 61.5v167q0 75 -70 75q-30 0 -98 -47v-2v-199z" />
    <glyph glyph-name="ograve" unicode="&#xf2;" horiz-adv-x="551" 
d="M244 674l69 -124q9 -16 9 -26q0 -7 -5 -11.5t-12 -4.5q-12 0 -35 20l-121 105l2 11q9 10 29 21t44 11q12 0 20 -2zM260 402q-83 0 -83 -173q0 -69 29.5 -133t84.5 -64q33 0 58 35.5t25 116.5q0 102 -31 160t-83 58zM37 207q0 100 55 163q64 74 184 74q109 0 173.5 -64
t64.5 -164q0 -108 -68 -169q-64 -57 -171 -57q-102 0 -170 60t-68 157z" />
    <glyph glyph-name="oacute" unicode="&#xf3;" horiz-adv-x="551" 
d="M282 674q6 2 16 2q38 0 57 -24l10 -23l-120 -108q-19 -16 -38 -16q-6 0 -11 4.5t-5 9.5q0 12 8 24zM260 402q-83 0 -83 -173q0 -69 29.5 -133t84.5 -64q33 0 58 35.5t25 116.5q0 102 -31 160t-83 58zM37 207q0 100 55 163q64 74 184 74q109 0 173.5 -64t64.5 -164
q0 -108 -68 -169q-64 -57 -171 -57q-102 0 -170 60t-68 157z" />
    <glyph glyph-name="ocircumflex" unicode="&#xf4;" horiz-adv-x="551" 
d="M303 663q34 -55 105 -134l-25 -19q-67 40 -107 83q-37 -38 -106 -83l-25 19q77 88 106 134h52zM260 402q-83 0 -83 -173q0 -69 29.5 -133t84.5 -64q33 0 58 35.5t25 116.5q0 102 -31 160t-83 58zM37 207q0 100 55 163q64 74 184 74q109 0 173.5 -64t64.5 -164
q0 -108 -68 -169q-64 -57 -171 -57q-102 0 -170 60t-68 157z" />
    <glyph glyph-name="otilde" unicode="&#xf5;" horiz-adv-x="551" 
d="M325 589q32 0 49 43q11 0 19.5 -5.5t8.5 -14.5q-13 -43 -38 -68t-53 -25q-37 0 -65 21q-26 17 -58 17q-13 0 -20.5 -2t-15.5 -11t-13 -27q-26 0 -26 18q13 40 35.5 66.5t47.5 26.5q43 0 74 -25q18 -14 55 -14zM260 402q-83 0 -83 -173q0 -69 29.5 -133t84.5 -64
q33 0 58 35.5t25 116.5q0 102 -31 160t-83 58zM37 207q0 100 55 163q64 74 184 74q109 0 173.5 -64t64.5 -164q0 -108 -68 -169q-64 -57 -171 -57q-102 0 -170 60t-68 157z" />
    <glyph glyph-name="odieresis" unicode="&#xf6;" horiz-adv-x="551" 
d="M310 573q0 23 16 39t39 16t39 -16t16 -39q0 -22 -16 -38t-39 -16t-39 15.5t-16 38.5zM124 573q0 23 16 39t39 16t39 -16t16 -39t-16 -38.5t-39 -15.5t-39 16t-16 38zM260 402q-83 0 -83 -173q0 -69 29.5 -133t84.5 -64q33 0 58 35.5t25 116.5q0 102 -31 160t-83 58z
M37 207q0 100 55 163q64 74 184 74q109 0 173.5 -64t64.5 -164q0 -108 -68 -169q-64 -57 -171 -57q-102 0 -170 60t-68 157z" />
    <glyph glyph-name="divide" unicode="&#xf7;" horiz-adv-x="540" 
d="M207 385q0 24 18.5 41.5t43.5 17.5t42.5 -16.5t17.5 -41.5q0 -24 -18 -41t-43.5 -17t-43 16.5t-17.5 40.5zM207 85q0 24 18.5 41.5t43.5 17.5t42.5 -16.5t17.5 -41.5q0 -24 -18 -41t-43.5 -17t-43 16.5t-17.5 40.5zM473 266l-10 -60h-399l10 60h399z" />
    <glyph glyph-name="oslash" unicode="&#xf8;" horiz-adv-x="567" 
d="M450 475l37 -29l-45 -55q77 -63 77 -175q0 -47 -16.5 -92t-51.5 -77q-64 -57 -171 -57q-77 0 -137 36l-49 -60l-36 32l47 57q-63 60 -63 152q0 100 55 163q64 74 184 74q68 0 121 -27zM265 402q-83 0 -83 -173q0 -34 8 -70l156 189q-31 54 -81 54zM366 298l-159 -193
q33 -73 89 -73q33 0 58 35.5t25 116.5q0 65 -13 114z" />
    <glyph glyph-name="ugrave" unicode="&#xf9;" horiz-adv-x="598" 
d="M259 674l69 -124q9 -16 9 -26q0 -7 -5 -11.5t-12 -4.5q-12 0 -35 20l-121 105l2 11q9 10 29 21t44 11q12 0 20 -2zM510 133q0 -43 12.5 -58.5t52.5 -19.5q2 -5 2.5 -16t-0.5 -16q-85 -11 -166 -33q-22 0 -23 17q-2 19 -4 44q-46 -25 -93.5 -43t-73.5 -18q-128 0 -128 160
v156q0 59 -14.5 76.5t-52.5 19.5q-4 5 -4 17.5t4 16.5q86 -2 132 -2q21 0 57 2q10 -10 10 -34q0 -4 -1 -25t-1 -71v-167q0 -48 17 -61.5t53 -13.5q48 0 92 27q-1 16 -1 30v185q0 60 -13 76t-54 20q-5 4 -5 17t5 17q78 -2 132 -2q21 0 57 2q10 -10 10 -34q0 -4 -1 -25t-1 -71
v-173z" />
    <glyph glyph-name="uacute" unicode="&#xfa;" horiz-adv-x="598" 
d="M309 674q6 2 16 2q38 0 57 -24l10 -23l-120 -108q-19 -16 -38 -16q-6 0 -11 4.5t-5 9.5q0 12 8 24zM510 133q0 -43 12.5 -58.5t52.5 -19.5q2 -5 2.5 -16t-0.5 -16q-85 -11 -166 -33q-22 0 -23 17q-2 19 -4 44q-46 -25 -93.5 -43t-73.5 -18q-128 0 -128 160v156
q0 59 -14.5 76.5t-52.5 19.5q-4 5 -4 17.5t4 16.5q86 -2 132 -2q21 0 57 2q10 -10 10 -34q0 -4 -1 -25t-1 -71v-167q0 -48 17 -61.5t53 -13.5q48 0 92 27q-1 16 -1 30v185q0 60 -13 76t-54 20q-5 4 -5 17t5 17q78 -2 132 -2q21 0 57 2q10 -10 10 -34q0 -4 -1 -25t-1 -71
v-173z" />
    <glyph glyph-name="ucircumflex" unicode="&#xfb;" horiz-adv-x="598" 
d="M307 663q34 -55 105 -134l-25 -19q-67 40 -107 83q-37 -38 -106 -83l-25 19q77 88 106 134h52zM510 133q0 -43 12.5 -58.5t52.5 -19.5q2 -5 2.5 -16t-0.5 -16q-85 -11 -166 -33q-22 0 -23 17q-2 19 -4 44q-46 -25 -93.5 -43t-73.5 -18q-128 0 -128 160v156
q0 59 -14.5 76.5t-52.5 19.5q-4 5 -4 17.5t4 16.5q86 -2 132 -2q21 0 57 2q10 -10 10 -34q0 -4 -1 -25t-1 -71v-167q0 -48 17 -61.5t53 -13.5q48 0 92 27q-1 16 -1 30v185q0 60 -13 76t-54 20q-5 4 -5 17t5 17q78 -2 132 -2q21 0 57 2q10 -10 10 -34q0 -4 -1 -25t-1 -71
v-173z" />
    <glyph glyph-name="udieresis" unicode="&#xfc;" horiz-adv-x="598" 
d="M326 573q0 23 16 39t39 16t39 -16t16 -39q0 -22 -16 -38t-39 -16t-39 15.5t-16 38.5zM140 573q0 23 16 39t39 16t39 -16t16 -39t-16 -38.5t-39 -15.5t-39 16t-16 38zM510 133q0 -43 12.5 -58.5t52.5 -19.5q2 -5 2.5 -16t-0.5 -16q-85 -11 -166 -33q-22 0 -23 17
q-2 19 -4 44q-46 -25 -93.5 -43t-73.5 -18q-128 0 -128 160v156q0 59 -14.5 76.5t-52.5 19.5q-4 5 -4 17.5t4 16.5q86 -2 132 -2q21 0 57 2q10 -10 10 -34q0 -4 -1 -25t-1 -71v-167q0 -48 17 -61.5t53 -13.5q48 0 92 27q-1 16 -1 30v185q0 60 -13 76t-54 20q-5 4 -5 17t5 17
q78 -2 132 -2q21 0 57 2q10 -10 10 -34q0 -4 -1 -25t-1 -71v-173z" />
    <glyph glyph-name="yacute" unicode="&#xfd;" horiz-adv-x="558" 
d="M327 674q6 2 16 2q38 0 57 -24l10 -23l-120 -108q-19 -16 -38 -16q-6 0 -11 4.5t-5 9.5q0 12 8 24zM242 -168q-8 -15 -26 -30.5t-34 -23.5q-21 -10 -57 -10q-24 0 -39 18q-12 14 -12 40q0 17 16.5 31.5t43.5 14.5q6 0 16 -2t19 -2q20 0 31 11.5t22 37.5l24 55q1 8 2 11
t-3.5 11t-7 11.5t-9.5 12.5t-10 14l-129 296q-20 47 -33 59t-46 15q-4 4 -4 17t4 17q40 -2 111 -2q59 0 133 2q4 -4 4 -17t-4 -17q-42 -3 -46 -18.5t13 -45.5l93 -209q1 -2 1 -4q1 1 1 2l103 231q7 10 4.5 18t-5 12.5t-12 7.5t-16.5 4t-19 2q-5 4 -5 17t5 17q74 -2 106 -2
q21 0 71 2q4 -4 4 -17t-4 -17q-26 -2 -47.5 -20.5t-33.5 -42.5q-87 -184 -182 -413q-24 -61 -43 -94z" />
    <glyph glyph-name="thorn" unicode="&#xfe;" horiz-adv-x="588" 
d="M232 -110q0 -60 12 -73.5t60 -16.5q4 -4 4 -17t-4 -17q-86 2 -137 2q-53 0 -137 -2q-4 4 -4 17t4 17q48 4 60 17t12 73v678q0 42 -11.5 53t-53.5 15q-2 5 -2.5 17t0.5 17q159 21 178 28q23 0 23 -17q-4 -56 -4 -106v-234l1 40h2q27 25 62 44t56 19q87 0 137 -50
q28 -28 44 -71t16 -86q0 -111 -68.5 -179t-182.5 -68q-34 0 -67 17v-117zM232 341v-276q31 -33 61 -33q60 0 88.5 52.5t28.5 125.5q0 81 -27 124t-62 43q-50 0 -89 -36z" />
    <glyph glyph-name="ydieresis" unicode="&#xff;" horiz-adv-x="558" 
d="M353 573q0 23 16 39t39 16t39 -16t16 -39q0 -22 -16 -38t-39 -16t-39 15.5t-16 38.5zM167 573q0 23 16 39t39 16t39 -16t16 -39t-16 -38.5t-39 -15.5t-39 16t-16 38zM242 -168q-8 -15 -26 -30.5t-34 -23.5q-21 -10 -57 -10q-24 0 -39 18q-12 14 -12 40q0 17 16.5 31.5
t43.5 14.5q6 0 16 -2t19 -2q20 0 31 11.5t22 37.5l24 55q1 8 2 11t-3.5 11t-7 11.5t-9.5 12.5t-10 14l-129 296q-20 47 -33 59t-46 15q-4 4 -4 17t4 17q40 -2 111 -2q59 0 133 2q4 -4 4 -17t-4 -17q-42 -3 -46 -18.5t13 -45.5l93 -209q1 -2 1 -4q1 1 1 2l103 231
q7 10 4.5 18t-5 12.5t-12 7.5t-16.5 4t-19 2q-5 4 -5 17t5 17q74 -2 106 -2q21 0 71 2q4 -4 4 -17t-4 -17q-26 -2 -47.5 -20.5t-33.5 -42.5q-87 -184 -182 -413q-24 -61 -43 -94z" />
    <glyph glyph-name="Amacron" unicode="&#x100;" horiz-adv-x="740" 
d="M509 755h-274q-15 0 -15 18q0 10 8 21t17 11h276q14 0 14 -17q0 -11 -8 -22t-18 -11zM273 283h152l-82 237h-7l-88 -224q-3 -7 2.5 -10t22.5 -3zM165 79q-3 -7 -3.5 -13.5t2.5 -11t6 -8t9.5 -5.5t11.5 -3.5t14 -2.5t14.5 -1.5t14.5 -1.5q5 -4 5 -17t-5 -17q-74 2 -133 2
q-20 0 -94 -2q-4 4 -4 17t4 17q20 1 31 3.5t25 9t24.5 20.5t19.5 37l217 512q37 0 110 44l206 -572q6 -17 14.5 -28t21 -16t21 -6.5t26.5 -2.5q5 -1 7 -1q5 -4 5 -17t-5 -17q-74 2 -134 2q-97 0 -171 -2q-4 4 -4 17t4 17q6 0 15.5 0.5t15 1t13 1t11.5 2t9 3t7.5 4.5t4 7t1 9
t-2.5 12l-56 163h-190q-18 0 -24.5 -3.5t-10.5 -13.5z" />
    <glyph glyph-name="amacron" unicode="&#x101;" horiz-adv-x="506" 
d="M359 543h-274q-15 0 -15 18q0 10 8 21t17 11h276q14 0 14 -17q0 -11 -8 -22t-18 -11zM295 48h-6q-27 -21 -63.5 -39.5t-56.5 -18.5q-125 0 -125 105q0 29 12 50.5t39 38t54.5 27.5t73.5 25l67 21q0 46 -6 76t-17.5 44.5t-23.5 19.5t-30 5q-39 0 -42 -23q-2 -10 1 -26
t3 -21q0 -19 -18 -32.5t-44 -13.5q-51 0 -51 50q0 31 31.5 57t73.5 38.5t80 12.5q171 0 171 -173l-2 -144q0 -37 6 -52t22 -15q24 0 42 14q15 -11 18 -28q-59 -56 -131 -56q-68 0 -78 58zM290 218l-52 -17q-25 -8 -41 -18t-22.5 -23t-8.5 -23t-2 -27q0 -26 14 -43t44 -17
q23 0 68 36v132z" />
    <glyph glyph-name="Abreve" unicode="&#x102;" horiz-adv-x="740" 
d="M504 830q-4 -52 -44.5 -88.5t-90.5 -36.5q-54 0 -93 36t-43 89l28 3q11 -54 108 -54q41 0 72 13.5t36 40.5zM273 283h152l-82 237h-7l-88 -224q-3 -7 2.5 -10t22.5 -3zM165 79q-3 -7 -3.5 -13.5t2.5 -11t6 -8t9.5 -5.5t11.5 -3.5t14 -2.5t14.5 -1.5t14.5 -1.5q5 -4 5 -17
t-5 -17q-74 2 -133 2q-20 0 -94 -2q-4 4 -4 17t4 17q20 1 31 3.5t25 9t24.5 20.5t19.5 37l217 512q37 0 110 44l206 -572q6 -17 14.5 -28t21 -16t21 -6.5t26.5 -2.5q5 -1 7 -1q5 -4 5 -17t-5 -17q-74 2 -134 2q-97 0 -171 -2q-4 4 -4 17t4 17q6 0 15.5 0.5t15 1t13 1t11.5 2
t9 3t7.5 4.5t4 7t1 9t-2.5 12l-56 163h-190q-18 0 -24.5 -3.5t-10.5 -13.5z" />
    <glyph glyph-name="abreve" unicode="&#x103;" horiz-adv-x="506" 
d="M295 48h-6q-27 -21 -63.5 -39.5t-56.5 -18.5q-125 0 -125 105q0 29 12 50.5t39 38t54.5 27.5t73.5 25l67 21q0 46 -6 76t-17.5 44.5t-23.5 19.5t-30 5q-39 0 -42 -23q-2 -10 1 -26t3 -21q0 -19 -18 -32.5t-44 -13.5q-51 0 -51 50q0 31 31.5 57t73.5 38.5t80 12.5
q171 0 171 -173l-2 -144q0 -37 6 -52t22 -15q24 0 42 14q15 -11 18 -28q-59 -56 -131 -56q-68 0 -78 58zM290 218l-52 -17q-25 -8 -41 -18t-22.5 -23t-8.5 -23t-2 -27q0 -26 14 -43t44 -17q23 0 68 36v132zM134 667q1 -39 30 -59t78 -20q43 0 74 18t33 61l32 -10
q-4 -37 -18.5 -66t-35.5 -45t-42.5 -24t-42.5 -8q-59 0 -97.5 40.5t-43.5 102.5z" />
    <glyph glyph-name="Aogonek" unicode="&#x104;" horiz-adv-x="740" 
d="M677 -177q-19 -26 -49 -40.5t-60 -14.5q-25 0 -50 16q-39 26 -39 80q0 35 29 73.5t70 62.5q-97 0 -153 -2q-4 4 -4 17t4 17q6 0 15.5 0.5t15 1t13 1t11.5 2t9 3t7.5 4.5t4 7t1 9t-2.5 12l-56 163h-190q-18 0 -24.5 -3.5t-10.5 -13.5l-53 -139q-3 -7 -3.5 -13.5t2.5 -11
t6 -8t9.5 -5.5t11.5 -3.5t14 -2.5t14.5 -1.5t14.5 -1.5q5 -4 5 -17t-5 -17q-74 2 -133 2q-20 0 -94 -2q-4 4 -4 17t4 17q20 1 31 3.5t25 9t24.5 20.5t19.5 37l217 512q37 0 110 44l206 -572q6 -17 14.5 -28t21 -16t21 -6.5t26.5 -2.5q5 -1 7 -1q5 -4 5 -17t-5 -17
q-28 1 -75 2q-34 -8 -59 -46t-25 -84q0 -42 35 -42q38 0 56 18zM273 283h152l-82 237h-7l-88 -224q-3 -7 2.5 -10t22.5 -3z" />
    <glyph glyph-name="aogonek" unicode="&#x105;" horiz-adv-x="506" 
d="M487 -177q-19 -26 -52 -40.5t-64 -14.5q-39 0 -65.5 23t-26.5 63q0 60 100 136h-6q-68 0 -78 58h-6q-27 -21 -63.5 -39.5t-56.5 -18.5q-125 0 -125 105q0 29 12 50.5t39 38t54.5 27.5t73.5 25l67 21q0 46 -6 76t-17.5 44.5t-23.5 19.5t-30 5q-39 0 -42 -23q-2 -10 1 -26
t3 -21q0 -19 -18 -32.5t-44 -13.5q-51 0 -51 50q0 31 31.5 57t73.5 38.5t80 12.5q171 0 171 -173l-2 -144q0 -37 6 -52t22 -15q24 0 42 14q15 -11 18 -28q-24 -22 -47 -35l1 -1q-40 -37 -58.5 -65.5t-18.5 -69.5q0 -19 10 -28t25 -9q38 0 56 18q15 -10 15 -33zM290 218
l-52 -17q-25 -8 -41 -18t-22.5 -23t-8.5 -23t-2 -27q0 -26 14 -43t44 -17q23 0 68 36v132z" />
    <glyph glyph-name="Cacute" unicode="&#x106;" horiz-adv-x="706" 
d="M422 833q43 -20 65 -55l-3 -12l-144 -58q-18 -7 -35 -7q-7 0 -13.5 4.5t-6.5 10.5q0 12 10 21q45 39 127 96zM397 -10q-151 0 -239 63q-58 41 -89.5 114t-31.5 148q0 80 29 146t78.5 108.5t114.5 65.5t139 23q54 0 97 -10t73.5 -21.5t48.5 -13.5q17 -105 22 -155
q-22 -12 -43 -5q-11 36 -25 62.5t-37 51t-60 37.5t-87 13q-88 0 -143.5 -82t-55.5 -201q0 -77 27.5 -144t75.5 -107.5t105 -40.5q127 0 222 104q8 0 18.5 -7t14.5 -14q-103 -135 -254 -135z" />
    <glyph glyph-name="cacute" unicode="&#x107;" horiz-adv-x="456" 
d="M266 674q6 2 16 2q38 0 57 -24l10 -23l-120 -108q-19 -16 -38 -16q-6 0 -11 4.5t-5 9.5q0 12 8 24zM422 87q-29 -42 -76 -69.5t-91 -27.5q-101 0 -156 52q-62 58 -62 159q0 108 65 175.5t157 67.5q76 0 119.5 -33t43.5 -71q0 -24 -15.5 -40t-39.5 -16t-42 13.5t-20 33.5
q-3 29 -16.5 50t-38.5 21q-78 0 -78 -166q0 -86 37 -130t97 -44q42 0 103 56q13 0 13 -31z" />
    <glyph glyph-name="Ccircumflex" unicode="&#x108;" horiz-adv-x="706" 
d="M397 -10q-151 0 -239 63q-58 41 -89.5 114t-31.5 148q0 159 103.5 251t257.5 92q72 0 140.5 -22t78.5 -23q17 -105 22 -155q-22 -12 -43 -5q-23 77 -69 120.5t-140 43.5q-88 0 -143.5 -82t-55.5 -201q0 -118 61 -205t147 -87q127 0 222 104q8 0 18.5 -7t14.5 -14
q-103 -135 -254 -135zM527 724q0 -19 -16 -26q-86 26 -124 56q-45 -33 -123 -56q-14 6 -14 27q64 41 127 104l14 5q62 -62 136 -110z" />
    <glyph glyph-name="ccircumflex" unicode="&#x109;" horiz-adv-x="456" 
d="M422 87q-29 -42 -76 -69.5t-91 -27.5q-101 0 -156 52q-62 58 -62 159q0 108 65 175.5t157 67.5q76 0 119.5 -33t43.5 -71q0 -24 -15.5 -40t-39.5 -16t-42 13.5t-20 33.5q-3 29 -16.5 50t-38.5 21q-78 0 -78 -166q0 -86 37 -130t97 -44q42 0 103 56q13 0 13 -31zM269 663
q34 -55 105 -134l-25 -19q-67 40 -107 83q-37 -38 -106 -83l-25 19q77 88 106 134h52z" />
    <glyph glyph-name="Cdotaccent" unicode="&#x10a;" horiz-adv-x="706" 
d="M315 771q0 25 18.5 43.5t43.5 18.5t43.5 -18.5t18.5 -43.5t-18.5 -43.5t-43.5 -18.5t-43.5 18.5t-18.5 43.5zM397 -10q-151 0 -239 63q-58 41 -89.5 114t-31.5 148q0 159 103.5 251t257.5 92q72 0 140.5 -22t78.5 -23q17 -105 22 -155q-22 -12 -43 -5q-23 77 -69 120.5
t-140 43.5q-88 0 -143.5 -82t-55.5 -201q0 -118 61 -205t147 -87q127 0 222 104q8 0 18.5 -7t14.5 -14q-103 -135 -254 -135z" />
    <glyph glyph-name="cdotaccent" unicode="&#x10b;" horiz-adv-x="456" 
d="M185 596q0 25 18.5 43.5t51.5 18.5q29 0 47 -20.5t18 -45.5q0 -22 -20 -42t-51 -20q-29 0 -46.5 20t-17.5 46zM422 87q-29 -42 -76 -69.5t-91 -27.5q-101 0 -156 52q-62 58 -62 159q0 108 65 175.5t157 67.5q76 0 119.5 -33t43.5 -71q0 -24 -15.5 -40t-39.5 -16t-42 13.5
t-20 33.5q-3 29 -16.5 50t-38.5 21q-78 0 -78 -166q0 -86 37 -130t97 -44q42 0 103 56q13 0 13 -31z" />
    <glyph glyph-name="Ccaron" unicode="&#x10c;" horiz-adv-x="706" 
d="M397 -10q-151 0 -239 63q-58 41 -89.5 114t-31.5 148q0 159 103.5 251t257.5 92q72 0 140.5 -22t78.5 -23q17 -105 22 -155q-22 -12 -43 -5q-23 77 -69 120.5t-140 43.5q-88 0 -143.5 -82t-55.5 -201q0 -118 61 -205t147 -87q127 0 222 104q8 0 18.5 -7t14.5 -14
q-103 -135 -254 -135zM249 808q0 8 4.5 15.5t11.5 10.5q86 -26 124 -56q45 33 123 56q14 -6 14 -27q-64 -41 -127 -104l-14 -5q-62 62 -136 110z" />
    <glyph glyph-name="ccaron" unicode="&#x10d;" horiz-adv-x="456" 
d="M263 529h-50q-29 47 -102 129l24 18q62 -43 102 -84q35 37 103 84l24 -18q-68 -76 -101 -129zM422 87q-29 -42 -76 -69.5t-91 -27.5q-101 0 -156 52q-62 58 -62 159q0 108 65 175.5t157 67.5q76 0 119.5 -33t43.5 -71q0 -24 -15.5 -40t-39.5 -16t-42 13.5t-20 33.5
q-3 29 -16.5 50t-38.5 21q-78 0 -78 -166q0 -86 37 -130t97 -44q42 0 103 56q13 0 13 -31z" />
    <glyph glyph-name="Dcaron" unicode="&#x10e;" horiz-adv-x="734" 
d="M199 808q0 19 16 26q86 -26 124 -56q45 33 123 56q14 -6 14 -27q-64 -41 -127 -104l-14 -5q-62 62 -136 110zM254 119q0 -48 20.5 -63.5t75.5 -15.5q31 0 61.5 13t59 40t46.5 76.5t18 114.5q0 52 -3.5 92t-17 85t-36 74.5t-64 49t-98.5 19.5q-62 0 -62 -75v-410zM185 0
l-154 -2q-7 4 -7 17t7 17q25 1 37 3.5t24.5 11t17 27t4.5 48.5v401q0 30 -4.5 48.5t-17 27t-24.5 11t-37 3.5q-7 5 -7 17t7 17q114 -2 154 -2q18 0 62.5 0.5t72.5 0.5q177 0 271.5 -95t94.5 -242q0 -75 -22 -135t-59 -92q-96 -84 -258 -84q-20 0 -81 1t-81 1z" />
    <glyph glyph-name="dcaron" unicode="&#x10f;" horiz-adv-x="594" 
d="M569 698q27 0 43.5 -22t16.5 -51q0 -12 -4 -27t-14.5 -33.5t-33 -31t-54.5 -14.5l-4 17q29 6 44.5 27.5t15.5 41.5q0 18 -11 18q-46 0 -46 41q0 34 47 34zM352 95q-1 13 -1 25v246q-16 23 -33.5 29.5t-41.5 6.5q-48 0 -74 -43q-25 -41 -25 -130q0 -84 25 -128.5t64 -44.5
q9 0 40 13.5t46 25.5zM355 48h-9q-25 -17 -64.5 -37.5t-57.5 -20.5q-39 0 -63 9.5t-54 32.5q-35 27 -52.5 72.5t-17.5 93.5q0 99 72.5 172.5t169.5 73.5q40 0 72 -11v130q0 51 -10 61t-58 14q-8 14 -3 34q124 5 188 26q16 0 16 -13q-3 -37 -3 -102v-450q0 -43 12.5 -58.5
t52.5 -19.5q6 -19 2 -32q-85 -11 -166 -33q-22 0 -23 17q-2 17 -4 41z" />
    <glyph glyph-name="Dcroat" unicode="&#x110;" horiz-adv-x="734" 
d="M254 119q0 -48 20.5 -63.5t75.5 -15.5q31 0 61.5 13t59 40t46.5 76.5t18 114.5q0 52 -3.5 92t-17 85t-36 74.5t-64 49t-98.5 19.5q-62 0 -62 -75v-203q55 1 104 4l-10 -50q-43 2 -94 3v-164zM185 0l-154 -2q-7 4 -7 16.5t7 17.5q25 1 37 3.5t24.5 11t17 27t4.5 48.5v161
q-49 0 -97 -3l10 50q42 -2 87 -3v196q0 30 -4.5 48.5t-17 27t-24.5 11t-37 3.5q-7 5 -7 17t7 17q114 -2 154 -2q18 0 62.5 0.5t72.5 0.5q177 0 271.5 -95t94.5 -242q0 -75 -22 -135t-59 -92q-96 -84 -258 -84q-20 0 -81 1t-81 1z" />
    <glyph glyph-name="dcroat" unicode="&#x111;" horiz-adv-x="561" 
d="M352 95q-1 13 -1 25v246q-16 23 -33.5 29.5t-41.5 6.5q-48 0 -74 -43q-25 -41 -25 -130q0 -84 25 -128.5t64 -44.5q9 0 40 13.5t46 25.5zM355 48h-9q-25 -17 -64.5 -37.5t-57.5 -20.5q-39 0 -63 9.5t-54 32.5q-35 27 -52.5 72.5t-17.5 93.5q0 99 72.5 172.5t169.5 73.5
q40 0 72 -11v91q-60 -1 -103 -4l9 50q43 -3 94 -4q0 27 -1.5 39t-10 20t-19 9.5t-37.5 3.5q-8 14 -3 34q124 5 188 26q16 0 16 -13q-3 -37 -3 -102v-16q38 1 74 3l-9 -50q-28 2 -65 3v-390q0 -43 12.5 -58.5t52.5 -19.5q6 -19 2 -32q-85 -11 -166 -33q-22 0 -23 17
q-2 17 -4 41z" />
    <glyph glyph-name="Emacron" unicode="&#x112;" horiz-adv-x="609" 
d="M412 755h-274q-15 0 -15 18q0 10 8 21t17 11h276q14 0 14 -17q0 -11 -8 -22t-18 -11zM323 365q52 0 70.5 12t20.5 52q4 5 21 5t22 -5q-2 -60 -2 -86q0 -18 2 -88q-5 -5 -22 -5t-21 5q-2 35 -21.5 49.5t-69.5 14.5h-81v-229q0 -20 12 -34t29 -14h101q105 0 141 128
q26 6 45 -5q-2 -15 -6.5 -51.5t-9.5 -65t-11 -50.5q-90 2 -138 2h-235q-106 -1 -155 -2q-5 4 -5 17t5 17q56 2 71.5 16.5t15.5 73.5v400q0 60 -15.5 74.5t-71.5 16.5q-5 5 -5 17t5 17l154 -2h295q26 0 49 4q4 0 4 -3q1 -3 3 -30.5t4.5 -62.5t4.5 -52q-18 -9 -43 -5
q-18 58 -42 82.5t-76 24.5h-85q-17 0 -29 -15t-12 -34v-189h81z" />
    <glyph glyph-name="emacron" unicode="&#x113;" horiz-adv-x="489" 
d="M374 543h-274q-15 0 -15 18q0 10 8 21t17 11h276q14 0 14 -17q0 -11 -8 -22t-18 -11zM177 275h136q2 2 2 21q0 54 -19.5 80t-44.5 26q-11 0 -27 -9t-27 -25q-18 -27 -20 -93zM431 129q7 0 11 -10t4 -21q-37 -53 -85.5 -80.5t-101.5 -27.5q-103 0 -158 50q-64 58 -64 158
q0 109 70 177.5t155 68.5q53 0 90 -15.5t55.5 -42.5t26.5 -56t8 -64q0 -31 -29 -31h-240q0 -2 -0.5 -7t-0.5 -9q0 -72 33 -107.5t93 -35.5q81 0 133 53z" />
    <glyph glyph-name="Ebreve" unicode="&#x114;" horiz-adv-x="609" 
d="M434 830q-4 -52 -44.5 -88.5t-90.5 -36.5q-54 0 -93 36t-43 89l28 3q11 -54 108 -54q41 0 72 13.5t36 40.5zM323 365q52 0 70.5 12t20.5 52q4 5 21 5t22 -5q-2 -60 -2 -86q0 -18 2 -88q-5 -5 -22 -5t-21 5q-2 35 -21.5 49.5t-69.5 14.5h-81v-229q0 -20 12 -34t29 -14h101
q105 0 141 128q26 6 45 -5q-2 -15 -6.5 -51.5t-9.5 -65t-11 -50.5q-90 2 -138 2h-235q-106 -1 -155 -2q-5 4 -5 17t5 17q56 2 71.5 16.5t15.5 73.5v400q0 60 -15.5 74.5t-71.5 16.5q-5 5 -5 17t5 17l154 -2h295q26 0 49 4q4 0 4 -3q1 -3 3 -30.5t4.5 -62.5t4.5 -52
q-18 -9 -43 -5q-18 58 -42 82.5t-76 24.5h-85q-17 0 -29 -15t-12 -34v-189h81z" />
    <glyph glyph-name="ebreve" unicode="&#x115;" horiz-adv-x="489" 
d="M143 667q1 -39 30 -59t78 -20q103 0 107 79l32 -10q-7 -71 -50 -107t-89 -36q-59 0 -97.5 40.5t-43.5 102.5zM177 275h136q2 2 2 21q0 54 -19.5 80t-44.5 26q-11 0 -27 -9t-27 -25q-18 -27 -20 -93zM431 129q7 0 11 -10t4 -21q-37 -53 -85.5 -80.5t-101.5 -27.5
q-103 0 -158 50q-64 58 -64 158q0 109 70 177.5t155 68.5q53 0 90 -15.5t55.5 -42.5t26.5 -56t8 -64q0 -31 -29 -31h-240q0 -2 -0.5 -7t-0.5 -9q0 -72 33 -107.5t93 -35.5q81 0 133 53z" />
    <glyph glyph-name="Edotaccent" unicode="&#x116;" horiz-adv-x="609" 
d="M245 771q0 25 18.5 43.5t43.5 18.5t43.5 -18.5t18.5 -43.5t-18.5 -43.5t-43.5 -18.5t-43.5 18.5t-18.5 43.5zM323 365q52 0 70.5 12t20.5 52q4 5 21 5t22 -5q-2 -60 -2 -86q0 -18 2 -88q-5 -5 -22 -5t-21 5q-2 35 -21.5 49.5t-69.5 14.5h-81v-229q0 -20 12 -34t29 -14
h101q105 0 141 128q26 6 45 -5q-2 -15 -6.5 -51.5t-9.5 -65t-11 -50.5q-90 2 -138 2h-235q-106 -1 -155 -2q-5 4 -5 17t5 17q56 2 71.5 16.5t15.5 73.5v400q0 60 -15.5 74.5t-71.5 16.5q-5 5 -5 17t5 17l154 -2h295q26 0 49 4q4 0 4 -3q1 -3 3 -30.5t4.5 -62.5t4.5 -52
q-18 -9 -43 -5q-18 58 -42 82.5t-76 24.5h-85q-17 0 -29 -15t-12 -34v-189h81z" />
    <glyph glyph-name="edotaccent" unicode="&#x117;" horiz-adv-x="489" 
d="M176 596q0 25 18.5 43.5t51.5 18.5q29 0 47 -20.5t18 -45.5q0 -22 -20 -42t-51 -20q-29 0 -46.5 20t-17.5 46zM177 275h136q2 2 2 21q0 54 -19.5 80t-44.5 26q-11 0 -27 -9t-27 -25q-18 -27 -20 -93zM431 129q7 0 11 -10t4 -21q-37 -53 -85.5 -80.5t-101.5 -27.5
q-103 0 -158 50q-64 58 -64 158q0 109 70 177.5t155 68.5q53 0 90 -15.5t55.5 -42.5t26.5 -56t8 -64q0 -31 -29 -31h-240q0 -2 -0.5 -7t-0.5 -9q0 -72 33 -107.5t93 -35.5q81 0 133 53z" />
    <glyph glyph-name="Eogonek" unicode="&#x118;" horiz-adv-x="609" 
d="M497 -177q-40 -55 -109 -55q-25 0 -50 16q-39 26 -39 80q0 35 29.5 73.5t69.5 62.5h-228q-106 -1 -155 -2q-5 4 -5 17t5 17q56 2 71.5 16.5t15.5 73.5v400q0 60 -15.5 74.5t-71.5 16.5q-5 5 -5 17t5 17l154 -2h295q26 0 49 4q4 0 4 -3q1 -3 3 -30.5t4.5 -62.5t4.5 -52
q-18 -9 -43 -5q-18 58 -42 82.5t-76 24.5h-85q-17 0 -29 -15t-12 -34v-189h81q52 0 70.5 12t20.5 52q4 5 21 5t22 -5q-2 -60 -2 -86q0 -18 2 -88q-5 -5 -22 -5t-21 5q-2 35 -21.5 49.5t-69.5 14.5h-81v-229q0 -20 12 -34t29 -14h101q105 0 141 128q26 6 45 -5
q-2 -15 -6.5 -51.5t-9.5 -65t-11 -50.5q-32 1 -69 1q-34 -8 -58.5 -46t-24.5 -83q0 -42 35 -42q38 0 56 18z" />
    <glyph glyph-name="eogonek" unicode="&#x119;" horiz-adv-x="489" 
d="M177 275h136q2 2 2 21q0 54 -19.5 80t-44.5 26q-11 0 -27 -9t-27 -25q-18 -27 -20 -93zM431 129q7 0 11 -10t4 -21q-47 -69 -115 -95q-28 -27 -41.5 -53t-13.5 -61q0 -19 10 -28t25 -9q38 0 56 18q15 -10 15 -33q-19 -26 -52 -40.5t-64 -14.5q-39 0 -65.5 23t-26.5 63
q0 55 82 122q-101 1 -155 50q-64 58 -64 158q0 109 70 177.5t155 68.5q53 0 90 -15.5t55.5 -42.5t26.5 -56t8 -64q0 -31 -29 -31h-240q0 -2 -0.5 -7t-0.5 -9q0 -72 33 -107.5t93 -35.5q81 0 133 53z" />
    <glyph glyph-name="Ecaron" unicode="&#x11a;" horiz-adv-x="609" 
d="M169 808q0 19 16 26q86 -26 124 -56q45 33 123 56q14 -6 14 -27q-64 -41 -127 -104l-14 -5q-62 62 -136 110zM323 365q52 0 70.5 12t20.5 52q4 5 21 5t22 -5q-2 -60 -2 -86q0 -18 2 -88q-5 -5 -22 -5t-21 5q-2 35 -21.5 49.5t-69.5 14.5h-81v-229q0 -20 12 -34t29 -14
h101q105 0 141 128q26 6 45 -5q-2 -15 -6.5 -51.5t-9.5 -65t-11 -50.5q-90 2 -138 2h-235q-106 -1 -155 -2q-5 4 -5 17t5 17q56 2 71.5 16.5t15.5 73.5v400q0 60 -15.5 74.5t-71.5 16.5q-5 5 -5 17t5 17l154 -2h295q26 0 49 4q4 0 4 -3q1 -3 3 -30.5t4.5 -62.5t4.5 -52
q-18 -9 -43 -5q-18 58 -42 82.5t-76 24.5h-85q-17 0 -29 -15t-12 -34v-189h81z" />
    <glyph glyph-name="ecaron" unicode="&#x11b;" horiz-adv-x="489" 
d="M271 514h-50q-29 47 -102 129l24 18q62 -43 102 -84q35 37 103 84l24 -18q-68 -76 -101 -129zM177 275h136q2 2 2 21q0 54 -19.5 80t-44.5 26q-11 0 -27 -9t-27 -25q-18 -27 -20 -93zM431 129q7 0 11 -10t4 -21q-37 -53 -85.5 -80.5t-101.5 -27.5q-103 0 -158 50
q-64 58 -64 158q0 109 70 177.5t155 68.5q53 0 90 -15.5t55.5 -42.5t26.5 -56t8 -64q0 -31 -29 -31h-240q0 -2 -0.5 -7t-0.5 -9q0 -72 33 -107.5t93 -35.5q81 0 133 53z" />
    <glyph glyph-name="Gcircumflex" unicode="&#x11c;" horiz-adv-x="732" 
d="M557 724q0 -19 -16 -26q-86 26 -124 56q-45 -33 -123 -56q-14 6 -14 27q64 41 127 104l14 5q62 -62 136 -110zM395 658q71 0 142 -17.5t88 -17.5q12 -121 21 -164q-18 -9 -44 -6q-21 72 -75.5 117.5t-145.5 45.5q-93 0 -147 -74q-50 -69 -50 -215q0 -53 11.5 -102.5
t36 -94t70 -71.5t105.5 -27q38 0 60.5 9t46.5 33v149q0 28 -17 36.5t-61 11.5q-4 5 -4 19t4 18q90 -2 148 -2q57 0 113 2q5 -4 5 -18t-5 -19q-22 -2 -32.5 -12.5t-10.5 -35.5v-117q0 -14 15 -28q-48 -41 -124 -64.5t-160 -23.5q-158 0 -247 76q-50 42 -77.5 107t-27.5 134
q0 163 106 258q103 93 256 93z" />
    <glyph glyph-name="gcircumflex" unicode="&#x11d;" horiz-adv-x="521" 
d="M268 663q34 -55 105 -134l-25 -19q-67 40 -107 83q-37 -38 -106 -83l-25 19q77 88 106 134h52zM290 288q0 118 -67 118q-30 0 -43.5 -23t-13.5 -78q0 -125 70 -125q24 0 39 21.5t15 86.5zM175 -25q-29 0 -44 6q-11 -20 -11 -77q0 -40 31.5 -70t79.5 -30q85 0 120 20
q24 13 36.5 39.5t12.5 55.5q0 56 -225 56zM467 394q-17 0 -30 11t-17 23q-6 12 -19 12q-8 0 -26.5 -10.5t-24.5 -17.5q62 -51 62 -121q0 -63 -49 -106t-132 -43q-50 0 -73 11q-1 -2 -6 -11.5t-7 -16.5t-2 -14q0 -26 13 -34t32 -8q75 0 156 -8t107 -25q27 -18 38.5 -44
t11.5 -47q0 -53 -46 -96t-113.5 -65t-138.5 -22q-106 0 -153 33q-19 14 -29 41.5t-10 57.5q0 14 28.5 48t58.5 52q-29 9 -41 28q-13 20 -13 46q0 14 26 45.5t53 54.5q-35 19 -56 54.5t-21 73.5q0 72 68 116q49 32 118 32q62 0 84 -12q25 22 62.5 40.5t68.5 18.5
q27 0 45.5 -16t18.5 -32q0 -27 -11 -38t-33 -11z" />
    <glyph glyph-name="Gbreve" unicode="&#x11e;" horiz-adv-x="732" 
d="M524 830q-4 -52 -44.5 -88.5t-90.5 -36.5q-54 0 -93 36t-43 89l28 3q11 -54 108 -54q41 0 72 13.5t36 40.5zM395 658q71 0 142 -17.5t88 -17.5q12 -121 21 -164q-18 -9 -44 -6q-21 72 -75.5 117.5t-145.5 45.5q-93 0 -147 -74q-50 -69 -50 -215q0 -53 11.5 -102.5t36 -94
t70 -71.5t105.5 -27q38 0 60.5 9t46.5 33v149q0 28 -17 36.5t-61 11.5q-4 5 -4 19t4 18q90 -2 148 -2q57 0 113 2q5 -4 5 -18t-5 -19q-22 -2 -32.5 -12.5t-10.5 -35.5v-117q0 -14 15 -28q-48 -41 -124 -64.5t-160 -23.5q-158 0 -247 76q-50 42 -77.5 107t-27.5 134
q0 163 106 258q103 93 256 93z" />
    <glyph glyph-name="gbreve" unicode="&#x11f;" horiz-adv-x="521" 
d="M135 635q1 -39 30 -59t78 -20q103 0 107 79l32 -10q-7 -71 -50 -107t-89 -36q-59 0 -97.5 40.5t-43.5 102.5zM290 288q0 118 -67 118q-30 0 -43.5 -23t-13.5 -78q0 -125 70 -125q24 0 39 21.5t15 86.5zM175 -25q-29 0 -44 6q-11 -20 -11 -77q0 -40 31.5 -70t79.5 -30
q85 0 120 20q24 13 36.5 39.5t12.5 55.5q0 56 -225 56zM467 394q-17 0 -30 11t-17 23q-6 12 -19 12q-8 0 -26.5 -10.5t-24.5 -17.5q62 -51 62 -121q0 -63 -49 -106t-132 -43q-50 0 -73 11q-1 -2 -6 -11.5t-7 -16.5t-2 -14q0 -26 13 -34t32 -8q75 0 156 -8t107 -25
q27 -18 38.5 -44t11.5 -47q0 -53 -46 -96t-113.5 -65t-138.5 -22q-106 0 -153 33q-19 14 -29 41.5t-10 57.5q0 14 28.5 48t58.5 52q-29 9 -41 28q-13 20 -13 46q0 14 26 45.5t53 54.5q-35 19 -56 54.5t-21 73.5q0 72 68 116q49 32 118 32q62 0 84 -12q25 22 62.5 40.5
t68.5 18.5q27 0 45.5 -16t18.5 -32q0 -27 -11 -38t-33 -11z" />
    <glyph glyph-name="Gdotaccent" unicode="&#x120;" horiz-adv-x="732" 
d="M339 771q0 25 18.5 43.5t43.5 18.5t43.5 -18.5t18.5 -43.5t-18.5 -43.5t-43.5 -18.5t-43.5 18.5t-18.5 43.5zM395 658q71 0 142 -17.5t88 -17.5q12 -121 21 -164q-18 -9 -44 -6q-21 72 -75.5 117.5t-145.5 45.5q-93 0 -147 -74q-50 -69 -50 -215q0 -53 11.5 -102.5
t36 -94t70 -71.5t105.5 -27q38 0 60.5 9t46.5 33v149q0 28 -17 36.5t-61 11.5q-4 5 -4 19t4 18q90 -2 148 -2q57 0 113 2q5 -4 5 -18t-5 -19q-22 -2 -32.5 -12.5t-10.5 -35.5v-117q0 -14 15 -28q-48 -41 -124 -64.5t-160 -23.5q-158 0 -247 76q-50 42 -77.5 107t-27.5 134
q0 163 106 258q103 93 256 93z" />
    <glyph glyph-name="gdotaccent" unicode="&#x121;" horiz-adv-x="521" 
d="M164 596q0 25 18.5 43.5t51.5 18.5q29 0 47 -20.5t18 -45.5q0 -22 -20 -42t-51 -20q-29 0 -46.5 20t-17.5 46zM290 288q0 118 -67 118q-30 0 -43.5 -23t-13.5 -78q0 -125 70 -125q24 0 39 21.5t15 86.5zM175 -25q-29 0 -44 6q-11 -20 -11 -77q0 -40 31.5 -70t79.5 -30
q85 0 120 20q24 13 36.5 39.5t12.5 55.5q0 56 -225 56zM467 394q-17 0 -30 11t-17 23q-6 12 -19 12q-8 0 -26.5 -10.5t-24.5 -17.5q62 -51 62 -121q0 -63 -49 -106t-132 -43q-50 0 -73 11q-1 -2 -6 -11.5t-7 -16.5t-2 -14q0 -26 13 -34t32 -8q75 0 156 -8t107 -25
q27 -18 38.5 -44t11.5 -47q0 -53 -46 -96t-113.5 -65t-138.5 -22q-106 0 -153 33q-19 14 -29 41.5t-10 57.5q0 14 28.5 48t58.5 52q-29 9 -41 28q-13 20 -13 46q0 14 26 45.5t53 54.5q-35 19 -56 54.5t-21 73.5q0 72 68 116q49 32 118 32q62 0 84 -12q25 22 62.5 40.5
t68.5 18.5q27 0 45.5 -16t18.5 -32q0 -27 -11 -38t-33 -11z" />
    <glyph glyph-name="Gcommaaccent" unicode="&#x122;" horiz-adv-x="732" 
d="M371 -51q29 0 50.5 -17.5t21.5 -60.5q0 -41 -33.5 -70.5t-86.5 -38.5q-13 8 -6 28q29 8 47 23.5t18 29.5q0 6 -2 10t-6.5 6.5t-7 3.5t-8.5 2l-5 1q-33 8 -33 45q0 13 17 25.5t34 12.5zM395 658q71 0 142 -17.5t88 -17.5q12 -121 21 -164q-18 -9 -44 -6
q-21 72 -75.5 117.5t-145.5 45.5q-93 0 -147 -74q-50 -69 -50 -215q0 -53 11.5 -102.5t36 -94t70 -71.5t105.5 -27q38 0 60.5 9t46.5 33v149q0 28 -17 36.5t-61 11.5q-4 5 -4 19t4 18q90 -2 148 -2q57 0 113 2q5 -4 5 -18t-5 -19q-22 -2 -32.5 -12.5t-10.5 -35.5v-117
q0 -14 15 -28q-48 -41 -124 -64.5t-160 -23.5q-158 0 -247 76q-50 42 -77.5 107t-27.5 134q0 163 106 258q103 93 256 93z" />
    <glyph glyph-name="gcommaaccent" unicode="&#x123;" horiz-adv-x="521" 
d="M232 508q-29 0 -50.5 17.5t-21.5 60.5q0 41 33.5 70.5t86.5 38.5q13 -8 6 -28q-29 -8 -47 -23.5t-18 -29.5q0 -6 2 -10t6.5 -6.5t7 -3.5t7.5 -2l6 -1q33 -7 33 -45q0 -13 -17 -25.5t-34 -12.5zM290 288q0 118 -67 118q-30 0 -43.5 -23t-13.5 -78q0 -125 70 -125
q24 0 39 21.5t15 86.5zM175 -25q-29 0 -44 6q-11 -20 -11 -77q0 -40 31.5 -70t79.5 -30q85 0 120 20q24 13 36.5 39.5t12.5 55.5q0 56 -225 56zM467 394q-17 0 -30 11t-17 23q-6 12 -19 12q-8 0 -26.5 -10.5t-24.5 -17.5q62 -51 62 -121q0 -63 -49 -106t-132 -43
q-50 0 -73 11q-1 -2 -6 -11.5t-7 -16.5t-2 -14q0 -26 13 -34t32 -8q75 0 156 -8t107 -25q27 -18 38.5 -44t11.5 -47q0 -53 -46 -96t-113.5 -65t-138.5 -22q-106 0 -153 33q-19 14 -29 41.5t-10 57.5q0 14 28.5 48t58.5 52q-29 9 -41 28q-13 20 -13 46q0 14 26 45.5t53 54.5
q-35 19 -56 54.5t-21 73.5q0 72 68 116q49 32 118 32q62 0 84 -12q25 22 62.5 40.5t68.5 18.5q27 0 45.5 -16t18.5 -32q0 -27 -11 -38t-33 -11z" />
    <glyph glyph-name="Hcircumflex" unicode="&#x124;" horiz-adv-x="817" 
d="M527 724q0 -19 -16 -26q-86 26 -124 56q-45 -33 -123 -56q-14 6 -14 27q64 41 127 104l14 5q62 -62 136 -110zM564 523q0 30 -4.5 48.5t-17 27t-24.5 11t-37 3.5q-7 5 -7 17t7 17q80 -2 154 -2q72 0 152 2q7 -5 7 -17t-7 -17q-25 -1 -37 -3.5t-24.5 -11t-17 -27
t-4.5 -48.5v-401q0 -30 4.5 -48.5t17 -27t24.5 -11t37 -3.5q7 -4 7 -17t-7 -17q-80 2 -152 2q-74 0 -154 -2q-7 4 -7 17t7 17q25 1 37 3.5t24.5 11t17 27t4.5 48.5v197h-310v-197q0 -30 4.5 -48.5t17 -27t24.5 -11t37 -3.5q7 -4 7 -17t-7 -17q-80 2 -152 2q-74 0 -154 -2
q-7 4 -7 17t7 17q25 1 37 3.5t24.5 11t17 27t4.5 48.5v401q0 30 -4.5 48.5t-17 27t-24.5 11t-37 3.5q-7 5 -7 17t7 17q80 -2 154 -2q72 0 152 2q7 -5 7 -17t-7 -17q-25 -1 -37 -3.5t-24.5 -11t-17 -27t-4.5 -48.5v-156h310v156z" />
    <glyph glyph-name="hcircumflex" unicode="&#x125;" horiz-adv-x="619" 
d="M403 698q34 -55 105 -134l-25 -19q-67 40 -107 83q-37 -38 -106 -83l-25 19q77 88 106 134h52zM528 128q0 -42 7 -62t22 -26t48 -8q5 -4 5 -16.5t-5 -17.5q-86 2 -142 2q-38 0 -122 -2q-5 5 -5 17.5t5 16.5q23 2 33.5 8t17 26.5t6.5 61.5v167q0 40 -21 57.5t-54 17.5
t-93 -38v-205q0 -41 6 -61t17 -26t34 -8q5 -4 5 -16.5t-5 -17.5q-86 2 -122 2q-58 0 -142 -2q-5 5 -5 17.5t5 16.5q48 2 62.5 18.5t14.5 76.5v438q0 28 -1 40.5t-10 20.5t-19.5 10t-37.5 4q-8 14 -3 32q124 5 188 26q16 0 16 -13q-3 -37 -3 -102v-211q115 72 165 72
q133 0 133 -160v-156z" />
    <glyph glyph-name="Hbar" unicode="&#x126;" horiz-adv-x="817" 
d="M564 493q-113 1 -177 1h-133v-127h310v126zM254 537q96 -1 142 -1q71 0 168 1q-1 25 -6.5 40.5t-17.5 22.5t-24 9.5t-35 3.5q-8 5 -8 17t8 17q80 -2 154 -2q72 0 152 2q7 -5 7 -17t-7 -17q-23 -1 -34.5 -3.5t-24 -9.5t-17.5 -22t-7 -40q33 1 45 2l-9 -50q-9 1 -36 1v-369
q0 -30 4.5 -48.5t17 -27t24.5 -11t37 -3.5q7 -4 7 -16.5t-7 -17.5q-80 2 -152 2q-74 0 -154 -2q-7 5 -7 17.5t7 16.5q25 1 37 3.5t24.5 11t17 27t4.5 48.5v197h-310v-197q0 -30 4.5 -48.5t17 -27t24.5 -11t37 -3.5q7 -4 7 -16.5t-7 -17.5q-80 2 -152 2q-74 0 -154 -2
q-7 5 -7 17.5t7 16.5q25 1 37 3.5t24.5 11t17 27t4.5 48.5v370q-76 -1 -96 -2l9 50q15 -1 87 -2q-2 25 -7 40t-17.5 22t-24 9.5t-34.5 3.5q-7 5 -7 17.5t7 16.5q80 -2 154 -2q72 0 152 2q7 -4 7 -16.5t-7 -17.5q-23 -1 -35 -3.5t-24 -9.5t-17.5 -22.5t-6.5 -40.5z" />
    <glyph glyph-name="hbar" unicode="&#x127;" horiz-adv-x="619" 
d="M528 128q0 -42 7 -62t22 -26t48 -8q4 -5 4 -17.5t-4 -16.5q-86 2 -142 2q-38 0 -122 -2q-5 4 -5 16.5t5 17.5q23 2 33.5 8t17 26.5t6.5 61.5v167q0 40 -21 57.5t-54 17.5t-93 -38v-205q0 -41 6 -61t17 -26t34 -8q4 -5 4 -17.5t-4 -16.5q-86 2 -122 2q-58 0 -142 -2
q-5 4 -5 16.5t5 17.5q48 2 62.5 18.5t14.5 76.5v396q-50 -1 -85 -3l9 50q33 -2 76 -3q0 27 -1 39t-10 20t-19.5 10t-37.5 4q-8 14 -3 32q124 5 188 26q16 0 16 -13q-3 -37 -3 -102v-16q55 1 92 3l-9 -50q-37 2 -83 3v-151q115 72 165 72q133 0 133 -160v-156z" />
    <glyph glyph-name="Itilde" unicode="&#x128;" horiz-adv-x="367" 
d="M258 762q32 0 49 43q11 0 19.5 -5.5t8.5 -14.5q-13 -43 -38 -68t-53 -25q-37 0 -65 21q-26 17 -58 17q-13 0 -20.5 -2t-15.5 -11t-13 -27q-26 0 -26 18q13 40 35.5 66.5t47.5 26.5q43 0 74 -25q18 -14 55 -14zM114 523q0 30 -4.5 48.5t-17 27t-24.5 11t-37 3.5
q-7 5 -7 17t7 17q80 -2 154 -2q72 0 152 2q7 -5 7 -17t-7 -17q-25 -1 -37 -3.5t-24.5 -11t-17 -27t-4.5 -48.5v-401q0 -30 4.5 -48.5t17 -27t24.5 -11t37 -3.5q7 -4 7 -17t-7 -17q-80 2 -152 2q-74 0 -154 -2q-7 4 -7 17t7 17q25 1 37 3.5t24.5 11t17 27t4.5 48.5v401z" />
    <glyph glyph-name="itilde" unicode="&#x129;" horiz-adv-x="322" 
d="M208 589q29 0 44 43q10 0 17.5 -5.5t7.5 -14.5q-11 -43 -34 -68t-48 -25q-33 0 -59 21q-23 17 -52 17q-12 0 -18.5 -2t-13.5 -11t-12 -27q-23 0 -23 18q11 40 31.5 66.5t42.5 26.5q39 0 67 -25q16 -14 50 -14zM232 122q0 -32 2 -48.5t11.5 -26t21 -11.5t37.5 -4
q4 -4 4 -17t-4 -17q-86 2 -137 2q-53 0 -137 -2q-5 4 -5 17t5 17q27 2 37.5 4.5t20.5 11.5t12 25.5t2 48.5v192q0 42 -11.5 54t-53.5 16q-2 5 -2.5 16t0.5 16q14 2 41.5 5.5t44 5.5t36.5 5t34 6t22 6q23 0 23 -17q-4 -56 -4 -106v-199z" />
    <glyph glyph-name="Imacron" unicode="&#x12a;" horiz-adv-x="367" 
d="M313 755h-274q-15 0 -15 18q0 10 8 21t17 11h276q14 0 14 -17q0 -11 -8 -22t-18 -11zM114 523q0 30 -4.5 48.5t-17 27t-24.5 11t-37 3.5q-7 5 -7 17t7 17q80 -2 154 -2q72 0 152 2q7 -5 7 -17t-7 -17q-25 -1 -37 -3.5t-24.5 -11t-17 -27t-4.5 -48.5v-401q0 -30 4.5 -48.5
t17 -27t24.5 -11t37 -3.5q7 -4 7 -17t-7 -17q-80 2 -152 2q-74 0 -154 -2q-7 4 -7 17t7 17q25 1 37 3.5t24.5 11t17 27t4.5 48.5v401z" />
    <glyph glyph-name="imacron" unicode="&#x12b;" horiz-adv-x="322" 
d="M274 543h-246q-14 0 -14 18q0 10 7 21t16 11h248q13 0 13 -17q0 -11 -7.5 -22t-16.5 -11zM232 122q0 -60 12 -73.5t60 -16.5q4 -4 4 -17t-4 -17q-86 2 -137 2q-53 0 -137 -2q-4 4 -4 17t4 17q48 4 60 17t12 73v192q0 42 -11.5 54t-53.5 16q-6 19 -2 32q159 21 178 28
q23 0 23 -17q-4 -56 -4 -106v-199z" />
    <glyph glyph-name="Ibreve" unicode="&#x12c;" horiz-adv-x="367" 
d="M318 830q-4 -52 -44.5 -88.5t-90.5 -36.5q-54 0 -93 36t-43 89l28 3q11 -54 108 -54q41 0 72 13.5t36 40.5zM114 523q0 30 -4.5 48.5t-17 27t-24.5 11t-37 3.5q-7 5 -7 17t7 17q80 -2 154 -2q72 0 152 2q7 -5 7 -17t-7 -17q-25 -1 -37 -3.5t-24.5 -11t-17 -27t-4.5 -48.5
v-401q0 -30 4.5 -48.5t17 -27t24.5 -11t37 -3.5q7 -4 7 -17t-7 -17q-80 2 -152 2q-74 0 -154 -2q-7 4 -7 17t7 17q25 1 37 3.5t24.5 11t17 27t4.5 48.5v401z" />
    <glyph glyph-name="ibreve" unicode="&#x12d;" horiz-adv-x="322" 
d="M54 667q1 -39 27 -59t70 -20q39 0 67 18t29 61l29 -10q-6 -71 -44.5 -107t-80.5 -36q-53 0 -87.5 40.5t-39.5 102.5zM232 122q0 -32 2 -48.5t11.5 -26t21 -11.5t37.5 -4q5 -4 5 -17t-5 -17q-86 2 -137 2q-53 0 -137 -2q-4 4 -4 17t4 17q27 2 37.5 4.5t20.5 11.5t12 25.5
t2 48.5v192q0 42 -11.5 54t-53.5 16q-2 5 -2.5 16t0.5 16q14 2 41.5 5.5t44 5.5t36.5 5t34 6t22 6q23 0 23 -17q-4 -56 -4 -106v-199z" />
    <glyph glyph-name="Iogonek" unicode="&#x12e;" horiz-adv-x="367" 
d="M277 -177q-40 -55 -109 -55q-25 0 -50 16q-39 26 -39 80q0 35 29.5 73.5t69.5 62.5q-70 0 -147 -2q-7 4 -7 17t7 17q25 1 37 3.5t24.5 11t17 27t4.5 48.5v401q0 30 -4.5 48.5t-17 27t-24.5 11t-37 3.5q-7 5 -7 17t7 17q80 -2 154 -2q72 0 152 2q7 -5 7 -17t-7 -17
q-25 -1 -37 -3.5t-24.5 -11t-17 -27t-4.5 -48.5v-401q0 -30 4.5 -48.5t17 -27t24.5 -11t37 -3.5q7 -4 7 -17t-7 -17q-40 1 -82 2q-35 -8 -59.5 -46.5t-24.5 -83.5q0 -42 35 -42q38 0 56 18z" />
    <glyph glyph-name="iogonek" unicode="&#x12f;" horiz-adv-x="322" 
d="M277 -177q-19 -26 -49 -40.5t-60 -14.5q-25 0 -50 16q-39 26 -39 80q0 35 29.5 73.5t69.5 62.5h-11q-53 0 -137 -2q-4 4 -4 16.5t4 17.5q27 2 37.5 4.5t20.5 11.5t12 25.5t2 48.5v192q0 42 -11.5 54t-53.5 16q-2 5 -2.5 16t0.5 16q14 2 41.5 5.5t44 5.5t36.5 5t34 6t22 6
q23 0 23 -17q-4 -56 -4 -106v-199q0 -32 2 -48.5t11.5 -26t21 -11.5t37.5 -4q4 -5 4 -17.5t-4 -16.5q-35 1 -50 1q-35 -8 -59 -46t-24 -83q0 -42 35 -42q38 0 56 18zM97 596q0 25 18.5 43.5t51.5 18.5q29 0 47 -20.5t18 -45.5q0 -22 -20 -42t-51 -20q-29 0 -46.5 20
t-17.5 46z" />
    <glyph glyph-name="Idotaccent" unicode="&#x130;" horiz-adv-x="367" 
d="M121 771q0 25 18.5 43.5t43.5 18.5t43.5 -18.5t18.5 -43.5t-18.5 -43.5t-43.5 -18.5t-43.5 18.5t-18.5 43.5zM114 523q0 30 -4.5 48.5t-17 27t-24.5 11t-37 3.5q-7 5 -7 17t7 17q80 -2 154 -2q72 0 152 2q7 -5 7 -17t-7 -17q-25 -1 -37 -3.5t-24.5 -11t-17 -27
t-4.5 -48.5v-401q0 -30 4.5 -48.5t17 -27t24.5 -11t37 -3.5q7 -4 7 -17t-7 -17q-80 2 -152 2q-74 0 -154 -2q-7 4 -7 17t7 17q25 1 37 3.5t24.5 11t17 27t4.5 48.5v401z" />
    <glyph glyph-name="dotlessi" unicode="&#x131;" horiz-adv-x="322" 
d="M232 122q0 -60 12 -73.5t60 -16.5q4 -4 4 -17t-4 -17q-86 2 -137 2q-53 0 -137 -2q-4 4 -4 17t4 17q48 4 60 17t12 73v192q0 42 -11.5 54t-53.5 16q-6 19 -2 32q159 21 178 28q23 0 23 -17q-4 -56 -4 -106v-199z" />
    <glyph glyph-name="IJ" unicode="&#x132;" horiz-adv-x="740" 
d="M648 522v-419q0 -51 -9 -90.5t-26.5 -66.5t-31 -42t-35.5 -33q-68 -58 -151 -58q-28 0 -63 20t-35 51q0 20 21 38t37 18q14 0 24.5 -5t14.5 -10.5t10 -15.5t9 -14q18 -23 46 -23q17 0 26 6.5t14.5 31t7 62t1.5 109.5v441q0 60 -17 74.5t-80 16.5q-5 5 -5 17t5 17
q100 -2 166 -2q50 0 148 2q5 -5 5 -17t-5 -17q-48 -2 -62.5 -17t-14.5 -74zM114 523q0 30 -4.5 48.5t-17 27t-24.5 11t-37 3.5q-7 5 -7 17t7 17q80 -2 154 -2q72 0 152 2q7 -5 7 -17t-7 -17q-25 -1 -37 -3.5t-24.5 -11t-17 -27t-4.5 -48.5v-401q0 -30 4.5 -48.5t17 -27
t24.5 -11t37 -3.5q7 -4 7 -17t-7 -17q-80 2 -152 2q-74 0 -154 -2q-7 4 -7 17t7 17q25 1 37 3.5t24.5 11t17 27t4.5 48.5v401z" />
    <glyph glyph-name="ij" unicode="&#x133;" horiz-adv-x="641" 
d="M431 314q0 42 -11.5 54t-53.5 16q-6 19 -2 32q159 21 178 28q23 0 23 -17q-4 -56 -4 -106v-211q0 -131 -20.5 -192.5t-60.5 -93.5q-33 -28 -66 -42t-86 -14q-28 0 -57 18.5t-29 48.5q0 20 18 40t32 20q8 0 16 -2t13.5 -4.5t12 -8t9.5 -8.5l10 -10l8 -8q18 -18 30 -18
q21 0 34 22.5t13 49.5q0 34 -3.5 87.5t-3.5 80.5v238zM424 596q0 25 18.5 43.5t51.5 18.5q29 0 47 -20.5t18 -45.5q0 -22 -20 -42t-51 -20q-29 0 -46.5 20t-17.5 46zM232 122q0 -60 12 -73.5t60 -16.5q4 -4 4 -17t-4 -17q-86 2 -137 2q-53 0 -137 -2q-4 4 -4 17t4 17
q48 4 60 17t12 73v192q0 42 -11.5 54t-53.5 16q-6 19 -2 32q159 21 178 28q23 0 23 -17q-4 -56 -4 -106v-199zM97 596q0 25 18.5 43.5t51.5 18.5q29 0 47 -20.5t18 -45.5q0 -22 -20 -42t-51 -20q-29 0 -46.5 20t-17.5 46z" />
    <glyph glyph-name="Jcircumflex" unicode="&#x134;" horiz-adv-x="373" 
d="M347 724q0 -19 -16 -26q-86 26 -124 56q-45 -33 -123 -56q-14 6 -14 27q64 41 127 104l14 5q62 -62 136 -110zM281 522v-419q0 -51 -9 -90.5t-26.5 -66.5t-31 -42t-35.5 -33q-68 -58 -151 -58q-28 0 -63 20t-35 51q0 20 21 38t37 18q14 0 24.5 -5t14.5 -10.5t10 -15.5
t9 -14q18 -23 46 -23q17 0 26 6.5t14.5 31t7 62t1.5 109.5v441q0 60 -17 74.5t-80 16.5q-4 5 -4 17t4 17q100 -2 166 -2q50 0 148 2q4 -5 4 -17t-4 -17q-48 -2 -62.5 -17t-14.5 -74z" />
    <glyph glyph-name="jcircumflex" unicode="&#x135;" horiz-adv-x="312" 
d="M189 663q34 -55 105 -134l-25 -19q-67 40 -107 83q-37 -38 -106 -83l-25 19q77 88 106 134h52zM102 314q0 42 -11.5 54t-53.5 16q-6 19 -2 32q159 21 178 28q23 0 23 -17q-4 -56 -4 -106v-211q0 -131 -20.5 -192.5t-60.5 -93.5q-33 -28 -66 -42t-86 -14q-28 0 -57 18.5
t-29 48.5q0 20 18 40t32 20q8 0 16 -2t13.5 -4.5t12 -8t9.5 -8.5l10 -10l8 -8q18 -18 30 -18q21 0 34 22.5t13 49.5q0 34 -3.5 87.5t-3.5 80.5v238z" />
    <glyph glyph-name="Kcommaaccent" unicode="&#x136;" horiz-adv-x="736" 
d="M371 -51q29 0 50.5 -17.5t21.5 -60.5q0 -41 -33.5 -70.5t-86.5 -38.5q-13 8 -6 28q29 8 47 23.5t18 29.5q0 6 -2 10t-6.5 6.5t-7 3.5t-8.5 2l-5 1q-33 8 -33 45q0 13 17 25.5t34 12.5zM108 523q0 30 -4.5 48.5t-17 27t-24.5 11t-37 3.5q-8 4 -8 16.5t8 17.5q80 -2 154 -2
q72 0 152 2q7 -5 7 -17.5t-7 -16.5q-25 -1 -37 -3.5t-24.5 -11t-17 -27t-4.5 -48.5v-181q25 8 51 26t75 62q76 63 107 95q78 80 -5 88q-4 4 -4 16.5t4 17.5q75 -2 123 -2q45 0 95 2q4 -5 4 -17.5t-4 -16.5q-28 -4 -60 -22t-54.5 -36t-59.5 -51l-109 -97q-12 -11 -12 -29
q0 -9 30 -45l219 -259q18 -21 35.5 -30t42.5 -12q4 -5 4 -17.5t-4 -16.5q-78 2 -118 2q-63 0 -103 -2q-4 0 -5 6q-3 28 -36 70l-151 197q-17 21 -30.5 31.5t-34.5 15.5v-196q0 -30 4.5 -48.5t17 -27t24.5 -11t37 -3.5q7 -4 7 -17t-7 -17q-80 2 -152 2q-74 0 -154 -2
q-7 4 -7 17t7 17q25 1 37 3.5t24.5 11t17 27t4.5 48.5v401z" />
    <glyph glyph-name="kcommaaccent" unicode="&#x137;" horiz-adv-x="613" 
d="M302 -51q29 0 50.5 -17.5t21.5 -60.5q0 -41 -33.5 -70.5t-86.5 -38.5q-13 8 -6 28q29 8 47 23.5t18 29.5q0 6 -2 10t-6.5 6.5t-7 3.5t-7.5 2l-6 1q-33 8 -33 45q0 13 17 25.5t34 12.5zM100 127v438q0 50 -10 60.5t-58 14.5q-8 14 -3 32q124 5 188 26q16 0 16 -13
q-3 -37 -3 -102v-334q21 0 50 9.5t39 18.5q32 28 64 72q20 30 10.5 40t-51.5 13q-4 4 -4 17t4 17q74 -2 121 -2q67 0 111 2q4 -4 4 -17t-4 -17q-27 -3 -47.5 -9.5t-38 -21t-24.5 -21t-26 -26.5l-49 -55q-6 -7 3 -20l116 -171q5 -7 9.5 -13t10 -10.5t9 -7.5t9.5 -5.5t9 -3.5
t10.5 -2.5t9.5 -1.5t11.5 -1t12.5 -1q5 -4 5 -17t-5 -17q-74 2 -134 2l-80 -2l-2 2v26q0 18 -16 52q-17 36 -68 112q-13 19 -69 19v-82q0 -58 10.5 -75t36.5 -20q5 -4 5 -17t-5 -17q-48 2 -112 2q-58 0 -142 -2q-5 4 -5 17t5 17q48 2 62.5 18.5t14.5 76.5z" />
    <glyph glyph-name="kgreenlandic" unicode="&#x138;" horiz-adv-x="603" 
d="M232 122q0 -32 2 -48.5t11.5 -26t21 -11.5t37.5 -4q4 -5 4 -17.5t-4 -16.5q-86 2 -137 2q-53 0 -137 -2q-4 4 -4 16.5t4 17.5q27 2 37.5 4.5t20.5 11.5t12 25.5t2 48.5v192q0 42 -11.5 54t-53.5 16q-2 5 -2.5 16t0.5 16q14 2 41.5 5.5t44 5.5t36.5 5t34 6t22 6
q23 0 23 -17q-4 -56 -4 -106v-72q20 0 43 9.5t34 18.5q25 22 64 72q15 23 9 36.5t-20 14.5l-21 2q-13 1 -13 10v22l5 2q87 -2 122 -2l115 2l3 -2v-22q0 -6 -1.5 -8t-8.5 -2l-30 -2q-13 -1 -36.5 -15.5t-42.5 -33.5l-75 -82q-6 -7 3 -20l116 -171q26 -40 56 -43l29 -3
q8 -1 8 -6v-26l-3 -2q-70 2 -109 2l-104 -2l-2 2v26q0 18 -16 52q-17 36 -68 112q-13 19 -57 19v-87z" />
    <glyph glyph-name="Lacute" unicode="&#x139;" horiz-adv-x="577" 
d="M252 833q43 -20 65 -55l-3 -12l-144 -58q-18 -7 -35 -7q-7 0 -13.5 4.5t-6.5 10.5q0 12 10 21q45 39 127 96zM349 42q73 0 109 33.5t53 94.5q25 4 43 -5q-10 -87 -26 -167q-91 2 -120 2h-223l-154 -2q-7 4 -7 16.5t7 17.5q25 1 37 3.5t24.5 11t17 27t4.5 48.5v401
q0 30 -4.5 48.5t-17 27t-24.5 11t-37 3.5q-7 4 -7 16.5t7 17.5q114 -2 154 -2q18 0 36.5 0.5t51 1t64.5 0.5q7 -5 7 -17.5t-7 -16.5q-25 -1 -37 -3.5t-24.5 -11t-17 -27t-4.5 -48.5v-402q0 -79 35 -79h60z" />
    <glyph glyph-name="lacute" unicode="&#x13a;" horiz-adv-x="325" 
d="M192 863q43 -20 65 -55l-3 -12l-144 -58q-18 -7 -35 -7q-7 0 -13.5 4.5t-6.5 10.5q0 12 10 21q45 39 127 96zM100 127v438q0 28 -1 40.5t-10 20.5t-19.5 10t-37.5 4q-8 14 -3 32q124 5 188 26q16 0 16 -13q-3 -37 -3 -102v-456q0 -60 14.5 -76.5t62.5 -18.5q5 -5 5 -17.5
t-5 -16.5q-86 2 -142 2q-58 0 -142 -2q-5 4 -5 16.5t5 17.5q48 2 62.5 18.5t14.5 76.5z" />
    <glyph glyph-name="Lcommaaccent" unicode="&#x13b;" horiz-adv-x="577" 
d="M263 -51q29 0 50.5 -17.5t21.5 -60.5q0 -41 -33.5 -70.5t-86.5 -38.5q-13 8 -6 28q29 8 47 23.5t18 29.5q0 6 -2 10t-6.5 6.5t-7 3.5t-8.5 2l-5 1q-33 8 -33 45q0 13 17 25.5t34 12.5zM349 42q73 0 109 33.5t53 94.5q25 4 43 -5q-10 -87 -26 -167q-91 2 -120 2h-223
l-154 -2q-7 4 -7 17t7 17q25 1 37 3.5t24.5 11t17 27t4.5 48.5v401q0 30 -4.5 48.5t-17 27t-24.5 11t-37 3.5q-7 5 -7 17t7 17q114 -2 154 -2q18 0 36.5 0.5t51 1t64.5 0.5q7 -5 7 -17t-7 -17q-25 -1 -37 -3.5t-24.5 -11t-17 -27t-4.5 -48.5v-402q0 -79 35 -79h60z" />
    <glyph glyph-name="lcommaaccent" unicode="&#x13c;" horiz-adv-x="325" 
d="M100 127v438q0 50 -10 60.5t-58 14.5q-8 14 -3 32q124 5 188 26q16 0 16 -13q-3 -37 -3 -102v-456q0 -60 14.5 -76.5t62.5 -18.5q5 -4 5 -17t-5 -17q-86 2 -142 2q-58 0 -142 -2q-5 4 -5 17t5 17q48 2 62.5 18.5t14.5 76.5zM155 -51q29 0 50.5 -17.5t21.5 -60.5
q0 -41 -33.5 -70.5t-86.5 -38.5q-13 8 -6 28q29 8 47 23.5t18 29.5q0 6 -2 10t-6.5 6.5t-7 3.5t-8.5 2l-5 1q-33 8 -33 45q0 13 17 25.5t34 12.5z" />
    <glyph glyph-name="Lcaron" unicode="&#x13d;" horiz-adv-x="577" 
d="M430 698q27 0 43.5 -22t16.5 -51q0 -12 -4 -27t-14.5 -33.5t-33 -31t-54.5 -14.5l-4 17q29 6 44.5 27.5t15.5 41.5q0 18 -11 18q-46 0 -46 41q0 34 47 34zM349 42q73 0 109 33.5t53 94.5q25 4 43 -5q-10 -87 -26 -167q-91 2 -120 2h-223l-154 -2q-7 4 -7 17t7 17
q25 1 37 3.5t24.5 11t17 27t4.5 48.5v401q0 30 -4.5 48.5t-17 27t-24.5 11t-37 3.5q-7 5 -7 17t7 17q114 -2 154 -2q18 0 36.5 0.5t51 1t64.5 0.5q7 -5 7 -17t-7 -17q-25 -1 -37 -3.5t-24.5 -11t-17 -27t-4.5 -48.5v-402q0 -79 35 -79h60z" />
    <glyph glyph-name="lcaron" unicode="&#x13e;" horiz-adv-x="368" 
d="M336 698q27 0 43.5 -22t16.5 -51q0 -12 -4 -27t-14.5 -33.5t-33 -31t-54.5 -14.5l-4 17q29 6 44.5 27.5t15.5 41.5q0 18 -11 18q-46 0 -46 41q0 34 47 34zM100 127v438q0 50 -10 60.5t-58 14.5q-8 14 -3 32q124 5 188 26q16 0 16 -13q-3 -37 -3 -102v-456
q0 -60 14.5 -76.5t62.5 -18.5q5 -4 5 -17t-5 -17q-86 2 -142 2q-58 0 -142 -2q-5 4 -5 17t5 17q48 2 62.5 18.5t14.5 76.5z" />
    <glyph glyph-name="Ldot" unicode="&#x13f;" horiz-adv-x="577" 
d="M371 385q0 25 18.5 43.5t51.5 18.5q29 0 47 -20.5t18 -45.5q0 -22 -20 -42t-51 -20q-29 0 -46.5 20t-17.5 46zM349 42q73 0 109 33.5t53 94.5q25 4 43 -5q-10 -87 -26 -167q-91 2 -120 2h-223l-154 -2q-7 4 -7 17t7 17q25 1 37 3.5t24.5 11t17 27t4.5 48.5v401
q0 30 -4.5 48.5t-17 27t-24.5 11t-37 3.5q-7 5 -7 17t7 17q114 -2 154 -2q18 0 36.5 0.5t51 1t64.5 0.5q7 -5 7 -17t-7 -17q-25 -1 -37 -3.5t-24.5 -11t-17 -27t-4.5 -48.5v-402q0 -79 35 -79h60z" />
    <glyph glyph-name="ldot" unicode="&#x140;" horiz-adv-x="399" 
d="M262 386q0 25 18.5 43.5t51.5 18.5q29 0 47 -20.5t18 -45.5q0 -22 -20 -42t-51 -20q-29 0 -46.5 20t-17.5 46zM100 127v438q0 50 -10 60.5t-58 14.5q-8 14 -3 32q124 5 188 26q16 0 16 -13q-3 -37 -3 -102v-456q0 -60 14.5 -76.5t62.5 -18.5q5 -4 5 -17t-5 -17
q-86 2 -142 2q-58 0 -142 -2q-5 4 -5 17t5 17q48 2 62.5 18.5t14.5 76.5z" />
    <glyph glyph-name="Lslash" unicode="&#x141;" horiz-adv-x="577" 
d="M349 42q73 0 109 33.5t53 94.5q25 4 43 -5q-10 -87 -26 -167q-91 2 -120 2h-223l-154 -2q-7 4 -7 17t7 17q25 1 37 3.5t24.5 11t17 27t4.5 48.5v151q-44 -27 -71 -46l-18 47q62 34 89 50v199q0 30 -4.5 48.5t-17 27t-24.5 11t-37 3.5q-7 5 -7 17t7 17q114 -2 154 -2
q18 0 36.5 0.5t51 1t64.5 0.5q7 -5 7 -17t-7 -17q-25 -1 -37 -3.5t-24.5 -11t-17 -27t-4.5 -48.5v-113q44 28 72 48l18 -48q-41 -22 -90 -52v-237q0 -79 35 -79h60z" />
    <glyph glyph-name="lslash" unicode="&#x142;" horiz-adv-x="325" 
d="M230 376v-249q0 -60 14.5 -76.5t62.5 -18.5q5 -4 5 -16.5t-5 -17.5q-86 2 -142 2q-58 0 -142 -2q-4 5 -4 17.5t4 16.5q48 2 62.5 18.5t14.5 76.5v168q-31 -21 -67 -45l-18 48q39 21 85 48v219q0 28 -1 40.5t-10 20.5t-19.5 10t-37.5 4q-8 14 -3 32q124 5 188 26
q16 0 16 -13q-3 -37 -3 -102v-156q34 22 66 45l18 -48q-38 -21 -84 -48z" />
    <glyph glyph-name="Nacute" unicode="&#x143;" horiz-adv-x="740" 
d="M412 833q43 -20 65 -55l-3 -12l-144 -58q-18 -7 -35 -7q-7 0 -13.5 4.5t-6.5 10.5q0 12 10 21q45 39 127 96zM631 0q-25 -12 -63 -12q-21 19 -40 44l-335 398q-17 20 -24 20q-8 0 -8 -20v-297q0 -35 3 -53.5t15 -28.5t25 -13t44 -6q5 -5 5 -17.5t-5 -16.5q-100 2 -112 2
q-14 0 -112 -2q-4 4 -4 16.5t4 17.5q30 3 43.5 6t25.5 13.5t15 29t3 52.5v417q-5 22 -27 41.5t-52 21.5q-4 4 -4 16.5t4 17.5l163 -2l89 -105l265 -313q12 -13 19 -13.5t8 17.5v281q0 35 -3 53.5t-15 28.5t-25 13t-44 6q-5 4 -5 16.5t5 17.5q100 -2 116 -2q10 0 108 2
q5 -5 5 -17.5t-5 -16.5q-30 -3 -43.5 -6t-25.5 -13.5t-15 -29t-3 -52.5v-410z" />
    <glyph glyph-name="nacute" unicode="&#x144;" horiz-adv-x="616" 
d="M326 674q6 2 16 2q38 0 57 -24l10 -23l-120 -108q-19 -16 -38 -16q-6 0 -11 4.5t-5 9.5q0 12 8 24zM228 122q0 -42 5 -60t14 -23t33 -7q5 -5 5 -17.5t-5 -16.5q-86 2 -117 2q-53 0 -137 -2q-4 4 -4 16.5t4 17.5q27 2 37.5 4.5t20.5 11.5t12 25.5t2 48.5v187
q0 42 -11.5 54t-53.5 16q-2 5 -2.5 16t0.5 16q85 11 166 33q22 0 23 -17q4 -30 7 -65q119 82 166 82q133 0 133 -160v-156q0 -42 7 -62t22 -26t48 -8q5 -5 5 -17.5t-5 -16.5q-86 2 -142 2q-38 0 -122 -2q-5 4 -5 16.5t5 17.5q23 2 33.5 8t17 26.5t6.5 61.5v167q0 75 -70 75
q-30 0 -98 -47v-2v-199z" />
    <glyph glyph-name="Ncommaaccent" unicode="&#x145;" horiz-adv-x="740" 
d="M354 -51q29 0 50.5 -17.5t21.5 -60.5q0 -41 -33.5 -70.5t-86.5 -38.5q-13 8 -6 28q29 8 47 23.5t18 29.5q0 6 -2 10t-6.5 6.5t-7 3.5t-7.5 2l-6 1q-33 8 -33 45q0 13 17 25.5t34 12.5zM631 0q-25 -12 -63 -12q-21 19 -40 44l-335 398q-17 20 -24 20q-8 0 -8 -20v-297
q0 -35 3 -53.5t15 -28.5t25 -13t44 -6q5 -4 5 -17t-5 -17q-100 2 -112 2q-14 0 -112 -2q-4 4 -4 17t4 17q30 3 43.5 6t25.5 13.5t15 29t3 52.5v417q-5 22 -27 41.5t-52 21.5q-4 5 -4 17t4 17l163 -2l89 -105l265 -312q12 -14 19 -14.5t8 17.5v281q0 46 -8.5 66t-23.5 25.5
t-55 9.5q-5 5 -5 17t5 17q100 -2 116 -2q10 0 108 2q5 -5 5 -17t-5 -17q-40 -4 -55 -10t-23.5 -26t-8.5 -65v-410z" />
    <glyph glyph-name="ncommaaccent" unicode="&#x146;" horiz-adv-x="616" 
d="M287 -51q29 0 50.5 -17.5t21.5 -60.5q0 -41 -33.5 -70.5t-86.5 -38.5q-13 8 -6 28q29 8 47 23.5t18 29.5q0 6 -2 10t-6.5 6.5t-7 3.5t-8.5 2l-5 1q-33 8 -33 45q0 13 17 25.5t34 12.5zM228 122q0 -42 5 -60t14 -23t33 -7q5 -5 5 -17.5t-5 -16.5q-86 2 -117 2
q-53 0 -137 -2q-4 4 -4 16.5t4 17.5q27 2 37.5 4.5t20.5 11.5t12 25.5t2 48.5v187q0 42 -11.5 54t-53.5 16q-2 5 -2.5 16t0.5 16q85 11 166 33q22 0 23 -17q4 -30 7 -65q119 82 166 82q133 0 133 -160v-156q0 -42 7 -62t22 -26t48 -8q5 -5 5 -17.5t-5 -16.5q-86 2 -142 2
q-38 0 -122 -2q-5 4 -5 16.5t5 17.5q23 2 33.5 8t17 26.5t6.5 61.5v167q0 75 -70 75q-30 0 -98 -47v-2v-199z" />
    <glyph glyph-name="Ncaron" unicode="&#x147;" horiz-adv-x="740" 
d="M219 808q0 19 16 26q86 -26 124 -56q45 33 123 56q14 -6 14 -27q-64 -41 -127 -104l-14 -5q-62 62 -136 110zM631 0q-25 -12 -63 -12q-21 19 -40 44l-335 398q-17 20 -24 20q-8 0 -8 -20v-297q0 -35 3 -53.5t15 -28.5t25 -13t44 -6q5 -4 5 -17t-5 -17q-100 2 -112 2
q-14 0 -112 -2q-4 4 -4 17t4 17q30 3 43.5 6t25.5 13.5t15 29t3 52.5v417q-5 22 -27 41.5t-52 21.5q-4 5 -4 17t4 17l163 -2l89 -105l265 -312q12 -14 19 -14.5t8 17.5v281q0 46 -8.5 66t-23.5 25.5t-55 9.5q-5 5 -5 17t5 17q100 -2 116 -2q10 0 108 2q5 -5 5 -17t-5 -17
q-40 -4 -55 -10t-23.5 -26t-8.5 -65v-410z" />
    <glyph glyph-name="ncaron" unicode="&#x148;" horiz-adv-x="616" 
d="M328 514h-50q-29 47 -102 129l24 18q62 -43 102 -84q35 37 103 84l24 -18q-68 -76 -101 -129zM228 122q0 -42 5 -60t14 -23t33 -7q5 -5 5 -17.5t-5 -16.5q-86 2 -117 2q-53 0 -137 -2q-4 4 -4 16.5t4 17.5q27 2 37.5 4.5t20.5 11.5t12 25.5t2 48.5v187q0 42 -11.5 54
t-53.5 16q-2 5 -2.5 16t0.5 16q85 11 166 33q22 0 23 -17q4 -30 7 -65q119 82 166 82q133 0 133 -160v-156q0 -42 7 -62t22 -26t48 -8q5 -5 5 -17.5t-5 -16.5q-86 2 -142 2q-38 0 -122 -2q-5 4 -5 16.5t5 17.5q23 2 33.5 8t17 26.5t6.5 61.5v167q0 75 -70 75q-30 0 -98 -47
v-2v-199z" />
    <glyph glyph-name="napostrophe" unicode="&#x149;" horiz-adv-x="565" 
d="M72 698q27 0 43.5 -22t16.5 -51q0 -12 -4 -27t-14.5 -33.5t-33 -31t-54.5 -14.5l-4 17q29 6 44.5 27.5t15.5 41.5q0 18 -11 18q-46 0 -46 41q0 34 47 34zM241 122q0 -42 5 -60t14 -23t33 -7q5 -5 5 -17.5t-5 -16.5q-86 2 -117 2q-53 0 -137 -2q-4 4 -4 16.5t4 17.5
q27 2 37.5 4.5t20.5 11.5t12 25.5t2 48.5v187q0 42 -11.5 54t-53.5 16q-2 5 -2.5 16t0.5 16q85 11 166 33q22 0 23 -17q4 -30 7 -65q119 82 166 82q133 0 133 -160v-156q0 -42 7 -62t22 -26t48 -8q4 -5 4 -17.5t-4 -16.5q-86 2 -142 2q-38 0 -122 -2q-4 4 -4 16.5t4 17.5
q23 2 33.5 8t17 26.5t6.5 61.5v167q0 75 -70 75q-30 0 -98 -47v-2v-199z" />
    <glyph glyph-name="Eng" unicode="&#x14a;" horiz-adv-x="805" 
d="M703 103q0 -50 -9 -89.5t-26.5 -67t-31 -42.5t-35.5 -33q-68 -58 -151 -58q-28 0 -63 20t-35 51q0 20 21 38t37 18q14 0 24.5 -5t14.5 -10.5t10 -15.5t9 -14q18 -23 46 -23q32 0 40 36t9 173v258q0 138 -42 199q-22 31 -39.5 42.5t-50.5 11.5q-68 0 -167 -118
q-15 -18 -18 -38v-314q0 -59 15.5 -73.5t71.5 -16.5q5 -4 5 -17t-5 -17q-100 2 -144 2q-72 0 -170 -2q-5 4 -5 17t5 17q56 2 71.5 16.5t15.5 73.5v401q0 59 -15.5 73.5t-71.5 16.5q-5 5 -5 17t5 17q100 -2 169 -2q31 0 49 2q13 0 13 -10q-4 -40 -4 -105v-18q1 0 3.5 1.5
t3.5 3.5l2 2q43 60 104 98.5t118 38.5q47 0 91.5 -18t70.5 -48q64 -75 64 -263v-226z" />
    <glyph glyph-name="eng" unicode="&#x14b;" horiz-adv-x="615" 
d="M521 283v-173q0 -135 -16.5 -195t-54.5 -91q-32 -27 -69.5 -41.5t-94.5 -14.5q-23 0 -47 15t-24 41q0 16 15 32.5t27 16.5q6 0 13 -1.5t11.5 -4t10 -6.5t8 -6.5l8 -8t6.5 -7.5q14 -14 40 -14q18 0 31 27t13 56q0 34 -3.5 87.5t-3.5 80.5v219q0 39 -23 57t-57 18
q-41 0 -83 -26v-23v-199q0 -59 9 -73t43 -17q4 -4 4 -17t-4 -17q-86 2 -117 2q-53 0 -137 -2q-4 4 -4 17t4 17q48 4 60 17t12 73v187q0 42 -11.5 54t-53.5 16q-6 19 -2 32q85 11 166 33q22 0 23 -17q3 -19 5 -44q109 61 158 61q138 0 138 -161z" />
    <glyph glyph-name="Omacron" unicode="&#x14c;" horiz-adv-x="730" 
d="M495 755h-274q-15 0 -15 18q0 10 8 21t17 11h276q14 0 14 -17q0 -11 -8 -22t-18 -11zM351 616q-72 0 -117.5 -71t-45.5 -216q0 -137 55.5 -217t140.5 -80q75 0 117 75t42 201q0 147 -54 227.5t-138 80.5zM694 329q0 -147 -86 -240q-92 -99 -244 -99q-64 0 -123 22.5
t-104.5 62.5t-72.5 101t-27 133q0 140 81 237q44 53 107.5 82.5t137.5 29.5q140 0 235.5 -91.5t95.5 -237.5z" />
    <glyph glyph-name="omacron" unicode="&#x14d;" horiz-adv-x="551" 
d="M407 543h-274q-15 0 -15 18q0 10 8 21t17 11h276q14 0 14 -17q0 -11 -8 -22t-18 -11zM260 402q-83 0 -83 -173q0 -69 29.5 -133t84.5 -64q33 0 58 35.5t25 116.5q0 102 -31 160t-83 58zM37 207q0 100 55 163q64 74 184 74q109 0 173.5 -64t64.5 -164q0 -108 -68 -169
q-64 -57 -171 -57q-102 0 -170 60t-68 157z" />
    <glyph glyph-name="Obreve" unicode="&#x14e;" horiz-adv-x="730" 
d="M494 830q-4 -52 -44.5 -88.5t-90.5 -36.5q-54 0 -93 36t-43 89l28 3q11 -54 108 -54q41 0 72 13.5t36 40.5zM351 616q-72 0 -117.5 -71t-45.5 -216q0 -137 55.5 -217t140.5 -80q75 0 117 75t42 201q0 147 -54 227.5t-138 80.5zM694 329q0 -147 -86 -240q-92 -99 -244 -99
q-64 0 -123 22.5t-104.5 62.5t-72.5 101t-27 133q0 140 81 237q44 53 107.5 82.5t137.5 29.5q140 0 235.5 -91.5t95.5 -237.5z" />
    <glyph glyph-name="obreve" unicode="&#x14f;" horiz-adv-x="551" 
d="M164 667q1 -39 30 -59t78 -20q103 0 107 79l32 -10q-7 -71 -50 -107t-89 -36q-59 0 -97.5 40.5t-43.5 102.5zM260 402q-83 0 -83 -173q0 -69 29.5 -133t84.5 -64q33 0 58 35.5t25 116.5q0 102 -31 160t-83 58zM37 207q0 100 55 163q64 74 184 74q109 0 173.5 -64
t64.5 -164q0 -108 -68 -169q-64 -57 -171 -57q-102 0 -170 60t-68 157z" />
    <glyph glyph-name="Ohungarumlaut" unicode="&#x150;" horiz-adv-x="730" 
d="M490 818q13 -10 13 -28q0 -13 -7 -20l-99 -84q-2 -2 -7 -2q-4 0 -9 4t-5 9q0 4 1 5l62 114q7 12 23 12t28 -10zM357 824q15 -10 15 -29q0 -13 -7 -19l-94 -86q-6 -2 -8 -2t-8 3q-6 5 -6 11q0 3 1 4l57 115q7 12 27 12q12 0 23 -9zM351 616q-72 0 -117.5 -71t-45.5 -216
q0 -137 55.5 -217t140.5 -80q75 0 117 75t42 201q0 147 -54 227.5t-138 80.5zM694 329q0 -147 -86 -240q-92 -99 -244 -99q-64 0 -123 22.5t-104.5 62.5t-72.5 101t-27 133q0 140 81 237q44 53 107.5 82.5t137.5 29.5q140 0 235.5 -91.5t95.5 -237.5z" />
    <glyph glyph-name="ohungarumlaut" unicode="&#x151;" horiz-adv-x="551" 
d="M440 605q0 -12 -13 -25l-98 -92q-8 -8 -15 -8q-6 0 -10.5 4.5t-4.5 10.5t4 14l68 121q10 18 28 18t29.5 -12.5t11.5 -30.5zM311 617q0 -10 -5 -16l-92 -109q-13 -15 -24 -15q-13 0 -13 15q0 7 3 14l59 134q6 13 30 13q17 0 29.5 -11t12.5 -25zM260 402q-83 0 -83 -173
q0 -69 29.5 -133t84.5 -64q33 0 58 35.5t25 116.5q0 102 -31 160t-83 58zM37 207q0 100 55 163q64 74 184 74q109 0 173.5 -64t64.5 -164q0 -108 -68 -169q-64 -57 -171 -57q-102 0 -170 60t-68 157z" />
    <glyph glyph-name="OE" unicode="&#x152;" horiz-adv-x="925" 
d="M639 367q53 0 71 11t20 51q4 5 21 5t22 -5q-2 -60 -2 -86q0 -18 2 -88q-5 -5 -22 -5t-21 5q-2 35 -21 48.5t-70 13.5h-81v-227q0 -20 12 -34t29 -14h101q105 0 141 128q25 6 45 -5q-2 -15 -6.5 -51.5t-9.5 -65t-11 -50.5q-90 2 -138 2h-342q-149 0 -242.5 90.5
t-93.5 228.5t90 233t234 95l118 -2h295q26 0 49 4q4 0 4 -3q1 -3 3 -30.5t4.5 -62.5t4.5 -52q-18 -9 -43 -5q-18 58 -42 82.5t-76 24.5h-85q-17 0 -29 -15t-12 -34v-187h81zM377 40h12q29 0 29 82v400q0 82 -29 82h-34q-71 0 -116 -65.5t-45 -210.5q0 -142 53.5 -215
t129.5 -73z" />
    <glyph glyph-name="oe" unicode="&#x153;" horiz-adv-x="828" 
d="M260 402q-83 0 -83 -173q0 -69 29.5 -133t84.5 -64q33 0 58 35.5t25 116.5q0 102 -31 160t-83 58zM37 207q0 100 55 163q64 74 184 74q114 0 180 -70q32 33 73.5 51.5t82.5 18.5q53 0 90 -15.5t55.5 -42.5t26.5 -56t8 -64q0 -31 -29 -31h-240q0 -2 -0.5 -7t-0.5 -9
q0 -72 33 -107.5t93 -35.5q81 0 133 53q7 0 11 -10t4 -21q-37 -53 -85.5 -80.5t-101.5 -27.5q-103 0 -158 50l-6 6q-64 -56 -170 -56q-102 0 -170 60t-68 157zM527 275h136q2 2 2 21q0 54 -19.5 80t-44.5 26q-11 0 -27 -9t-27 -25q-18 -27 -20 -93z" />
    <glyph glyph-name="Racute" unicode="&#x154;" horiz-adv-x="716" 
d="M382 833q43 -20 65 -55l-3 -12l-144 -58q-18 -7 -35 -7q-7 0 -13.5 4.5t-6.5 10.5q0 12 10 21q45 39 127 96zM455 467q0 146 -125 146q-41 0 -58.5 -19.5t-17.5 -69.5v-199h43q35 0 60.5 5t49.5 19.5t36 44t12 73.5zM362 654q111 0 167 -33q42 -25 59.5 -62.5t17.5 -74.5
q0 -36 -12.5 -67t-33.5 -51.5t-42 -34.5t-44 -23l136 -210q23 -35 43.5 -50.5t52.5 -15.5q3 -6 3.5 -17.5t-2.5 -16.5q-16 -8 -102 -8q-71 0 -132 89l-117 174q-11 18 -28.5 24t-73.5 6v-161q0 -30 4.5 -48.5t17 -27t24.5 -11t37 -3.5q7 -5 7 -17.5t-7 -16.5q-80 2 -152 2
q-74 0 -154 -2q-7 4 -7 16.5t7 17.5q25 1 37 3.5t24.5 11t17 27t4.5 48.5v401q0 30 -4.5 48.5t-17 27t-24.5 11t-37 3.5q-7 4 -7 16.5t7 17.5q20 0 165.5 3.5t165.5 3.5z" />
    <glyph glyph-name="racute" unicode="&#x155;" horiz-adv-x="428" 
d="M253 637q6 2 16 2q38 0 57 -24l10 -23l-120 -108q-19 -16 -38 -16q-6 0 -11 4.5t-5 9.5q0 12 8 24zM228 268v-146q0 -32 2 -48.5t11.5 -26t21 -11.5t37.5 -4q5 -4 5 -17t-5 -17q-86 2 -137 2q-53 0 -137 -2q-4 4 -4 17t4 17q27 2 37.5 4.5t20.5 11.5t12 25.5t2 48.5v187
q0 42 -12 54.5t-53 16.5q-6 18 -2 31q58 6 166 33q10 0 16 -5t7 -12q5 -49 7 -79h4q67 96 119 96q26 0 46 -18t20 -38q0 -31 -17.5 -51.5t-39.5 -20.5q-33 0 -47 16q-16 19 -28 19q-18 0 -32 -17q-8 -10 -12.5 -16.5t-8 -19.5t-3.5 -30z" />
    <glyph glyph-name="Rcommaaccent" unicode="&#x156;" horiz-adv-x="716" 
d="M326 -51q29 0 50.5 -17.5t21.5 -60.5q0 -41 -33.5 -70.5t-86.5 -38.5q-13 8 -6 28q29 8 47 23.5t18 29.5q0 6 -2 10t-6.5 6.5t-7 3.5t-7.5 2l-6 1q-33 8 -33 45q0 13 17 25.5t34 12.5zM455 467q0 146 -125 146q-41 0 -58.5 -19.5t-17.5 -69.5v-199h43q35 0 60.5 5
t49.5 19.5t36 44t12 73.5zM362 654q111 0 167 -33q77 -46 77 -137q0 -68 -39.5 -111.5t-92.5 -64.5l136 -210q23 -35 43.5 -50.5t52.5 -15.5q3 -6 3.5 -17.5t-2.5 -16.5q-16 -8 -102 -8q-71 0 -132 89l-117 174q-11 18 -28.5 24t-73.5 6v-161q0 -30 4.5 -48.5t17 -27
t24.5 -11t37 -3.5q7 -4 7 -17t-7 -17q-80 2 -152 2q-74 0 -154 -2q-7 4 -7 17t7 17q25 1 37 3.5t24.5 11t17 27t4.5 48.5v401q0 30 -4.5 48.5t-17 27t-24.5 11t-37 3.5q-7 5 -7 17t7 17q20 0 165.5 3.5t165.5 3.5z" />
    <glyph glyph-name="rcommaaccent" unicode="&#x157;" horiz-adv-x="428" 
d="M153 -51q29 0 50.5 -17.5t21.5 -60.5q0 -41 -33.5 -70.5t-86.5 -38.5q-13 8 -6 28q29 8 47 23.5t18 29.5q0 6 -2 10t-6.5 6.5t-7 3.5t-8.5 2l-5 1q-33 8 -33 45q0 13 17 25.5t34 12.5zM228 268v-146q0 -32 2 -48.5t11.5 -26t21 -11.5t37.5 -4q5 -4 5 -17t-5 -17
q-86 2 -137 2q-53 0 -137 -2q-4 4 -4 17t4 17q27 2 37.5 4.5t20.5 11.5t12 25.5t2 48.5v187q0 42 -12 54.5t-53 16.5q-6 18 -2 31q58 6 166 33q10 0 16 -5t7 -12q5 -49 7 -79h4q67 96 119 96q26 0 46 -18t20 -38q0 -31 -17.5 -51.5t-39.5 -20.5q-33 0 -47 16q-16 19 -28 19
q-18 0 -32 -17q-8 -10 -12.5 -16.5t-8 -19.5t-3.5 -30z" />
    <glyph glyph-name="Rcaron" unicode="&#x158;" horiz-adv-x="716" 
d="M189 808q0 19 16 26q86 -26 124 -56q45 33 123 56q14 -6 14 -27q-64 -41 -127 -104l-14 -5q-62 62 -136 110zM455 467q0 146 -125 146q-41 0 -58.5 -19.5t-17.5 -69.5v-199h43q35 0 60.5 5t49.5 19.5t36 44t12 73.5zM362 654q111 0 167 -33q77 -46 77 -137
q0 -68 -39.5 -111.5t-92.5 -64.5l136 -210q23 -35 43.5 -50.5t52.5 -15.5q3 -6 3.5 -17.5t-2.5 -16.5q-16 -8 -102 -8q-71 0 -132 89l-117 174q-11 18 -28.5 24t-73.5 6v-161q0 -30 4.5 -48.5t17 -27t24.5 -11t37 -3.5q7 -4 7 -17t-7 -17q-80 2 -152 2q-74 0 -154 -2
q-7 4 -7 17t7 17q25 1 37 3.5t24.5 11t17 27t4.5 48.5v401q0 30 -4.5 48.5t-17 27t-24.5 11t-37 3.5q-7 5 -7 17t7 17q20 0 165.5 3.5t165.5 3.5z" />
    <glyph glyph-name="rcaron" unicode="&#x159;" horiz-adv-x="428" 
d="M237 514h-50q-29 47 -102 129l24 18q62 -43 102 -84q35 37 103 84l24 -18q-68 -76 -101 -129zM228 268v-146q0 -32 2 -48.5t11.5 -26t21 -11.5t37.5 -4q5 -4 5 -17t-5 -17q-86 2 -137 2q-53 0 -137 -2q-4 4 -4 17t4 17q27 2 37.5 4.5t20.5 11.5t12 25.5t2 48.5v187
q0 42 -12 54.5t-53 16.5q-6 18 -2 31q58 6 166 33q10 0 16 -5t7 -12q5 -49 7 -79h4q67 96 119 96q26 0 46 -18t20 -38q0 -31 -17.5 -51.5t-39.5 -20.5q-33 0 -47 16q-16 19 -28 19q-18 0 -32 -17q-8 -10 -12.5 -16.5t-8 -19.5t-3.5 -30z" />
    <glyph glyph-name="Sacute" unicode="&#x15a;" horiz-adv-x="504" 
d="M421 631q11 -91 11 -152q-8 -6 -24 -7t-26 2q-8 30 -16.5 51t-23.5 44.5t-38 35.5t-53 12q-39 0 -62 -24t-23 -66q0 -38 35.5 -73.5t75.5 -55.5q91 -47 134 -94q52 -57 52 -120q0 -79 -68 -140q-61 -54 -151 -54q-79 0 -129.5 10t-68.5 10q-19 64 -19 165q34 9 50 3
q15 -66 59.5 -106t96.5 -40q46 0 75 23t29 60q0 65 -91 128q-11 7 -50 29.5t-70 45.5t-52 51q-33 44 -33 116q0 35 18 68.5t47 56.5q30 24 69.5 36t76.5 12q55 0 109.5 -13t59.5 -14zM292 833q19 -9 37 -24.5t28 -30.5l-3 -12l-144 -58q-18 -7 -35 -7q-7 0 -13.5 4.5
t-6.5 10.5q0 12 10 21q45 39 127 96z" />
    <glyph glyph-name="sacute" unicode="&#x15b;" horiz-adv-x="427" 
d="M48 146q22 5 40 2q15 -54 47 -86.5t67 -32.5q22 0 40.5 13t18.5 36q0 22 -12 44t-39 34q-25 11 -59.5 35t-56.5 48q-31 34 -31 75q0 43 34 78q24 24 60 38t75 14q37 0 60 -5.5t52 -18.5q13 -46 13 -106q-13 -9 -39 -5q-19 45 -43 69t-51 24q-21 0 -34.5 -12t-13.5 -30
q0 -55 54 -78q78 -34 116 -77q31 -34 31 -86q0 -61 -54 -95t-119 -34q-76 0 -139 22q-10 42 -17 134zM239 674q6 2 16 2q38 0 57 -24l10 -23l-120 -108q-19 -16 -38 -16q-6 0 -11 4.5t-5 9.5q0 12 8 24z" />
    <glyph glyph-name="Scircumflex" unicode="&#x15c;" horiz-adv-x="504" 
d="M395 724q0 -19 -16 -26q-86 26 -124 56q-45 -33 -123 -56q-14 6 -14 27q64 41 127 104l14 5q62 -62 136 -110zM421 631q11 -91 11 -152q-8 -6 -24 -7t-26 2q-8 30 -16.5 51t-23.5 44.5t-38 35.5t-53 12q-39 0 -62 -24t-23 -66q0 -38 35.5 -73.5t75.5 -55.5
q91 -47 134 -94q52 -57 52 -120q0 -79 -68 -140q-61 -54 -151 -54q-79 0 -129.5 10t-68.5 10q-19 64 -19 165q34 9 50 3q15 -66 59.5 -106t96.5 -40q46 0 75 23t29 60q0 65 -91 128q-11 7 -50 29.5t-70 45.5t-52 51q-33 44 -33 116q0 35 18 68.5t47 56.5q30 24 69.5 36
t76.5 12q55 0 109.5 -13t59.5 -14z" />
    <glyph glyph-name="scircumflex" unicode="&#x15d;" horiz-adv-x="427" 
d="M48 146q22 5 40 2q15 -54 47 -86.5t67 -32.5q22 0 40.5 13t18.5 36q0 22 -12 44t-39 34q-25 11 -59.5 35t-56.5 48q-31 34 -31 75q0 43 34 78q24 24 60 38t75 14q37 0 60 -5.5t52 -18.5q13 -46 13 -106q-13 -9 -39 -5q-19 45 -43 69t-51 24q-21 0 -34.5 -12t-13.5 -30
q0 -55 54 -78q78 -34 116 -77q31 -34 31 -86q0 -61 -54 -95t-119 -34q-76 0 -139 22q-10 42 -17 134zM243 663q34 -55 105 -134l-25 -19q-67 40 -107 83q-18 -18 -37 -33.5t-31 -24t-38 -25.5l-25 19q77 88 106 134h52z" />
    <glyph glyph-name="Scedilla" unicode="&#x15e;" horiz-adv-x="504" 
d="M185 -101l-6 6l43 85q-66 1 -111 10.5t-65 9.5q-19 64 -19 165q34 9 50 3q15 -66 59.5 -106t96.5 -40q46 0 75 23t29 60q0 38 -24.5 68.5t-66.5 59.5q-11 7 -50 29.5t-70 45.5t-52 51q-33 44 -33 116q0 35 18 68.5t47 56.5q30 24 69.5 36t76.5 12q55 0 109.5 -13
t59.5 -14q11 -91 11 -152q-8 -6 -24 -7t-26 2q-8 30 -16.5 51t-23.5 44.5t-38 35.5t-53 12q-39 0 -62 -24t-23 -66q0 -38 35.5 -73.5t75.5 -55.5q91 -47 134 -94q52 -57 52 -120q0 -79 -68 -140q-57 -50 -138 -54l-13 -31q93 -19 93 -84q0 -38 -34 -64t-83 -26q-32 0 -64 17
q0 21 10 26q38 -14 58 -14q50 0 50 41q0 39 -89 44z" />
    <glyph glyph-name="scedilla" unicode="&#x15f;" horiz-adv-x="427" 
d="M48 146q22 5 40 2q15 -54 47 -86.5t67 -32.5q22 0 40.5 13t18.5 36q0 22 -12 44t-39 34q-25 11 -59.5 35t-56.5 48q-31 34 -31 75q0 43 34 78q24 24 60 38t75 14q37 0 60 -5.5t52 -18.5q13 -46 13 -106q-13 -9 -39 -5q-19 45 -43 69t-51 24q-21 0 -34.5 -12t-13.5 -30
q0 -55 54 -78q78 -34 116 -77q31 -34 31 -86q0 -56 -47.5 -90t-109.5 -38l-13 -32q93 -19 93 -84q0 -38 -34 -64t-83 -26q-22 0 -33 3.5t-31 13.5q0 21 10 26q38 -14 58 -14q23 0 36.5 10.5t13.5 30.5q0 13 -8 22t-23.5 13.5t-27.5 6t-30 2.5l-6 6l43 86q-70 3 -120 21
q-10 42 -17 134z" />
    <glyph glyph-name="Scaron" unicode="&#x160;" horiz-adv-x="504" 
d="M110 808q0 19 16 26q86 -26 124 -56q45 33 123 56q14 -6 14 -27q-64 -41 -127 -104l-14 -5q-62 62 -136 110zM421 631q11 -91 11 -152q-8 -6 -24 -7t-26 2q-8 30 -16.5 51t-23.5 44.5t-38 35.5t-53 12q-39 0 -62 -24t-23 -66q0 -38 35.5 -73.5t75.5 -55.5q91 -47 134 -94
q52 -57 52 -120q0 -79 -68 -140q-61 -54 -151 -54q-79 0 -129.5 10t-68.5 10q-19 64 -19 165q34 9 50 3q15 -66 59.5 -106t96.5 -40q46 0 75 23t29 60q0 65 -91 128q-11 7 -50 29.5t-70 45.5t-52 51q-33 44 -33 116q0 35 18 68.5t47 56.5q30 24 69.5 36t76.5 12
q55 0 109.5 -13t59.5 -14z" />
    <glyph glyph-name="scaron" unicode="&#x161;" horiz-adv-x="427" 
d="M48 146q22 5 40 2q15 -54 47 -86.5t67 -32.5q22 0 40.5 13t18.5 36q0 22 -12 44t-39 34q-25 11 -59.5 35t-56.5 48q-31 34 -31 75q0 43 34 78q24 24 60 38t75 14q37 0 60 -5.5t52 -18.5q13 -46 13 -106q-13 -9 -39 -5q-19 45 -43 69t-51 24q-21 0 -34.5 -12t-13.5 -30
q0 -55 54 -78q78 -34 116 -77q31 -34 31 -86q0 -61 -54 -95t-119 -34q-76 0 -139 22q-10 42 -17 134zM231 514h-50q-29 47 -102 129l24 18q62 -43 102 -84q35 37 103 84l24 -18q-68 -76 -101 -129z" />
    <glyph glyph-name="Tcedilla" unicode="&#x162;" horiz-adv-x="652" 
d="M280 -101l-6 6l47 95q-56 0 -153 -2q-5 4 -5 16.5t5 17.5q34 1 49.5 3.5t28.5 12t16 26.5t3 49v383q0 49 -10.5 73.5t-36.5 24.5h-49q-52 0 -82.5 -23.5t-44.5 -81.5q-27 0 -39 5q20 86 25 146q0 3 4 3q101 -8 233 -8h141q133 0 224 8q3 0 3 -3q1 -67 13 -143
q-11 -5 -39 -5q-12 56 -44 79t-90 23h-22q-26 0 -36 -25t-10 -76v-380q0 -32 3 -49t16 -26.5t28.5 -12t49.5 -3.5q4 -5 4 -17.5t-4 -16.5q-87 2 -146 2l-17 -41q93 -19 93 -84q0 -38 -34 -64t-83 -26q-32 0 -64 17q0 21 10 26q38 -14 58 -14q50 0 50 41q0 39 -89 44z" />
    <glyph glyph-name="tcedilla" unicode="&#x163;" horiz-adv-x="358" 
d="M132 -101l-6 6l44 89q-32 7 -52 24q-30 26 -30 87q0 148 3 279h-65q-5 0 -5 6v29q17 15 42 15h28q0 101 11 116q3 4 12 8t22 8t19 6q12 5 33.5 11.5t26.5 6.5q8 0 8 -9q-3 -47 -5 -113l-1 -34h117q8 0 8 -6v-31q0 -6 -7.5 -9.5t-16.5 -3.5h-101q0 -56 0.5 -147t0.5 -110
q0 -35 12.5 -51t31.5 -16q39 0 57 14q18 -15 18 -28q-15 -21 -54 -38t-79 -18l-13 -31q93 -19 93 -84q0 -38 -34 -64t-83 -26q-32 0 -64 17q0 21 10 26q38 -14 58 -14q50 0 50 41q0 39 -89 44z" />
    <glyph glyph-name="Tcaron" unicode="&#x164;" horiz-adv-x="652" 
d="M193 808q0 19 16 26q86 -26 124 -56q45 33 123 56q14 -6 14 -27q-64 -41 -127 -104l-14 -5q-62 62 -136 110zM405 123q0 -60 17 -74.5t80 -16.5q4 -4 4 -17t-4 -17q-100 2 -169 2q-67 0 -165 -2q-4 4 -4 17t4 17q63 2 80 16.5t17 74.5v383q0 49 -10.5 73.5t-36.5 24.5
h-49q-52 0 -82.5 -23.5t-44.5 -81.5q-26 0 -39 5q20 86 25 146q0 3 4 3q101 -8 233 -8h141q133 0 224 8q3 0 3 -3q1 -67 13 -143q-11 -5 -39 -5q-12 56 -44 79t-90 23h-22q-26 0 -36 -25t-10 -76v-380z" />
    <glyph glyph-name="tcaron" unicode="&#x165;" horiz-adv-x="358" 
d="M302 698q27 0 43.5 -22t16.5 -51q0 -12 -4 -27t-14.5 -33.5t-33 -31t-54.5 -14.5l-4 17q29 6 44.5 27.5t15.5 41.5q0 18 -11 18q-46 0 -46 41q0 34 47 34zM63 434h28q0 101 11 116q3 4 12 8t22 8t19 6q12 5 33.5 11.5t26.5 6.5q8 0 8 -9q-3 -47 -5 -113l-1 -34h117
q8 0 8 -6v-31q0 -13 -24 -13h-101q0 -56 0.5 -147t0.5 -110q0 -35 12.5 -51t31.5 -16q39 0 57 14q18 -15 18 -28q-16 -22 -56 -39t-80 -17q-50 0 -83 28q-30 26 -30 87q0 148 3 279h-65q-5 0 -5 6v29q17 15 42 15z" />
    <glyph glyph-name="Tbar" unicode="&#x166;" horiz-adv-x="652" 
d="M405 123q0 -32 3 -49t16 -26.5t28.5 -12t49.5 -3.5q4 -4 4 -17t-4 -17q-100 2 -169 2q-67 0 -165 -2q-5 4 -5 17t5 17q34 1 49.5 3.5t28.5 12t16 26.5t3 49v195q-51 0 -101 -3l10 50q39 -2 91 -3v144q0 49 -10.5 73.5t-36.5 24.5h-49q-52 0 -82.5 -23.5t-44.5 -81.5
q-27 0 -39 5q20 86 25 146q0 3 4 3q101 -8 233 -8h141q133 0 224 8q3 0 3 -3q1 -67 13 -143q-11 -5 -39 -5q-12 56 -44 79t-90 23h-22q-26 0 -36 -25t-10 -76v-141q51 0 100 3l-10 -50q-38 2 -90 3v-195z" />
    <glyph glyph-name="tbar" unicode="&#x167;" horiz-adv-x="358" 
d="M63 434h28q0 101 11 116q3 4 12 8t22 8t19 6q12 5 33.5 11.5t26.5 6.5q8 0 8 -9q-3 -47 -5 -113l-1 -34h117q8 0 8 -6v-31q0 -6 -7.5 -9.5t-16.5 -3.5h-101v-118q59 1 119 4l-10 -50q-53 3 -108 4v-97q0 -35 12.5 -51t31.5 -16q39 0 57 14q18 -15 18 -28q-16 -22 -56 -39
t-80 -17q-20 0 -43.5 7.5t-39.5 20.5q-30 26 -30 87q0 43 1 118q-29 -1 -64 -3l10 50q37 -2 54 -2q1 81 2 116h-65q-5 0 -5 6v29q17 15 42 15z" />
    <glyph glyph-name="Utilde" unicode="&#x168;" horiz-adv-x="732" 
d="M469 790q32 0 49 43q11 0 19.5 -5.5t8.5 -14.5q-13 -43 -38 -68t-53 -25q-37 0 -65 21q-26 17 -58 17q-13 0 -20.5 -2t-15.5 -11t-13 -27q-26 0 -26 18q13 40 35.5 66.5t47.5 26.5q43 0 74 -25q18 -14 55 -14zM227 522v-253q0 -42 2 -68.5t14 -61.5t35 -57
q52 -50 119 -50q49 0 84 15.5t54 38t30 57.5t13.5 64.5t2.5 69.5v245q0 21 -1 35t-6.5 24t-10 15t-17.5 9t-23.5 5t-33.5 3q-4 5 -4 17t4 17q92 -2 127 -2q29 0 107 2q5 -5 5 -17t-5 -17q-27 -3 -38 -5.5t-22 -11.5t-14 -26t-3 -48v-227q0 -70 -13.5 -123.5t-44 -95.5
t-84 -64t-128.5 -22q-137 0 -202 42q-87 57 -87 204v286q0 59 -14.5 74t-62.5 17q-4 5 -4 17t4 17q100 -2 146 -2q65 0 163 2q5 -5 5 -17t-5 -17q-60 -2 -76 -16.5t-16 -74.5z" />
    <glyph glyph-name="utilde" unicode="&#x169;" horiz-adv-x="598" 
d="M359 589q32 0 49 43q11 0 19.5 -5.5t8.5 -14.5q-13 -43 -38 -68t-53 -25q-37 0 -65 21q-26 17 -58 17q-13 0 -20.5 -2t-15.5 -11t-13 -27q-26 0 -26 18q13 40 35.5 66.5t47.5 26.5q43 0 74 -25q18 -14 55 -14zM510 133q0 -43 12.5 -58.5t52.5 -19.5q2 -5 2.5 -16
t-0.5 -16q-85 -11 -166 -33q-22 0 -23 17q-2 19 -4 44q-46 -25 -93.5 -43t-73.5 -18q-128 0 -128 160v156q0 59 -14.5 76.5t-52.5 19.5q-4 5 -4 17.5t4 16.5q86 -2 132 -2q21 0 57 2q10 -10 10 -34q0 -4 -1 -25t-1 -71v-167q0 -48 17 -61.5t53 -13.5q48 0 92 27q-1 16 -1 30
v185q0 60 -13 76t-54 20q-5 4 -5 17t5 17q78 -2 132 -2q21 0 57 2q10 -10 10 -34q0 -4 -1 -25t-1 -71v-173z" />
    <glyph glyph-name="Umacron" unicode="&#x16a;" horiz-adv-x="732" 
d="M531 753h-274q-15 0 -15 18q0 10 8 21t17 11h276q14 0 14 -17q0 -11 -8 -22t-18 -11zM227 522v-253q0 -42 2 -68.5t14 -61.5t35 -57q52 -50 119 -50q49 0 84 15.5t54 38t30 57.5t13.5 64.5t2.5 69.5v245q0 21 -1 35t-6.5 24t-10 15t-17.5 9t-23.5 5t-33.5 3q-4 5 -4 17
t4 17q92 -2 127 -2q29 0 107 2q5 -5 5 -17t-5 -17q-27 -3 -38 -5.5t-22 -11.5t-14 -26t-3 -48v-227q0 -70 -13.5 -123.5t-44 -95.5t-84 -64t-128.5 -22q-137 0 -202 42q-87 57 -87 204v286q0 59 -14.5 74t-62.5 17q-4 5 -4 17t4 17q100 -2 146 -2q65 0 163 2q5 -5 5 -17
t-5 -17q-60 -2 -76 -16.5t-16 -74.5z" />
    <glyph glyph-name="umacron" unicode="&#x16b;" horiz-adv-x="598" 
d="M413 543h-274q-15 0 -15 18q0 10 8 21t17 11h276q14 0 14 -17q0 -11 -8 -22t-18 -11zM510 133q0 -43 12.5 -58.5t52.5 -19.5q2 -5 2.5 -16t-0.5 -16q-85 -11 -166 -33q-22 0 -23 17q-2 19 -4 44q-46 -25 -93.5 -43t-73.5 -18q-128 0 -128 160v156q0 59 -14.5 76.5
t-52.5 19.5q-4 5 -4 17.5t4 16.5q86 -2 132 -2q21 0 57 2q10 -10 10 -34q0 -4 -1 -25t-1 -71v-167q0 -48 17 -61.5t53 -13.5q48 0 92 27q-1 16 -1 30v185q0 60 -13 76t-54 20q-5 4 -5 17t5 17q78 -2 132 -2q21 0 57 2q10 -10 10 -34q0 -4 -1 -25t-1 -71v-173z" />
    <glyph glyph-name="Ubreve" unicode="&#x16c;" horiz-adv-x="732" 
d="M533 830q-4 -52 -44.5 -88.5t-90.5 -36.5q-54 0 -93 36t-43 89l28 3q11 -54 108 -54q41 0 72 13.5t36 40.5zM227 522v-253q0 -42 2 -68.5t14 -61.5t35 -57q52 -50 119 -50q49 0 84 15.5t54 38t30 57.5t13.5 64.5t2.5 69.5v245q0 21 -1 35t-6.5 24t-10 15t-17.5 9t-23.5 5
t-33.5 3q-4 5 -4 17t4 17q92 -2 127 -2q29 0 107 2q5 -5 5 -17t-5 -17q-27 -3 -38 -5.5t-22 -11.5t-14 -26t-3 -48v-227q0 -70 -13.5 -123.5t-44 -95.5t-84 -64t-128.5 -22q-137 0 -202 42q-87 57 -87 204v286q0 59 -14.5 74t-62.5 17q-4 5 -4 17t4 17q100 -2 146 -2
q65 0 163 2q5 -5 5 -17t-5 -17q-60 -2 -76 -16.5t-16 -74.5z" />
    <glyph glyph-name="ubreve" unicode="&#x16d;" horiz-adv-x="598" 
d="M174 667q1 -39 30 -59t78 -20q103 0 107 79l32 -10q-7 -71 -50 -107t-89 -36q-59 0 -97.5 40.5t-43.5 102.5zM510 133q0 -43 12.5 -58.5t52.5 -19.5q2 -5 2.5 -16t-0.5 -16q-85 -11 -166 -33q-22 0 -23 17q-2 19 -4 44q-46 -25 -93.5 -43t-73.5 -18q-128 0 -128 160v156
q0 59 -14.5 76.5t-52.5 19.5q-4 5 -4 17.5t4 16.5q86 -2 132 -2q21 0 57 2q10 -10 10 -34q0 -4 -1 -25t-1 -71v-167q0 -48 17 -61.5t53 -13.5q48 0 92 27q-1 16 -1 30v185q0 60 -13 76t-54 20q-5 4 -5 17t5 17q78 -2 132 -2q21 0 57 2q10 -10 10 -34q0 -4 -1 -25t-1 -71
v-173z" />
    <glyph glyph-name="Uring" unicode="&#x16e;" horiz-adv-x="732" 
d="M401 772q-21 0 -34 -14t-13 -35q0 -20 13 -34.5t34 -14.5t34.5 14.5t13.5 34.5q0 21 -13.5 35t-34.5 14zM316 723q0 34 25 58.5t60 24.5q34 0 60 -24t26 -59q0 -34 -25.5 -58.5t-60.5 -24.5t-60 24.5t-25 58.5zM227 522v-253q0 -42 2 -68.5t14 -61.5t35 -57
q52 -50 119 -50q49 0 84 15.5t54 38t30 57.5t13.5 64.5t2.5 69.5v245q0 21 -1 35t-6.5 24t-10 15t-17.5 9t-23.5 5t-33.5 3q-4 5 -4 17t4 17q92 -2 127 -2q29 0 107 2q5 -5 5 -17t-5 -17q-27 -3 -38 -5.5t-22 -11.5t-14 -26t-3 -48v-227q0 -70 -13.5 -123.5t-44 -95.5
t-84 -64t-128.5 -22q-137 0 -202 42q-87 57 -87 204v286q0 59 -14.5 74t-62.5 17q-4 5 -4 17t4 17q100 -2 146 -2q65 0 163 2q5 -5 5 -17t-5 -17q-60 -2 -76 -16.5t-16 -74.5z" />
    <glyph glyph-name="uring" unicode="&#x16f;" horiz-adv-x="598" 
d="M294 632q-21 0 -34 -14t-13 -35q0 -20 13 -34.5t34 -14.5t34.5 14.5t13.5 34.5q0 21 -14 35t-34 14zM209 583q0 34 25 58.5t60 24.5q34 0 60 -24t26 -59q0 -34 -25.5 -58.5t-60.5 -24.5t-60 24.5t-25 58.5zM510 133q0 -43 12.5 -58.5t52.5 -19.5q2 -5 2.5 -16t-0.5 -16
q-85 -11 -166 -33q-22 0 -23 17q-2 19 -4 44q-46 -25 -93.5 -43t-73.5 -18q-128 0 -128 160v156q0 59 -14.5 76.5t-52.5 19.5q-4 5 -4 17.5t4 16.5q86 -2 132 -2q21 0 57 2q10 -10 10 -34q0 -4 -1 -25t-1 -71v-167q0 -48 17 -61.5t53 -13.5q48 0 92 27q-1 16 -1 30v185
q0 60 -13 76t-54 20q-5 4 -5 17t5 17q78 -2 132 -2q21 0 57 2q10 -10 10 -34q0 -4 -1 -25t-1 -71v-173z" />
    <glyph glyph-name="Uhungarumlaut" unicode="&#x170;" horiz-adv-x="732" 
d="M551 818q13 -10 13 -28q0 -13 -7 -20l-99 -84q-2 -2 -7 -2q-4 0 -9 4t-5 9q0 4 1 5l62 114q8 12 23 12q16 0 28 -10zM418 824q15 -10 15 -29q0 -13 -7 -19l-94 -86q-6 -2 -8 -2t-8 3q-6 5 -6 11q0 3 1 4l57 115q8 12 27 12q12 0 23 -9zM227 522v-253q0 -42 2 -68.5
t14 -61.5t35 -57q52 -50 119 -50q49 0 84 15.5t54 38t30 57.5t13.5 64.5t2.5 69.5v245q0 21 -1 35t-6.5 24t-10 15t-17.5 9t-23.5 5t-33.5 3q-4 5 -4 17t4 17q92 -2 127 -2q29 0 107 2q5 -5 5 -17t-5 -17q-27 -3 -38 -5.5t-22 -11.5t-14 -26t-3 -48v-227q0 -70 -13.5 -123.5
t-44 -95.5t-84 -64t-128.5 -22q-137 0 -202 42q-87 57 -87 204v286q0 59 -14.5 74t-62.5 17q-4 5 -4 17t4 17q100 -2 146 -2q65 0 163 2q5 -5 5 -17t-5 -17q-60 -2 -76 -16.5t-16 -74.5z" />
    <glyph glyph-name="uhungarumlaut" unicode="&#x171;" horiz-adv-x="598" 
d="M436 605q0 -12 -13 -25l-98 -92q-8 -8 -15 -8q-6 0 -10.5 4.5t-4.5 10.5t4 14l68 121q10 18 28 18t29.5 -12.5t11.5 -30.5zM307 617q0 -10 -5 -16l-92 -109q-13 -15 -24 -15q-13 0 -13 15q0 7 3 14l59 134q6 13 30 13q17 0 29.5 -11t12.5 -25zM510 133q0 -43 12.5 -58.5
t52.5 -19.5q2 -5 2.5 -16t-0.5 -16q-85 -11 -166 -33q-22 0 -23 17q-2 19 -4 44q-46 -25 -93.5 -43t-73.5 -18q-128 0 -128 160v156q0 59 -14.5 76.5t-52.5 19.5q-4 5 -4 17.5t4 16.5q86 -2 132 -2q21 0 57 2q10 -10 10 -34q0 -4 -1 -25t-1 -71v-167q0 -48 17 -61.5
t53 -13.5q48 0 92 27q-1 16 -1 30v185q0 60 -13 76t-54 20q-5 4 -5 17t5 17q78 -2 132 -2q21 0 57 2q10 -10 10 -34q0 -4 -1 -25t-1 -71v-173z" />
    <glyph glyph-name="Uogonek" unicode="&#x172;" horiz-adv-x="732" 
d="M573 -152q-19 -26 -52 -40.5t-64 -14.5q-39 0 -65.5 23t-26.5 63q0 53 74 116q-30 -5 -63 -5q-137 0 -202 42q-87 57 -87 204v286q0 32 -3 49t-13.5 26.5t-22.5 12t-38 3.5q-4 4 -4 16.5t4 17.5q100 -2 146 -2q65 0 163 2q5 -5 5 -17.5t-5 -16.5q-33 -1 -47.5 -3.5
t-26.5 -12t-15 -26.5t-3 -49v-253q0 -42 2 -68.5t14 -61.5t35 -57q52 -50 119 -50q49 0 84 15.5t54 38t30 57.5t13.5 64.5t2.5 69.5v245q0 21 -1 35t-6.5 24t-10 15t-17.5 9t-23.5 5t-33.5 3q-5 4 -5 16.5t5 17.5q92 -2 127 -2q29 0 107 2q5 -5 5 -17.5t-5 -16.5
q-27 -3 -38 -5.5t-22 -11.5t-14 -26t-3 -48v-227q0 -194 -106 -263q-38 -36 -55.5 -64t-17.5 -68q0 -19 10 -28t25 -9q38 0 56 18q15 -10 15 -33z" />
    <glyph glyph-name="uogonek" unicode="&#x173;" horiz-adv-x="598" 
d="M497 -177q-19 -26 -49 -40.5t-60 -14.5q-25 0 -50 16q-39 26 -39 80q0 33 26 71.5t64 65.5q-1 3 -1 6q-2 19 -4 44q-46 -25 -93.5 -43t-73.5 -18q-128 0 -128 160v156q0 59 -14.5 76.5t-52.5 19.5q-4 5 -4 17.5t4 16.5q86 -2 132 -2q21 0 57 2q10 -10 10 -34q0 -4 -1 -25
t-1 -71v-167q0 -48 17 -61.5t53 -13.5q48 0 92 27q-1 16 -1 30v185q0 42 -7 61.5t-19 25.5t-41 9q-5 5 -5 17.5t5 16.5q78 -2 132 -2q21 0 57 2q10 -10 10 -34q0 -4 -1 -25t-1 -71v-173q0 -43 12.5 -58.5t52.5 -19.5q2 -5 2.5 -16t-0.5 -16q-59 -8 -121 -22
q-28 -17 -46.5 -54.5t-18.5 -76.5q0 -42 35 -42q38 0 56 18z" />
    <glyph glyph-name="Wcircumflex" unicode="&#x174;" horiz-adv-x="1028" 
d="M679 724q0 -19 -16 -26q-86 26 -124 56q-45 -33 -123 -56q-14 6 -14 27q64 41 127 104l14 5q62 -62 136 -110zM574 613l141 -397l14 -42l13 36l113 336q9 28 -6 44t-58 23q-5 5 -5 17t5 17q74 -2 125 -2q36 0 102 2q4 -5 4 -17t-4 -17q-34 -2 -61.5 -25t-43.5 -66
l-188 -511q-8 -23 -34 -23q-24 0 -33 23l-153 399l-150 -399q-9 -23 -34 -23t-33 23l-188 548q-10 29 -32 39.5t-58 14.5q-4 5 -4 17t4 17q74 -2 134 -2q102 0 176 2q4 -5 4 -17t-4 -17q-22 -1 -34 -3t-24 -6t-16 -11.5t0 -19.5l109 -357l9 -32l8 26l143 403q24 -8 59 0z
" />
    <glyph glyph-name="wcircumflex" unicode="&#x175;" horiz-adv-x="777" 
d="M405 663q34 -55 105 -134l-25 -19q-67 40 -107 83q-37 -38 -106 -83l-25 19q77 88 106 134h52zM482 331l66 -167q3 -8 7 -8t7 9l58 158q15 37 7 56.5t-47 22.5q-4 5 -4 17.5t4 16.5q74 -2 117 -2q22 0 66 2q5 -4 5 -16.5t-5 -17.5q-20 -2 -35 -9t-25 -20.5t-16 -25
t-15 -31.5l-122 -305q-9 -23 -35 -23q-31 0 -39 21l-96 249l-94 -247q-9 -23 -37 -23q-25 0 -33 21l-122 316q-1 3 -3 10q-14 37 -27 50t-50 17q-4 5 -4 17.5t4 16.5q74 -2 123 -2q57 0 131 2q4 -4 4 -16.5t-4 -17.5q-41 -4 -47 -18t8 -45q2 -5 3 -8l57 -170q3 -7 6 -7t5 6
l95 264q26 -3 56 -1q12 -44 31 -92z" />
    <glyph glyph-name="Ycircumflex" unicode="&#x176;" horiz-adv-x="624" 
d="M487 724q0 -19 -16 -26q-86 26 -124 56q-45 -33 -123 -56q-14 6 -14 27q64 41 127 104l14 5q62 -62 136 -110zM387 122q0 -32 3 -49t16 -26t28.5 -11.5t49.5 -3.5q4 -4 4 -17t-4 -17q-100 2 -159 2q-77 0 -175 -2q-5 4 -5 17t5 17q34 1 49.5 3.5t28.5 11.5t16 26t3 49
v137q0 27 -3.5 38.5t-16.5 34.5l-127 215q-24 40 -42 52t-52 14q-5 5 -5 17t4 17q60 -2 142 -2q44 0 124 2q4 -5 4 -17t-4 -17q-40 -2 -46.5 -15t11.5 -41l104 -184q13 -22 23 -3l103 194q12 22 -2 34.5t-49 14.5q-5 5 -5 17t5 17q80 -2 111 -2q33 0 93 2q5 -5 5 -17t-5 -17
q-36 -3 -53 -12t-34 -36l-128 -214q-17 -28 -17 -83v-146z" />
    <glyph glyph-name="ycircumflex" unicode="&#x177;" horiz-adv-x="558" 
d="M333 663q34 -55 105 -134l-25 -19q-67 40 -107 83q-37 -38 -106 -83l-25 19q77 88 106 134h52zM242 -168q-8 -15 -26 -30.5t-34 -23.5q-21 -10 -57 -10q-24 0 -39 18q-12 14 -12 40q0 17 16.5 31.5t43.5 14.5q6 0 16 -2t19 -2q20 0 31 11.5t22 37.5l24 55q1 8 2 11
t-3.5 11t-7 11.5t-9.5 12.5t-10 14l-129 296q-20 47 -33 59t-46 15q-4 4 -4 17t4 17q40 -2 111 -2q59 0 133 2q4 -4 4 -17t-4 -17q-42 -3 -46 -18.5t13 -45.5l93 -209q1 -2 1 -4q1 1 1 2l103 231q7 10 4.5 18t-5 12.5t-12 7.5t-16.5 4t-19 2q-5 4 -5 17t5 17q74 -2 106 -2
q21 0 71 2q4 -4 4 -17t-4 -17q-26 -2 -47.5 -20.5t-33.5 -42.5q-87 -184 -182 -413q-24 -61 -43 -94z" />
    <glyph glyph-name="Ydieresis" unicode="&#x178;" horiz-adv-x="624" 
d="M388 749q0 23 16 39t39 16t39 -16t16 -39q0 -22 -16 -38t-39 -16t-39 15.5t-16 38.5zM202 749q0 23 16 39t39 16t39 -16t16 -39t-16 -38.5t-39 -15.5t-39 16t-16 38zM387 122q0 -32 3 -49t16 -26t28.5 -11.5t49.5 -3.5q4 -4 4 -17t-4 -17q-100 2 -159 2q-77 0 -175 -2
q-5 4 -5 17t5 17q34 1 49.5 3.5t28.5 11.5t16 26t3 49v137q0 27 -3.5 38.5t-16.5 34.5l-127 215q-24 40 -42 52t-52 14q-5 5 -5 17t4 17q60 -2 142 -2q44 0 124 2q4 -5 4 -17t-4 -17q-40 -2 -46.5 -15t11.5 -41l104 -184q13 -22 23 -3l103 194q12 22 -2 34.5t-49 14.5
q-5 5 -5 17t5 17q80 -2 111 -2q33 0 93 2q5 -5 5 -17t-5 -17q-36 -3 -53 -12t-34 -36l-128 -214q-17 -28 -17 -83v-146z" />
    <glyph glyph-name="Zacute" unicode="&#x179;" horiz-adv-x="624" 
d="M372 833q43 -20 65 -55l-3 -12l-144 -58q-18 -7 -35 -7q-7 0 -13.5 4.5t-6.5 10.5q0 12 10 21q45 39 127 96zM429 44q49 0 84 36t50 97q27 0 39 -5q-12 -122 -27 -177q0 -3 -4 -3q-101 8 -233 8h-299q-19 0 -19 15q0 11 8 23l374 541q4 5 5.5 8t3 7t-1.5 6t-9 2h-191
q-97 0 -128 -126q-27 0 -39 5q18 78 26 169q0 3 4 3q101 -8 233 -8h201q16 0 38.5 1t27.5 1q17 0 17 -10q0 -14 -22 -46l-354 -519q-11 -14 -8.5 -21t24.5 -7h200z" />
    <glyph glyph-name="zacute" unicode="&#x17a;" horiz-adv-x="452" 
d="M268 674q6 2 16 2q38 0 57 -24l10 -23l-120 -108q-19 -16 -38 -16q-6 0 -11 4.5t-5 9.5q0 12 8 24zM61 446q5 -1 14.5 -4t20 -4.5t24.5 -1.5h193q13 0 37 0.5t44 1t21 0.5q12 0 12 -7t-18 -37q-143 -235 -234 -352l1 -3h96q38 0 58 15t40 56l14 29q29 0 40 -6
q-11 -75 -32 -136l-352 3q-23 0 -23 12q0 8 9 20q123 166 242 363l-2 2l-102 -3q-55 -2 -81 -96q-9 -2 -22.5 -1t-20.5 4q14 84 15 139q0 6 6 6z" />
    <glyph glyph-name="Zdotaccent" unicode="&#x17b;" horiz-adv-x="624" 
d="M255 771q0 25 18.5 43.5t43.5 18.5t43.5 -18.5t18.5 -43.5t-18.5 -43.5t-43.5 -18.5t-43.5 18.5t-18.5 43.5zM429 44q49 0 84 36t50 97q27 0 39 -5q-12 -122 -27 -177q0 -3 -4 -3q-101 8 -233 8h-299q-19 0 -19 15q0 11 8 23l374 541q16 23 -2 23h-191q-97 0 -128 -126
q-27 0 -39 5q18 78 26 169q0 3 4 3q101 -8 233 -8h201q16 0 38.5 1t27.5 1q17 0 17 -10q0 -14 -22 -46l-354 -519q-11 -14 -8.5 -21t24.5 -7h200z" />
    <glyph glyph-name="zdotaccent" unicode="&#x17c;" horiz-adv-x="452" 
d="M161 596q0 25 18.5 43.5t51.5 18.5q29 0 47 -20.5t18 -45.5q0 -22 -20 -42t-51 -20q-29 0 -46.5 20t-17.5 46zM61 446q5 -1 14.5 -4t20 -4.5t24.5 -1.5h193q13 0 37 0.5t44 1t21 0.5q12 0 12 -7t-18 -37q-143 -235 -234 -352l1 -3h96q38 0 58 15t40 56l14 29q29 0 40 -6
q-11 -75 -32 -136l-352 3q-23 0 -23 12q0 8 9 20q123 166 242 363l-2 2l-102 -3q-55 -2 -81 -96q-9 -2 -22.5 -1t-20.5 4q14 84 15 139q0 6 6 6z" />
    <glyph glyph-name="Zcaron" unicode="&#x17d;" horiz-adv-x="624" 
d="M173 808q0 19 16 26q86 -26 124 -56q45 33 123 56q14 -6 14 -27q-64 -41 -127 -104l-14 -5q-62 62 -136 110zM429 44q49 0 84 36t50 97q27 0 39 -5q-12 -122 -27 -177q0 -3 -4 -3q-101 8 -233 8h-299q-19 0 -19 15q0 11 8 23l374 541q16 23 -2 23h-191q-97 0 -128 -126
q-27 0 -39 5q18 78 26 169q0 3 4 3q101 -8 233 -8h201q16 0 38.5 1t27.5 1q17 0 17 -10q0 -14 -22 -46l-354 -519q-11 -14 -8.5 -21t24.5 -7h200z" />
    <glyph glyph-name="zcaron" unicode="&#x17e;" horiz-adv-x="452" 
d="M250 514h-50q-29 47 -102 129l24 18q62 -43 102 -84q35 37 103 84l24 -18q-68 -76 -101 -129zM61 446q5 -1 14.5 -4t20 -4.5t24.5 -1.5h193q13 0 37 0.5t44 1t21 0.5q12 0 12 -7t-18 -37q-143 -235 -234 -352l1 -3h96q38 0 58 15t40 56l14 29q29 0 40 -6
q-11 -75 -32 -136l-352 3q-23 0 -23 12q0 8 9 20q123 166 242 363l-2 2l-102 -3q-55 -2 -81 -96q-9 -2 -22.5 -1t-20.5 4q14 84 15 139q0 6 6 6z" />
    <glyph glyph-name="longs" unicode="&#x17f;" horiz-adv-x="334" 
d="M223 127q0 -60 14.5 -76.5t62.5 -18.5q4 -4 4 -17t-4 -17q-86 2 -142 2q-58 0 -142 -2q-4 4 -4 17t4 17q48 2 62.5 18.5t14.5 75.5v250q0 10 -2.5 13t-12.5 3h-44q-6 0 -6 5v17q0 7 5.5 13.5t17.5 6.5q24 0 33.5 6.5t9.5 29.5q0 113 54 165q31 31 60 47t69 16
q73 0 113 -23t40 -52t-14.5 -47t-41.5 -18q-49 0 -76 51q-18 34 -23.5 40.5t-17.5 6.5t-19 -11t-11 -49.5t-4 -110.5v-358z" />
    <glyph glyph-name="uni0180" unicode="&#x180;" horiz-adv-x="542" 
d="M204 348v-281q29 -35 71 -35q93 0 93 198q0 71 -23.5 107t-62.5 36q-40 0 -78 -25zM204 388q77 56 113 56q92 0 137 -51q25 -28 39.5 -68t14.5 -82q0 -52 -20 -99.5t-52.5 -81t-73.5 -53t-82 -19.5q-94 0 -146 40q-13 -27 -32 -43q-13 0 -34 7q6 57 6 133v379
q-50 -1 -86 -3l9 50q34 -2 77 -3v15q0 28 -1 40.5t-10 20.5t-19.5 10t-37.5 4q-8 14 -3 32q124 5 188 26q16 0 16 -13q-3 -37 -3 -102v-33q54 1 91 3l-9 -50q-37 2 -82 3v-118z" />
    <glyph glyph-name="uni0181" unicode="&#x181;" horiz-adv-x="769" 
d="M293 645q14 0 64.5 1t77.5 1q58 0 102 -10t69.5 -25t41.5 -36.5t21 -41.5t5 -43q0 -38 -27.5 -75t-68.5 -55v-2q78 -21 114 -63.5t36 -109.5q0 -40 -14 -72.5t-44.5 -59.5t-84.5 -41.5t-128 -14.5q-32 0 -89 1t-75 1l-154 -2q-7 5 -7 17.5t7 16.5q25 1 37 3.5t24.5 11
t17 27t4.5 48.5v401q0 49 -15 68.5t-42 19.5q-25 0 -49 -17t-24 -39q0 -6 8.5 -19t8.5 -22q0 -20 -16 -33t-37 -13q-17 0 -33 13.5t-16 39.5q0 36 50 81t105 45q104 -2 131 -2zM362 334v-250q0 -24 12 -34t54 -10q38 0 66.5 10t44.5 24.5t26 35t13 39t3 38.5q0 68 -37 107.5
t-111 39.5h-71zM362 562v-186h56q116 0 116 113q0 116 -102 116q-45 0 -57.5 -9.5t-12.5 -33.5z" />
    <glyph glyph-name="uni0182" unicode="&#x182;" horiz-adv-x="649" 
d="M446 359q78 -21 114 -63.5t36 -109.5q0 -85 -62.5 -136.5t-206.5 -51.5q-33 0 -85 1t-69 1l-154 -2q-7 4 -7 17t7 17q25 1 37 3.5t24.5 11t17 27t4.5 48.5v401q0 30 -4.5 48.5t-17 27t-24.5 11t-37 3.5q-7 5 -7 17t7 17q105 -2 145 -2h310q26 0 49 4q4 0 4 -3q1 -3 3 -34
t4.5 -70t4.5 -56q-18 -9 -43 -5q-20 63 -43.5 92.5t-74.5 29.5h-100q-36 0 -36 -41v-186h46q95 0 158 -17zM242 334v-250q0 -24 10.5 -34t45.5 -10q151 0 151 147q0 68 -36 107.5t-110 39.5h-61z" />
    <glyph glyph-name="uni0183" unicode="&#x183;" horiz-adv-x="542" 
d="M204 348v-281q29 -35 71 -35q93 0 93 198q0 71 -23.5 107t-62.5 36q-40 0 -78 -25zM74 127v438q0 28 -1 40.5t-10 20.5t-19.5 10t-37.5 4q-8 14 -3 32q159 26 259 26h133q26 0 49 4q4 0 4 -3q1 -3 3 -34t4.5 -70t4.5 -56q-18 -9 -43 -5q-10 31 -17.5 49t-21 37t-33 27.5
t-46.5 8.5h-59q-32 0 -36 -33v-40v-16v-179q77 56 113 56q92 0 137 -51q54 -62 54 -150q0 -104 -71 -178.5t-157 -74.5q-94 0 -146 40q-13 -27 -32 -43q-13 0 -34 7q6 57 6 133z" />
    <glyph glyph-name="uni0184" unicode="&#x184;" horiz-adv-x="654" 
d="M242 344v-260q0 -24 12 -34t54 -10q47 0 79.5 15.5t47 41.5t20.5 49.5t6 50.5q0 68 -37 107.5t-111 39.5h-71zM229 658q16 0 16 -13q-3 -37 -3 -102v-153h86q129 0 204.5 -50.5t75.5 -143.5q0 -86 -64 -142t-207 -56q-33 0 -90 1t-74 1l-154 -2q-7 4 -7 17t7 17
q25 1 37 3.5t24.5 11t17 27t4.5 48.5v331q0 61 -20.5 89.5t-62.5 30.5q-7 5 -7 17t7 17q170 51 210 51z" />
    <glyph glyph-name="uni0185" unicode="&#x185;" horiz-adv-x="572" 
d="M104 463q0 125 -83 130q-7 5 -7 22t7 22q160 61 200 61q16 0 16 -13q-3 -37 -3 -102v-195q77 56 113 56q92 0 137 -51q54 -62 54 -150q0 -104 -71 -178.5t-157 -74.5q-94 0 -146 40q-13 -27 -32 -43q-13 0 -34 7q6 57 6 133v336zM234 348v-281q29 -35 71 -35q93 0 93 198
q0 71 -23.5 107t-62.5 36q-40 0 -78 -25z" />
    <glyph glyph-name="uni0186" unicode="&#x186;" horiz-adv-x="645" 
d="M249 656q151 0 239 -63q58 -41 89.5 -114t31.5 -148q0 -159 -103.5 -251t-257.5 -92q-72 0 -140.5 22t-78.5 23q-17 105 -22 155q22 12 43 5q23 -77 69 -120.5t140 -43.5q88 0 143.5 82t55.5 201q0 118 -61 205t-147 87q-127 0 -222 -104q-8 0 -18.5 7t-14.5 14
q103 135 254 135z" />
    <glyph glyph-name="uni0187" unicode="&#x187;" horiz-adv-x="706" 
d="M667 743q19 0 27.5 -12t8.5 -25q0 -34 -50 -34q-12 0 -28.5 -12.5t-29 -25t-15.5 -12.5q22 -7 37 -9q17 -105 22 -155q-22 -12 -43 -5q-11 36 -25 62.5t-37 51t-60 37.5t-87 13q-88 0 -143.5 -82t-55.5 -201q0 -77 27.5 -144t75.5 -107.5t105 -40.5q127 0 222 104
q8 0 18.5 -7t14.5 -14q-103 -135 -254 -135t-239 63q-58 41 -89.5 114t-31.5 148q0 80 29 146t78.5 108.5t114.5 65.5t139 23q79 0 156 -27q9 52 45.5 82t67.5 30z" />
    <glyph glyph-name="uni0188" unicode="&#x188;" horiz-adv-x="493" 
d="M456 428q-8 0 -25.5 4.5t-26.5 4.5q-22 0 -38 -18q27 -15 41.5 -36.5t14.5 -42.5q0 -24 -15.5 -40t-39.5 -16t-42 13.5t-20 33.5q-3 29 -16.5 50t-38.5 21q-78 0 -78 -166q0 -86 37 -130t97 -44q42 0 103 56q13 0 13 -31q-29 -42 -76 -69.5t-91 -27.5q-54 0 -90.5 12
t-65.5 40q-62 58 -62 159q0 108 65 175.5t157 67.5q43 0 78 -12q20 33 51.5 50t59.5 17q23 0 32.5 -11t9.5 -25q0 -15 -9.5 -25t-24.5 -10z" />
    <glyph glyph-name="uni0189" unicode="&#x189;" horiz-adv-x="734" 
d="M254 119q0 -48 20.5 -63.5t75.5 -15.5q31 0 61.5 13t59 40t46.5 76.5t18 114.5q0 52 -3.5 92t-17 85t-36 74.5t-64 49t-98.5 19.5q-62 0 -62 -75v-203q55 1 104 4l-10 -50q-43 2 -94 3v-164zM185 0l-154 -2q-7 4 -7 16.5t7 17.5q25 1 37 3.5t24.5 11t17 27t4.5 48.5v161
q-49 0 -97 -3l10 50q42 -2 87 -3v196q0 30 -4.5 48.5t-17 27t-24.5 11t-37 3.5q-7 5 -7 17t7 17q114 -2 154 -2q18 0 62.5 0.5t72.5 0.5q177 0 271.5 -95t94.5 -242q0 -75 -22 -135t-59 -92q-96 -84 -258 -84q-20 0 -81 1t-81 1z" />
    <glyph glyph-name="uni018A" unicode="&#x18a;" horiz-adv-x="846" 
d="M302 0l-154 -2q-8 4 -8 16.5t8 17.5q25 1 37 3.5t24.5 11t17 27t4.5 48.5v401q0 51 -14.5 69.5t-52.5 18.5q-26 0 -50.5 -17t-24.5 -39q0 -6 8.5 -19t8.5 -22q0 -20 -16 -33t-37 -13q-17 0 -33 13.5t-16 39.5q0 17 10 38t28.5 41t49 33.5t67.5 13.5q20 0 73.5 -1t69.5 -1
q18 0 62.5 0.5t72.5 0.5q177 0 271.5 -95t94.5 -242q0 -75 -22 -135t-59 -92q-96 -84 -258 -84q-20 0 -81 1t-81 1zM371 119q0 -48 20.5 -63.5t75.5 -15.5q31 0 61.5 13t59 40t46.5 76.5t18 114.5q0 36 -1.5 65.5t-7.5 63.5t-15.5 60.5t-26 52t-39 42t-55.5 26.5t-74 10
q-62 0 -62 -75v-410z" />
    <glyph glyph-name="uni018B" unicode="&#x18b;" horiz-adv-x="649" 
d="M184 359q63 17 158 17h46v186q0 41 -36 41h-100q-51 0 -74.5 -29.5t-43.5 -92.5q-25 -4 -43 5q2 17 4.5 56t4.5 70t3 34q0 3 4 3q23 -4 49 -4h310l145 2q7 -5 7 -17t-7 -17q-25 -1 -37 -3.5t-24.5 -11t-17 -27t-4.5 -48.5v-401q0 -30 4.5 -48.5t17 -27t24.5 -11t37 -3.5
q7 -4 7 -17t-7 -17q-114 2 -154 2q-17 0 -69 -1t-85 -1q-144 0 -206.5 51.5t-62.5 136.5q0 67 36 109.5t114 63.5zM388 334h-61q-74 0 -110 -39.5t-36 -107.5q0 -147 151 -147q35 0 45.5 10t10.5 34v250z" />
    <glyph glyph-name="uni018C" unicode="&#x18c;" horiz-adv-x="561" 
d="M336 433v134v16v40q-3 33 -36 33h-59q-27 0 -46.5 -8.5t-33 -27.5t-21 -37t-17.5 -49q-25 -4 -43 5q2 17 4.5 56t4.5 70t3 34q0 3 4 3q23 -4 49 -4h203q49 0 103.5 -6.5t85.5 -19.5q5 -18 -3 -32q-28 -2 -38 -3.5t-19 -10t-10 -21t-1 -40.5v-433q0 -43 12.5 -58t52.5 -19
q2 -5 2.5 -16t-0.5 -16q-85 -11 -166 -33q-22 0 -23 17q-2 18 -4 41h-9q-25 -17 -64.5 -37.5t-57.5 -20.5q-39 0 -63 9.5t-54 32.5q-35 27 -52.5 72.5t-17.5 93.5q0 99 72.5 172.5t169.5 73.5q40 0 72 -11zM337 95q-1 12 -1 24v247q-16 23 -33.5 29.5t-41.5 6.5
q-48 0 -74 -43q-25 -41 -25 -130q0 -84 25 -128.5t64 -44.5q9 0 40 13.5t46 25.5z" />
    <glyph glyph-name="uni018D" unicode="&#x18d;" horiz-adv-x="515" 
d="M148 219q0 -41 22.5 -88t58.5 -76l21 -18q119 51 119 178q0 69 -29.5 131t-82.5 62q-42 0 -75.5 -42t-33.5 -147zM289 5l15 -11h-1q65 -52 91.5 -83.5t26.5 -64.5q0 -56 -45 -83.5t-111 -27.5q-77 0 -130 32.5t-53 62.5q0 21 19 30.5t40 9.5q46 0 69 -45q26 -50 56 -50
q61 0 61 61q0 10 -6.5 21t-24.5 27t-26 22.5t-36 28.5q-104 78 -155.5 139.5t-51.5 132.5q0 115 72 176.5t169 61.5q99 0 159.5 -61t60.5 -151q0 -154 -199 -228z" />
    <glyph glyph-name="uni018E" unicode="&#x18e;" horiz-adv-x="620" 
d="M282 367h81v187q0 19 -12 34t-29 15h-85q-52 0 -76 -24.5t-42 -82.5q-25 -4 -43 5q2 17 4.5 52t4.5 62.5t3 30.5q0 3 4 3q23 -4 49 -4h295q104 1 154 2q4 -5 4 -17t-4 -17q-56 -2 -71.5 -16.5t-15.5 -74.5v-400q0 -59 15.5 -73.5t71.5 -16.5q4 -4 4 -17t-4 -17l-155 2
h-215l-138 -2q-6 22 -11 50.5t-9.5 65t-6.5 51.5q19 11 45 5q36 -128 141 -128h81q17 0 29 14t12 34v227h-81q-51 0 -70 -13.5t-21 -48.5q-5 -5 -22 -5t-21 5q2 70 2 88q0 26 -2 86q4 5 21 5t22 -5q2 -40 20 -51t71 -11z" />
    <glyph glyph-name="uni018F" unicode="&#x18f;" horiz-adv-x="702" 
d="M512 250l-319 3q27 -116 66 -168.5t96 -52.5q121 0 157 218zM105 494l-30 28q57 73 117.5 104.5t143.5 31.5q85 0 151 -29t103.5 -77.5t56.5 -105.5t19 -119q0 -150 -86 -244t-232 -94q-152 0 -223.5 76.5t-84.5 239.5l12 15l463 -15q1 9 1 22q0 126 -51 188t-133 62
q-140 0 -227 -83z" />
    <glyph glyph-name="uni0190" unicode="&#x190;" horiz-adv-x="562" 
d="M305 -10q-143 0 -207 55t-64 141q0 69 31.5 111t108.5 62v2q-43 19 -74.5 56t-31.5 74q0 29 10 55.5t34.5 53t75 42.5t122.5 16q41 0 72 -4.5t60 -12t47 -10.5q11 -91 11 -152q-17 -14 -50 -5q-39 143 -141 143q-41 0 -71 -30.5t-30 -97.5q0 -57 34.5 -85t91.5 -28h65
q5 -10 3.5 -26t-7.5 -26h-76q-74 0 -106 -34.5t-32 -102.5q0 -155 143 -155q52 0 96.5 40t59.5 106q16 6 50 -3q0 -67 -29 -165q-18 0 -67.5 -10t-128.5 -10z" />
    <glyph glyph-name="uni0191" unicode="&#x191;" horiz-adv-x="560" 
d="M117 81v441q0 60 -15.5 74.5t-71.5 16.5q-4 5 -4 17t4 17l154 -2h300q26 0 49 4q4 0 4 -3q1 -3 3 -31.5t4.5 -65t4.5 -53.5q-18 -9 -43 -5q-19 59 -42.5 85.5t-75.5 26.5h-90q-17 0 -29 -15t-12 -34v-207h81q53 0 71 11t20 51q5 5 22 5t21 -5q-2 -60 -2 -86q0 -18 2 -88
q-4 -5 -21 -5t-22 5q-2 35 -21 48.5t-70 13.5h-81v-194q0 -51 -9 -90.5t-26.5 -66.5t-31 -42t-35.5 -33q-68 -58 -151 -58q-28 0 -63 20t-35 51q0 20 21 38t37 18q14 0 24.5 -5t14.5 -10.5t10 -15.5t9 -14q18 -23 46 -23q17 0 26 6.5t14.5 31t7 62t1.5 109.5z" />
    <glyph glyph-name="florin" unicode="&#x192;" horiz-adv-x="485" 
d="M356 698q66 0 97.5 -22t31.5 -49q0 -19 -10 -36t-30 -20q-23 -4 -44 8.5t-24 30.5q-9 52 -29 52q-17 0 -30 -53q-7 -30 -24 -175h104q22 -13 -6 -47h-104q-2 -8 -2 -13q-30 -254 -54 -356q-18 -71 -59 -132q-22 -33 -58.5 -54.5t-61.5 -21.5q-51 0 -77.5 17.5t-26.5 41.5
q0 22 13.5 34.5t37.5 12.5q28 0 46 -18q2 -2 5 -9t5 -12.5t2 -6.5q4 -15 17 -15q25 1 36.5 64t19.5 168q1 21 2 31q4 48 13 142l9 127l-73 5l6 37l76 5l8 48q17 103 72 159.5t112 56.5z" />
    <glyph glyph-name="uni0193" unicode="&#x193;" horiz-adv-x="732" 
d="M736 753q26 0 36 -15.5t10 -31.5q0 -44 -60 -44q-6 0 -12.5 0.5t-7.5 0.5q-21 0 -33 -20t-12 -48q0 -7 2 -20q1 -9 -8 -11l-20 -4q7 -64 15 -101q-18 -9 -44 -6q-21 72 -75.5 117.5t-145.5 45.5q-93 0 -147 -74q-50 -69 -50 -215q0 -42 7 -81.5t23.5 -79t41 -69
t63.5 -47.5t88 -18q38 0 60.5 9t46.5 33v149q0 28 -17 36.5t-61 11.5q-4 5 -4 19t4 18q90 -2 148 -2q57 0 113 2q5 -4 5 -18t-5 -19q-22 -2 -32.5 -12.5t-10.5 -35.5v-117q0 -14 15 -28q-48 -41 -124 -64.5t-160 -23.5q-158 0 -247 76q-50 42 -77.5 107t-27.5 134
q0 163 106 258q104 93 256 93q50 0 92.5 -7.5t75 -16.5t49.5 -10q7 60 47.5 94.5t76.5 34.5z" />
    <glyph glyph-name="uni0194" unicode="&#x194;" horiz-adv-x="586" 
d="M253 51l-202 518l-8 22h1q-6 17 -9 17q-7 4 -14 4l-21 1q-11 0 -13 1q-18 7 -18 10v22h24h30q56 -2 72 -2q1 0 58.5 1t64.5 1h25v-21q-3 -9 -26 -12l-40 -1q-4 0 -4 2q-3 -6 -3 -15v-4q2 -9 6 -21h-1q24 -61 130 -332l7 -22q1 3 3.5 11t4.5 12l134 331q4 8 4 17q1 3 1 7
v12l5 -1q-4 3 -22 3q-4 0 -16.5 0.5t-17.5 0.5q-23 5 -23 11v22h24h31q17 0 46 -1l29 -1q1 0 36.5 1t40.5 1h25v-6l1 -15q0 -2 -15 -10q-6 -2 -18 -2l-16 -1q-9 0 -16 -4q-5 -3 -8 -16q-2 -8 -7 -23l-203 -494q2 -10 2 -30q0 -19 -2 -51q-1 -14 -1 -34q0 -48 -8 -85
q-18 -85 -78 -85q-63 0 -72 76v13q0 63 77 172z" />
    <glyph glyph-name="uni0195" unicode="&#x195;" horiz-adv-x="848" 
d="M392 174v121q0 39 -23 57t-57 18q-37 0 -82 -28v-215q0 -59 11.5 -76t45.5 -19q5 -4 5 -17t-5 -17q-86 2 -122 2q-58 0 -142 -2q-5 4 -5 17t5 17q48 2 62.5 18.5t14.5 76.5v436q0 50 -10 60.5t-58 14.5q-8 14 -3 34q124 5 188 26q16 0 16 -13q-3 -37 -3 -102v-201
q110 62 154 62q66 0 102 -39.5t36 -120.5v-113q0 -27 4 -50t13.5 -44t27.5 -33t43 -12q43 0 82 61q40 62 40 145q0 64 -16 87q-9 12 -38 20q-27 7 -40 18q-16 14 -16 41q0 15 13.5 27.5t35.5 12.5q63 0 91 -34q39 -48 39 -160q0 -122 -55.5 -191t-135.5 -69q-60 0 -90.5 5.5
t-62.5 25.5q-65 40 -65 153z" />
    <glyph glyph-name="uni0196" unicode="&#x196;" horiz-adv-x="358" 
d="M100 105v458q0 51 -10 61t-58 14q-8 14 -3 34q124 5 188 26q16 0 16 -13q-3 -37 -3 -102v-456q0 -35 12.5 -51t31.5 -16q34 0 52 14q18 -15 18 -28q-16 -22 -53.5 -39t-77.5 -17q-50 0 -83 28q-30 26 -30 87z" />
    <glyph glyph-name="uni0197" unicode="&#x197;" horiz-adv-x="367" 
d="M114 523q0 30 -4.5 48.5t-17 27t-24.5 11t-37 3.5q-7 4 -7 16.5t7 17.5q80 -2 154 -2q72 0 152 2q7 -5 7 -17.5t-7 -16.5q-25 -1 -37 -3.5t-24.5 -11t-17 -27t-4.5 -48.5v-197q55 1 104 4l-10 -50q-43 2 -94 3v-161q0 -30 4.5 -48.5t17 -27t24.5 -11t37 -3.5
q7 -5 7 -17.5t-7 -16.5q-80 2 -152 2q-74 0 -154 -2q-7 4 -7 16.5t7 17.5q25 1 37 3.5t24.5 11t17 27t4.5 48.5v161q-49 0 -97 -3l10 50q42 -2 87 -3v196z" />
    <glyph glyph-name="uni0198" unicode="&#x198;" horiz-adv-x="736" 
d="M435 538q34 68 71.5 94t96.5 26q44 0 72.5 -22.5t28.5 -59.5q0 -21 -20.5 -39.5t-40.5 -18.5q-40 0 -50 28q-5 14 -18 29t-30 15q-16 0 -31 -14.5t-35 -56.5l-38 -79q-33 -69 -33 -86q22 -16 41 -34q58 -54 101 -111t90 -135q14 -23 30.5 -30.5t44.5 -11.5q4 -4 4 -17
t-4 -17q-78 2 -115 2q-68 0 -108 -2q-5 0 -5 6q-3 25 -23 70q-6 13 -11.5 25t-13 24t-12.5 20.5t-14.5 20.5t-14 18t-16 19.5t-15 17.5t-17.5 19.5t-17 19.5q-37 42 -85 46v-182q0 -30 4.5 -48.5t17 -27t24.5 -11t37 -3.5q7 -4 7 -17t-7 -17q-80 2 -152 2q-74 0 -154 -2
q-7 4 -7 17t7 17q25 1 37 3.5t24.5 11t17 27t4.5 48.5v401q0 30 -4.5 48.5t-17 27t-24.5 11t-37 3.5q-7 5 -7 17t7 17q80 -2 154 -2q72 0 152 2q7 -5 7 -17t-7 -17q-25 -1 -37 -3.5t-24.5 -11t-17 -27t-4.5 -48.5v-180q18 2 32 5t34 12.5t38.5 31t35.5 53.5z" />
    <glyph glyph-name="uni0199" unicode="&#x199;" horiz-adv-x="613" 
d="M100 456q0 64 18.5 106t52.5 78q53 58 126 58q37 0 66 -9t43.5 -22t22 -24t7.5 -19q0 -28 -14 -44t-36 -16q-43 0 -62 50q-10 26 -16.5 34t-19.5 8q-58 0 -58 -169v-238q21 0 50 9.5t39 18.5q32 28 64 72q20 30 10.5 40t-51.5 13q-4 4 -4 17t4 17q74 -2 121 -2
q67 0 111 2q4 -4 4 -17t-4 -17q-27 -3 -47.5 -9.5t-38 -21t-24.5 -21t-26 -26.5l-49 -55q-6 -7 3 -20l116 -171q5 -7 9.5 -13t10 -10.5t9 -7.5t9.5 -5.5t9 -3.5t10.5 -2.5t9.5 -1.5t11.5 -1t12.5 -1q5 -4 5 -17t-5 -17q-74 2 -134 2l-80 -2l-2 2v26q0 18 -16 52
q-17 36 -68 112q-13 19 -69 19v-82q0 -60 14.5 -76.5t62.5 -18.5q5 -4 5 -17t-5 -17q-86 2 -142 2q-58 0 -142 -2q-5 4 -5 17t5 17q48 2 62.5 18.5t14.5 76.5v329z" />
    <glyph glyph-name="uni019A" unicode="&#x19a;" horiz-adv-x="325" 
d="M230 340q50 1 85 3l-9 -50q-33 2 -76 3v-169q0 -60 14.5 -76.5t62.5 -18.5q5 -5 5 -17.5t-5 -16.5q-86 2 -142 2q-58 0 -142 -2q-4 4 -4 16.5t4 17.5q48 2 62.5 18.5t14.5 76.5v169q-55 -1 -92 -3l9 50q37 -2 83 -3v225q0 50 -10 60.5t-58 14.5q-8 14 -3 32q124 5 188 26
q16 0 16 -13q-3 -37 -3 -102v-243z" />
    <glyph glyph-name="uni019B" unicode="&#x19b;" horiz-adv-x="556" 
d="M370 629l26 -44l-107 -63l9 4l77 -256q35 -117 52.5 -162.5t29.5 -45.5q18 0 49 70l56 -33q-16 -49 -44.5 -80t-64.5 -31q-47 0 -75.5 33.5t-50.5 105.5l-52 178q-21 -48 -64.5 -146t-64.5 -146l-101 -28l-38 15l229 428q-6 22 -14 48l-1 3q0 1 -1 3q-29 -17 -89 -52
l-26 44l98 58q-40 98 -67 98t-78 -41l-26 45q20 29 53 46.5t65 17.5q12 0 27 -4.5t34.5 -16.5t38.5 -37.5t32 -61.5q45 25 88 51z" />
    <glyph glyph-name="uni019C" unicode="&#x19c;" horiz-adv-x="880" 
d="M218 571v-441q0 -87 52 -87t122 71l-6 -4q-3 16 -3 41v420q0 40 -23 40h-21q-30 0 -30 12v15l10 9q86 -2 128 -2l124 2l11 -9v-15q0 -12 -31 -12h-20q-24 0 -24 -40v-439q0 -45 14 -67t37 -22q42 0 119 72l-7 -3v459q0 40 -24 40h-21q-30 0 -30 12v15l9 9q87 -2 129 -2
l124 2l10 -9v-15q0 -12 -30 -12h-21q-23 0 -23 -40v-460q0 -56 2 -56q15 0 64 10l8 -38q-87 -13 -124 -30q-18 -9 -35 -9h-38l2 56q-73 -56 -152 -56q-42 0 -73.5 17.5t-46.5 44.5q-78 -62 -169 -62q-77 0 -106.5 43.5t-29.5 120.5v419q0 40 -24 40h-20q-30 0 -30 12v15l9 9
q87 -2 129 -2l124 2l9 -9v-15q0 -12 -29 -12h-20q-25 0 -25 -40z" />
    <glyph glyph-name="uni019D" unicode="&#x19d;" horiz-adv-x="720" 
d="M97 548l1 -1q-5 21 -19 42.5t-27 21.5h-6q-34 0 -34 12v11l9 13l154 -1q225 -263 354 -437q12 -16 17 -23v368q0 57 -32 57h-26q-35 0 -35 12v17l21 7q79 -2 114 -2l124 2l10 -9v-15q0 -12 -30 -12h-26q-16 0 -24.5 -16.5t-8.5 -40.5v-529q0 -33 -43 -33q-39 2 -56 23h1
q-261 329 -346 437q-1 1 -2.5 3t-2.5 3q0 -3 0.5 -9.5t0.5 -10.5v-346q0 -43 -1 -68t-4.5 -62.5t-12 -59t-23 -44.5t-38 -33t-55.5 -10q-42 0 -71.5 17.5t-29.5 35.5q0 22 18 30t36 8q19 0 34 -12.5t21 -30.5q3 -10 -1 -11q39 3 39 203v493z" />
    <glyph glyph-name="uni019E" unicode="&#x19e;" horiz-adv-x="615" 
d="M228 122q0 -59 9 -73t43 -17q4 -4 4 -17t-4 -17q-86 2 -117 2q-53 0 -137 -2q-4 4 -4 17t4 17q48 4 60 17t12 73v192q0 42 -11.5 53t-53.5 15q-2 5 -2.5 17t0.5 17q159 21 178 28q23 0 23 -17q-1 -19 -2 -45q109 62 153 62q138 0 138 -160v-388q0 -61 14.5 -77.5
t62.5 -18.5q4 -4 4 -17t-4 -17q-86 2 -142 2q-38 0 -122 -2q-4 4 -4 17t4 17q33 2 45 19.5t12 76.5v399q0 39 -23 57t-57 18q-38 0 -83 -29v-20v-199z" />
    <glyph glyph-name="uni019F" unicode="&#x19f;" horiz-adv-x="730" 
d="M694 329q0 -147 -86 -240q-92 -99 -244 -99q-64 0 -123 22.5t-104.5 62.5t-72.5 101t-27 133q0 140 81 237q44 53 107.5 82.5t137.5 29.5q140 0 235.5 -91.5t95.5 -237.5zM541 353q-8 126 -60.5 194.5t-129.5 68.5q-69 0 -114 -65t-49 -198h353zM543 309h-355
q5 -129 59.5 -203t136.5 -74q75 0 117 75t42 201v1z" />
    <glyph glyph-name="Ohorn" unicode="&#x1a0;" horiz-adv-x="730" 
d="M701 663q0 -42 -26.5 -69t-72.5 -27h-4q96 -93 96 -238q0 -147 -86 -240q-92 -99 -244 -99q-64 0 -123 22.5t-104.5 62.5t-72.5 101t-27 133q0 140 81 237q44 53 107.5 82.5t137.5 29.5q96 0 175 -45q35 -13 61 -13q13 0 29 10.5t16 32.5t-21 25q-24 3 -35.5 16.5
t-11.5 30.5q0 39 46 39q40 0 59.5 -25.5t19.5 -65.5zM351 616q-72 0 -117.5 -71t-45.5 -216q0 -137 55.5 -217t140.5 -80q75 0 117 75t42 201q0 147 -54 227.5t-138 80.5z" />
    <glyph glyph-name="ohorn" unicode="&#x1a1;" horiz-adv-x="581" 
d="M260 402q-83 0 -83 -173q0 -69 29.5 -133t84.5 -64q33 0 58 35.5t25 116.5q0 102 -31 160t-83 58zM37 207q0 100 55 163q64 74 184 74q73 0 128 -30q30 -12 45 -12q12 0 23.5 10.5t11.5 32.5t-21 25q-24 3 -35.5 16.5t-11.5 30.5q0 39 46 39q40 0 59.5 -25.5t19.5 -65.5
q0 -41 -20 -67t-61 -29q54 -61 54 -153q0 -108 -68 -169q-64 -57 -171 -57q-102 0 -170 60t-68 157z" />
    <glyph glyph-name="uni01A2" unicode="&#x1a2;" horiz-adv-x="995" 
d="M345 616q-71 0 -123 -73t-52 -215q0 -137 58.5 -216.5t149.5 -79.5q44 0 86 34v504q-50 46 -119 46zM733 -12v539q0 50 -9.5 60.5t-54.5 14.5q-9 -1 -12 0q-13 0 -26 -0.5t-20 -1.5l-7 -1v-530q-37 -37 -104.5 -58t-140.5 -21q-92 0 -168.5 38t-124 112.5t-47.5 170.5
t45 176t123 125.5t171 45.5q41 0 88 -7.5t76 -21.5q15 9 31 18l32 -3q34 -4 105 -4q7 0 12.5 -0.5t8.5 -0.5q104 9 149 23q16 0 16 -13q-3 -37 -3 -102v-559q0 -60 14.5 -76.5t62.5 -18.5q4 -5 4 -17t-4 -17q-86 2 -147 2q-63 0 -147 -2q-4 5 -4 17t4 17q48 2 62.5 18.5
t14.5 76.5z" />
    <glyph glyph-name="uni01A3" unicode="&#x1a3;" horiz-adv-x="803" 
d="M327 354q-21 29 -38.5 38.5t-42.5 9.5q-88 0 -88 -173q0 -101 34 -149t77 -48q33 0 58 18v304zM515 407q116 15 172 37q23 0 23 -17q-4 -56 -4 -105v-421q0 -42 7 -62t22 -26t48 -8q4 -5 4 -17t-4 -17q-86 2 -142 2q-58 0 -142 -2q-5 5 -5 17t5 17q33 2 48 8t22 26t7 62
v427q0 14 -5.5 22.5t-16 11.5t-17.5 4t-19 1q-42 0 -61 -8v-304q-37 -26 -100.5 -45.5t-110.5 -19.5q-57 0 -102.5 20.5t-72 53.5t-40 70t-13.5 74q0 100 66 168t166 68q64 0 103 -21q36 -16 162 -16z" />
    <glyph glyph-name="uni01A4" unicode="&#x1a4;" horiz-adv-x="734" 
d="M466 654q111 0 167 -33q42 -25 59.5 -62.5t17.5 -74.5q0 -45 -16 -87.5t-51 -71.5q-58 -48 -190 -48q-14 0 -35 3q-20 13 -20 42q21 -3 50 -3q61 0 86 34.5t25 113.5q0 146 -125 146q-38 0 -49 -18t-11 -71v-402q0 -30 4.5 -48.5t17 -27t24.5 -11t37 -3.5q8 -4 8 -16.5
t-8 -17.5q-80 2 -152 2q-74 0 -154 -2q-7 5 -7 17.5t7 16.5q25 1 37 3.5t24.5 11t17 27t4.5 48.5v401q0 44 -11 62.5t-35 23.5h-1q-13 2 -20 2q-26 0 -50.5 -17t-24.5 -39q0 -6 8.5 -19t8.5 -22q0 -20 -16 -33t-37 -13q-17 0 -33 13.5t-16 39.5q0 38 38.5 80t105.5 46h4h5
q27 0 156.5 3.5t149.5 3.5z" />
    <glyph glyph-name="uni01A5" unicode="&#x1a5;" horiz-adv-x="578" 
d="M223 381h2q27 25 62 44t56 19q87 0 137 -50q28 -28 44 -71t16 -86q0 -111 -68.5 -179t-182.5 -68q-34 0 -67 17v-117q0 -32 2 -48.5t11.5 -26t21 -11.5t37.5 -4q5 -4 5 -17t-5 -17q-86 2 -137 2q-53 0 -137 -2q-4 4 -4 17t4 17q27 2 37.5 4.5t20.5 11.5t12 25.5t2 48.5
v565q0 65 18.5 106.5t52.5 78.5q53 58 126 58q37 0 66 -9t43.5 -22t22 -24t7.5 -19q0 -28 -14 -44t-36 -16q-43 0 -62 50q-10 26 -16.5 34t-19.5 8q-8 0 -15 -3.5t-15 -14.5t-14 -28.5t-10 -50t-4 -75.5v-143zM222 341v-276q31 -33 61 -33q41 0 68.5 28t38 66t10.5 84
q0 81 -27 124t-62 43q-50 0 -89 -36z" />
    <glyph glyph-name="uni01A6" unicode="&#x1a6;" horiz-adv-x="588" 
d="M405 386q0 67 -36.5 98.5t-82.5 31.5q-34 0 -64 -5v-240h28q73 0 114 24t41 91zM529 388q0 -52 -42.5 -90.5t-92.5 -55.5q83 -191 103 -235h-1q40 -77 93 -71l5 -25q-31 -13 -64 -13q-101 0 -148 87l-102 231l1 -1q-3 10 -59 11v-152q0 -39 32 -39h26q31 0 31 -12v-15
l-10 -9q-100 2 -139 2l-141 -2l-10 9v15q0 12 30 12h25q33 0 33 39v497q0 40 -33 40h-25q-30 0 -30 12v15l9 9q100 -2 139 -2l141 2l10 -9v-15q0 -12 -30 -12h-26q-32 0 -32 -40v-19q7 0 24.5 -0.5t28.5 -0.5q52 0 95 -8t80 -25.5t58 -50.5t21 -79z" />
    <glyph glyph-name="uni01A7" unicode="&#x1a7;" horiz-adv-x="479" 
d="M58 631q-11 -91 -11 -152q8 -6 24 -7t26 2q8 30 16.5 51t23.5 44.5t38 35.5t53 12q39 0 62 -24t23 -66q0 -38 -35.5 -73.5t-75.5 -55.5q-91 -47 -134 -94q-52 -57 -52 -120q0 -79 68 -140q61 -54 151 -54q79 0 129.5 10t68.5 10q19 64 19 165q-34 9 -50 3
q-15 -66 -59.5 -106t-96.5 -40q-46 0 -75 23t-29 60q0 65 91 128q11 7 50 29.5t70 45.5t52 51q33 44 33 116q0 35 -18 68.5t-47 56.5q-30 24 -69.5 36t-76.5 12q-55 0 -109.5 -13t-59.5 -14z" />
    <glyph glyph-name="uni01A8" unicode="&#x1a8;" horiz-adv-x="395" 
d="M367 146q-1 -25 -2 -55.5t-2 -48.5t-6 -42q-3 0 -10 0.5t-13.5 1t-12.5 0.5q-9 0 -50 -6t-60 -6q-31 0 -61.5 7t-58.5 21.5t-45.5 40.5t-17.5 60q0 52 36 92q34 38 121 76q55 24 55 75q0 20 -14.5 30t-37.5 10q-34 0 -55 -20.5t-36 -72.5q-26 -4 -39 5q0 71 -4 106
q7 1 31.5 8t48.5 11.5t49 4.5q83 0 134 -52q34 -35 34 -82q0 -41 -31 -75q-21 -24 -55 -46.5t-60 -34.5q-51 -23 -51 -76q0 -22 20.5 -35.5t43.5 -13.5q45 0 70.5 27.5t38.5 91.5q18 3 40 -2z" />
    <glyph glyph-name="uni01A9" unicode="&#x1a9;" horiz-adv-x="592" 
d="M529 645q26 0 49 4q4 0 4 -3q2 -6 2.5 -68.5t-0.5 -96.5q-18 -9 -43 -5q-23 71 -36 89q-23 33 -72 33h-203l224 -258l-1 -1v-14l-263 -221l229 4q25 0 39 1.5t34 6.5t32.5 14t25 26.5t20.5 43.5q26 6 45 -5q-23 -147 -37 -197l-138 2h-297l-122 -2q-5 4 -5 17t5 18
q30 17 102 78l193 165l-256 300q-19 23 -38 37q-4 5 -4 17t4 17q123 -2 143 -2h364z" />
    <glyph glyph-name="uni01AA" unicode="&#x1aa;" horiz-adv-x="330" 
d="M165 598q0 26 -11.5 47t-32.5 21q-20 0 -32 -20.5t-12 -47.5q0 -26 12 -46t32 -20q19 0 31.5 20t12.5 46zM-5 598q0 46 36 73t91 27q68 0 100.5 -41t32.5 -145v-495q0 -139 16 -167q13 -19 18 -22q-3 2 5 22q4 10 7.5 15.5t14 10.5t27.5 5q54 0 54 -38q0 -19 -31 -35.5
t-79 -16.5q-19 0 -48.5 10t-46.5 24q-35 35 -45 86t-10 136v381q0 33 7 75q-12 -3 -23 -3q-58 0 -92 27.5t-34 70.5z" />
    <glyph glyph-name="uni01AB" unicode="&#x1ab;" horiz-adv-x="358" 
d="M164 -144q-16 0 -26 11t-10 26q0 20 14.5 27t37.5 9t32 8q26 15 27 57q-19 -4 -38 -4q-20 0 -43.5 7.5t-39.5 20.5q-30 26 -30 87q0 148 3 279h-65q-5 0 -5 6v29q17 15 42 15h28q0 101 11 116q3 4 12 8t22 8t19 6q12 5 33.5 11.5t26.5 6.5q8 0 8 -9q-3 -47 -5 -113
l-1 -34h117q8 0 8 -6v-31q0 -6 -7.5 -9.5t-16.5 -3.5h-101q0 -56 0.5 -147t0.5 -110q0 -35 12.5 -51t31.5 -16q39 0 57 14q18 -15 18 -28q-19 -27 -70 -44v-12q0 -60 -37 -97t-66 -37z" />
    <glyph glyph-name="uni01AC" unicode="&#x1ac;" horiz-adv-x="682" 
d="M92 555q0 -6 8.5 -19t8.5 -22q0 -20 -16 -33t-37 -13q-17 0 -33 13.5t-16 39.5q0 17 9.5 38t27.5 41t49.5 33.5t68.5 13.5q14 0 51.5 -1t81.5 -1h141q133 0 224 8q3 0 3 -3q1 -67 13 -143q-11 -5 -39 -5q-12 56 -44 79.5t-90 23.5h-22q-26 0 -36 -25.5t-10 -76.5v-380
q0 -60 17 -74.5t80 -16.5q4 -4 4 -17t-4 -17q-100 2 -169 2q-67 0 -165 -2q-4 4 -4 17t4 17q63 2 80 16.5t17 74.5v383q0 49 -10.5 74t-36.5 25h-79q-28 0 -52.5 -14t-24.5 -36z" />
    <glyph glyph-name="uni01AD" unicode="&#x1ad;" horiz-adv-x="358" 
d="M214 486v-52h110q8 0 8 -6v-28q0 -6 -7.5 -9.5t-16.5 -3.5h-94q0 -56 -0.5 -148.5t-0.5 -111.5q0 -34 17 -50.5t37 -16.5q34 0 52 14q18 -15 18 -28q-16 -22 -53.5 -39t-77.5 -17q-21 0 -49.5 7.5t-43.5 20.5q-30 26 -30 87q0 19 0.5 122.5t0.5 159.5h-59q-5 0 -5 6v16
q12 10 29.5 17.5t28.5 7.5h6v20q0 72 11.5 114t39.5 72q29 31 55 44.5t61 13.5q37 0 66 -9t43.5 -22t22 -24t7.5 -19q0 -28 -14 -44t-36 -16q-43 0 -62 50q-10 26 -16.5 34t-19.5 8q-9 0 -14 -5.5t-8.5 -24t-4.5 -51t-1 -89.5z" />
    <glyph glyph-name="uni01AE" unicode="&#x1ae;" horiz-adv-x="652" 
d="M405 81q0 -43 -1 -104q-2 -83 6 -95q6 -10 24 -10q28 0 46 23q3 4 9 14t10 15.5t14.5 10.5t24.5 5q16 0 37 -18t21 -38q0 -31 -35 -51t-63 -20q-83 0 -151 58q-39 33 -60.5 83.5t-21.5 148.5v403q0 49 -10.5 74t-36.5 25h-49q-51 0 -81.5 -24t-45.5 -82q-26 0 -39 5
q20 86 25 146q0 3 4 3q101 -8 233 -8h141q133 0 224 8q3 0 3 -3q1 -67 13 -143q-11 -5 -39 -5q-12 56 -44 79.5t-90 23.5h-22q-26 0 -36 -25.5t-10 -76.5v-422z" />
    <glyph glyph-name="Uhorn" unicode="&#x1af;" horiz-adv-x="690" 
d="M656 613q-42 0 -42 -44v-276q0 -72 -11 -123.5t-37.5 -94.5t-77.5 -65t-126 -22q-30 0 -62.5 5.5t-71.5 22.5t-69 43t-50 71.5t-20 103.5v335q0 23 -12.5 33.5t-41.5 10.5h-27q-8 0 -8 8v24l2 1q107 -1 146 -1l150 1l2 -1v-24q0 -8 -8 -8h-26q-55 0 -55 -44v-302
q0 -42 2 -66.5t14.5 -58t37.5 -58.5q50 -50 119 -50q34 0 60.5 7.5t43.5 18.5t29 31.5t17.5 36t8.5 44.5t3.5 45.5t0.5 48.5v9v294q0 23 -12.5 33.5t-41.5 10.5h-27q-8 0 -8 8v24l2 1q81 -1 120 -1q63 0 86.5 5.5t23.5 20.5q0 19 -31 19q-24 0 -35.5 12t-11.5 29
q0 18 13.5 28.5t36.5 10.5q28 0 47 -24.5t19 -59.5q0 -33 -19.5 -53t-52.5 -20z" />
    <glyph glyph-name="uhorn" unicode="&#x1b0;" horiz-adv-x="531" 
d="M510 133q0 -43 12.5 -58.5t52.5 -19.5q2 -5 2.5 -16t-0.5 -16q-85 -11 -166 -33q-22 0 -23 17q-2 19 -5 44q-45 -25 -92.5 -43t-73.5 -18q-128 0 -128 160v156q0 59 -14.5 76.5t-52.5 19.5q-5 5 -5 17.5t5 16.5q86 -2 132 -2q21 0 57 2q10 -10 10 -34q0 -4 -1 -25t-1 -71
v-167q0 -48 17 -61.5t53 -13.5q48 0 92 27q-1 16 -1 30v185q0 42 -7 61.5t-19 25.5t-41 9q-5 4 -5 17t5 17q76 -2 130 -2q11 4 19.5 11t8.5 13q0 20 -27 21q-24 1 -36 13.5t-12 29.5q0 18 12 28.5t34 10.5q28 0 45.5 -26t17.5 -62q0 -20 -12 -37h5h4q10 -10 10 -34
q0 -4 -1 -25t-1 -71v-173z" />
    <glyph glyph-name="uni01B1" unicode="&#x1b1;" horiz-adv-x="690" 
d="M141 581q-28 0 -39 -10.5t-16 -49.5h-68l7 125h117q110 0 110 -66q0 -32 -46 -142q-43 -103 -49 -146q-1 -11 -1 -22q0 -106 49.5 -173.5t133.5 -67.5q87 0 134.5 70t47.5 170q0 91 -65 221q-38 80 -38 100q0 28 33.5 42t114.5 14h92l7 -125h-69q-3 38 -14 49t-40 11
q-24 0 -24 -19q0 -18 37 -73q29 -43 44.5 -68t33.5 -70t18 -81q0 -51 -20 -100.5t-57 -90.5t-98.5 -66t-136.5 -25q-151 0 -232.5 81t-81.5 201q0 37 18.5 82t34 68.5t46.5 68.5q38 54 38 74q0 18 -21 18z" />
    <glyph glyph-name="uni01B2" unicode="&#x1b2;" horiz-adv-x="676" 
d="M82 571v-349q0 -69 19 -116t55 -72t78.5 -35.5t98.5 -10.5q37 0 73 8t80 33t77 65t55 112t22 166q0 126 -41.5 206t-128.5 80q-43 0 -84 -16.5t-41 -52.5q0 -34 52 -34q23 0 38 10.5t18.5 19t4.5 16.5q3 20 11 20q25 0 43 -33.5t25.5 -83.5t10.5 -86.5t3 -64.5
q0 -150 -64.5 -236t-153.5 -86q-40 0 -66.5 16.5t-39 49.5t-17 68t-4.5 85v321q0 40 32 40h26q29 0 29 12v15l-9 9q-107 -2 -142 -2l-139 2l-9 -9v-15q0 -12 30 -12h26q32 0 32 -40z" />
    <glyph glyph-name="uni01B3" unicode="&#x1b3;" horiz-adv-x="666" 
d="M226 432l88 -152l-3 2v-207q0 -40 -32 -40h-26q-29 0 -29 -12v-15l9 -9q106 2 142 2l138 -2l10 9v15q0 12 -30 12h-26q-18 0 -25 9.5t-7 30.5v218l-3 -1l147 277q13 24 21.5 33t19.5 9h21q31 0 31 12v15l-9 9q-92 -2 -101 -2l-104 2l-10 -9v-16q0 -9 26 -11h31q3 0 3 -9
t-8 -27q-72 -132 -107 -198l-54 89q-61 103 -108.5 148t-99.5 45q-57 0 -97 -29t-40 -57q0 -14 13.5 -25.5t39.5 -11.5q51 0 51 40q0 7 -2 15q0 2 -0.5 5t-0.5 4q0 17 7 17q18 0 124 -185z" />
    <glyph glyph-name="uni01B4" unicode="&#x1b4;" horiz-adv-x="645" 
d="M468 389l-195 -460q-15 -35 -25 -53.5t-29 -42.5t-44 -34.5t-59 -10.5q-26 0 -52.5 12.5t-26.5 37.5q0 22 19.5 32t42.5 10q32 0 45 -15q12 -15 11 -16q5 1 43 90l26 65q-12 29 -65.5 161.5t-82.5 203.5q-12 28 -34 28h-7q-32 0 -32 12v15l11 10q62 -2 91 -2l136 2l6 -10
v-15q0 -5 -11 -8.5t-22 -3.5h-18q-4 0 -4 -11q0 -13 5 -28l86 -210q7 17 45 107t58 138q30 72 75 119t100 47q91 0 91 -51q0 -17 -18 -30t-41 -13q-42 0 -58 16q-5 6 -7 6q-16 0 -60 -98z" />
    <glyph glyph-name="uni01B5" unicode="&#x1b5;" horiz-adv-x="624" 
d="M429 44q49 0 84 36t50 97q27 0 39 -5q-12 -122 -27 -177q0 -3 -4 -3q-101 8 -233 8h-299q-19 0 -19 15q0 11 8 23l183 265h-106v39h133l164 237q16 23 -2 23h-191q-97 0 -128 -126q-27 0 -39 5q18 78 26 169q0 3 4 3q101 -8 233 -8h201q16 0 38.5 1t27.5 1q17 0 17 -10
q0 -14 -22 -46l-170 -249h131v-39h-157l-158 -231q-11 -14 -8.5 -21t24.5 -7h200z" />
    </font>
</defs>
</svg>
